<svg width="315" height="196" viewBox="0 0 315 196" fill="none" xmlns="http://www.w3.org/2000/svg">
<path d="M98.98 18.2C98.98 16.2773 99.4093 14.56 100.268 13.048C101.145 11.5173 102.331 10.332 103.824 9.492C105.336 8.63333 107.025 8.204 108.892 8.204C111.076 8.204 112.989 8.764 114.632 9.884C116.275 11.004 117.423 12.5533 118.076 14.532H113.568C113.12 13.5987 112.485 12.8987 111.664 12.432C110.861 11.9653 109.928 11.732 108.864 11.732C107.725 11.732 106.708 12.0027 105.812 12.544C104.935 13.0667 104.244 13.8133 103.74 14.784C103.255 15.7547 103.012 16.8933 103.012 18.2C103.012 19.488 103.255 20.6267 103.74 21.616C104.244 22.5867 104.935 23.3427 105.812 23.884C106.708 24.4067 107.725 24.668 108.864 24.668C109.928 24.668 110.861 24.4347 111.664 23.968C112.485 23.4827 113.12 22.7733 113.568 21.84H118.076C117.423 23.8373 116.275 25.396 114.632 26.516C113.008 27.6173 111.095 28.168 108.892 28.168C107.025 28.168 105.336 27.748 103.824 26.908C102.331 26.0493 101.145 24.864 100.268 23.352C99.4093 21.84 98.98 20.1227 98.98 18.2ZM126.464 24.892H132.904V28H122.544V8.456H126.464V24.892ZM145.588 28.196C143.758 28.196 142.078 27.7667 140.548 26.908C139.017 26.0493 137.804 24.864 136.908 23.352C136.012 21.8213 135.564 20.0947 135.564 18.172C135.564 16.268 136.012 14.56 136.908 13.048C137.804 11.5173 139.017 10.3227 140.548 9.464C142.078 8.60533 143.758 8.176 145.588 8.176C147.436 8.176 149.116 8.60533 150.628 9.464C152.158 10.3227 153.362 11.5173 154.24 13.048C155.136 14.56 155.584 16.268 155.584 18.172C155.584 20.0947 155.136 21.8213 154.24 23.352C153.362 24.864 152.158 26.0493 150.628 26.908C149.097 27.7667 147.417 28.196 145.588 28.196ZM145.588 24.696C146.764 24.696 147.8 24.4347 148.696 23.912C149.592 23.3707 150.292 22.6053 150.796 21.616C151.3 20.6267 151.552 19.4787 151.552 18.172C151.552 16.8653 151.3 15.7267 150.796 14.756C150.292 13.7667 149.592 13.0107 148.696 12.488C147.8 11.9653 146.764 11.704 145.588 11.704C144.412 11.704 143.366 11.9653 142.452 12.488C141.556 13.0107 140.856 13.7667 140.352 14.756C139.848 15.7267 139.596 16.8653 139.596 18.172C139.596 19.4787 139.848 20.6267 140.352 21.616C140.856 22.6053 141.556 23.3707 142.452 23.912C143.366 24.4347 144.412 24.696 145.588 24.696ZM163.484 8.456V20.552C163.484 21.8773 163.829 22.8947 164.52 23.604C165.211 24.2947 166.181 24.64 167.432 24.64C168.701 24.64 169.681 24.2947 170.372 23.604C171.063 22.8947 171.408 21.8773 171.408 20.552V8.456H175.356V20.524C175.356 22.1853 174.992 23.5947 174.264 24.752C173.555 25.8907 172.593 26.7493 171.38 27.328C170.185 27.9067 168.851 28.196 167.376 28.196C165.92 28.196 164.595 27.9067 163.4 27.328C162.224 26.7493 161.291 25.8907 160.6 24.752C159.909 23.5947 159.564 22.1853 159.564 20.524V8.456H163.484ZM187.096 8.456C189.149 8.456 190.95 8.85733 192.5 9.66C194.068 10.4627 195.272 11.6107 196.112 13.104C196.97 14.5787 197.4 16.296 197.4 18.256C197.4 20.216 196.97 21.9333 196.112 23.408C195.272 24.864 194.068 25.9933 192.5 26.796C190.95 27.5987 189.149 28 187.096 28H180.264V8.456H187.096ZM186.956 24.668C189.009 24.668 190.596 24.108 191.716 22.988C192.836 21.868 193.396 20.2907 193.396 18.256C193.396 16.2213 192.836 14.6347 191.716 13.496C190.596 12.3387 189.009 11.76 186.956 11.76H184.184V24.668H186.956ZM98.98 54.2C98.98 52.2773 99.4093 50.56 100.268 49.048C101.145 47.5173 102.331 46.332 103.824 45.492C105.336 44.6333 107.025 44.204 108.892 44.204C111.076 44.204 112.989 44.764 114.632 45.884C116.275 47.004 117.423 48.5533 118.076 50.532H113.568C113.12 49.5987 112.485 48.8987 111.664 48.432C110.861 47.9653 109.928 47.732 108.864 47.732C107.725 47.732 106.708 48.0027 105.812 48.544C104.935 49.0667 104.244 49.8133 103.74 50.784C103.255 51.7547 103.012 52.8933 103.012 54.2C103.012 55.488 103.255 56.6267 103.74 57.616C104.244 58.5867 104.935 59.3427 105.812 59.884C106.708 60.4067 107.725 60.668 108.864 60.668C109.928 60.668 110.861 60.4347 111.664 59.968C112.485 59.4827 113.12 58.7733 113.568 57.84H118.076C117.423 59.8373 116.275 61.396 114.632 62.516C113.008 63.6173 111.095 64.168 108.892 64.168C107.025 64.168 105.336 63.748 103.824 62.908C102.331 62.0493 101.145 60.864 100.268 59.352C99.4093 57.84 98.98 56.1227 98.98 54.2ZM131.616 64.196C129.787 64.196 128.107 63.7667 126.576 62.908C125.046 62.0493 123.832 60.864 122.936 59.352C122.04 57.8213 121.592 56.0947 121.592 54.172C121.592 52.268 122.04 50.56 122.936 49.048C123.832 47.5173 125.046 46.3227 126.576 45.464C128.107 44.6053 129.787 44.176 131.616 44.176C133.464 44.176 135.144 44.6053 136.656 45.464C138.187 46.3227 139.391 47.5173 140.268 49.048C141.164 50.56 141.612 52.268 141.612 54.172C141.612 56.0947 141.164 57.8213 140.268 59.352C139.391 60.864 138.187 62.0493 136.656 62.908C135.126 63.7667 133.446 64.196 131.616 64.196ZM131.616 60.696C132.792 60.696 133.828 60.4347 134.724 59.912C135.62 59.3707 136.32 58.6053 136.824 57.616C137.328 56.6267 137.58 55.4787 137.58 54.172C137.58 52.8653 137.328 51.7267 136.824 50.756C136.32 49.7667 135.62 49.0107 134.724 48.488C133.828 47.9653 132.792 47.704 131.616 47.704C130.44 47.704 129.395 47.9653 128.48 48.488C127.584 49.0107 126.884 49.7667 126.38 50.756C125.876 51.7267 125.624 52.8653 125.624 54.172C125.624 55.4787 125.876 56.6267 126.38 57.616C126.884 58.6053 127.584 59.3707 128.48 59.912C129.395 60.4347 130.44 60.696 131.616 60.696ZM166.957 44.456V64H163.037V51.288L157.801 64H154.833L149.569 51.288V64H145.649V44.456H150.101L156.317 58.988L162.533 44.456H166.957ZM186.204 50.504C186.204 51.5493 185.952 52.5293 185.448 53.444C184.963 54.3587 184.188 55.096 183.124 55.656C182.079 56.216 180.753 56.496 179.148 56.496H175.872V64H171.952V44.456H179.148C180.66 44.456 181.948 44.7173 183.012 45.24C184.076 45.7627 184.869 46.4813 185.392 47.396C185.933 48.3107 186.204 49.3467 186.204 50.504ZM178.98 53.332C180.063 53.332 180.865 53.0893 181.388 52.604C181.911 52.1 182.172 51.4 182.172 50.504C182.172 48.6 181.108 47.648 178.98 47.648H175.872V53.332H178.98ZM193.971 44.456V56.552C193.971 57.8773 194.317 58.8947 195.007 59.604C195.698 60.2947 196.669 60.64 197.919 60.64C199.189 60.64 200.169 60.2947 200.859 59.604C201.55 58.8947 201.895 57.8773 201.895 56.552V44.456H205.843V56.524C205.843 58.1853 205.479 59.5947 204.751 60.752C204.042 61.8907 203.081 62.7493 201.867 63.328C200.673 63.9067 199.338 64.196 197.863 64.196C196.407 64.196 195.082 63.9067 193.887 63.328C192.711 62.7493 191.778 61.8907 191.087 60.752C190.397 59.5947 190.051 58.1853 190.051 56.524V44.456H193.971ZM224.051 44.456V47.62H218.843V64H214.923V47.62H209.715V44.456H224.051ZM231.951 44.456V64H228.031V44.456H231.951ZM253.66 64H249.74L240.864 50.588V64H236.944V44.428H240.864L249.74 57.868V44.428H253.66V64ZM272.262 50.336C271.814 49.5147 271.198 48.8893 270.414 48.46C269.63 48.0307 268.715 47.816 267.67 47.816C266.512 47.816 265.486 48.0773 264.59 48.6C263.694 49.1227 262.994 49.8693 262.49 50.84C261.986 51.8107 261.734 52.9307 261.734 54.2C261.734 55.5067 261.986 56.6453 262.49 57.616C263.012 58.5867 263.731 59.3333 264.646 59.856C265.56 60.3787 266.624 60.64 267.838 60.64C269.331 60.64 270.554 60.248 271.506 59.464C272.458 58.6613 273.083 57.5507 273.382 56.132H266.662V53.136H277.246V56.552C276.984 57.9147 276.424 59.1747 275.566 60.332C274.707 61.4893 273.596 62.4227 272.234 63.132C270.89 63.8227 269.378 64.168 267.698 64.168C265.812 64.168 264.104 63.748 262.574 62.908C261.062 62.0493 259.867 60.864 258.99 59.352C258.131 57.84 257.702 56.1227 257.702 54.2C257.702 52.2773 258.131 50.56 258.99 49.048C259.867 47.5173 261.062 46.332 262.574 45.492C264.104 44.6333 265.803 44.204 267.67 44.204C269.872 44.204 271.786 44.7453 273.41 45.828C275.034 46.892 276.154 48.3947 276.77 50.336H272.262ZM98.98 90.2C98.98 88.2773 99.4093 86.56 100.268 85.048C101.145 83.5173 102.331 82.332 103.824 81.492C105.336 80.6333 107.025 80.204 108.892 80.204C111.076 80.204 112.989 80.764 114.632 81.884C116.275 83.004 117.423 84.5533 118.076 86.532H113.568C113.12 85.5987 112.485 84.8987 111.664 84.432C110.861 83.9653 109.928 83.732 108.864 83.732C107.725 83.732 106.708 84.0027 105.812 84.544C104.935 85.0667 104.244 85.8133 103.74 86.784C103.255 87.7547 103.012 88.8933 103.012 90.2C103.012 91.488 103.255 92.6267 103.74 93.616C104.244 94.5867 104.935 95.3427 105.812 95.884C106.708 96.4067 107.725 96.668 108.864 96.668C109.928 96.668 110.861 96.4347 111.664 95.968C112.485 95.4827 113.12 94.7733 113.568 93.84H118.076C117.423 95.8373 116.275 97.396 114.632 98.516C113.008 99.6173 111.095 100.168 108.892 100.168C107.025 100.168 105.336 99.748 103.824 98.908C102.331 98.0493 101.145 96.864 100.268 95.352C99.4093 93.84 98.98 92.1227 98.98 90.2ZM126.464 83.62V88.52H133.044V91.628H126.464V96.808H133.884V100H122.544V80.428H133.884V83.62H126.464ZM142.487 96.892H148.927V100H138.567V80.456H142.487V96.892ZM156.458 96.892H162.898V100H152.538V80.456H156.458V96.892Z" fill="#21234B"/>
<g filter="url(#filter0_i_369_1158)">
<path d="M18.8363 30.299L13.8016 25.2272C5.37985 37.3995 12.1232 49.3567 16.5477 53.8137C15.083 53.8137 13.4963 54.4285 12.886 54.7359L18.3785 59.8076C32.6588 58.7011 37.4494 69.1828 38.0596 74.5619C35.7711 100.382 0.0703985 93.4658 8.30903 68.1069L3.27442 63.4962C-6.24578 82.3079 7.24117 93.4658 15.1747 96.6933C33.1166 102.226 41.8739 88.8551 44.0099 81.478C55.3609 92.9125 67.6578 89.3162 72.3874 86.0887L66.895 81.478C46.2984 85.1665 43.0945 66.7237 47.6715 58.8855C60.9447 40.4427 81.5929 57.5023 76.049 71.7955L81.9991 76.4062C87.9493 45.9755 65.9796 41.8259 54.0793 44.5923C59.5717 16.928 33.4827 11.3952 24.3287 16.928L28.9057 21.9997C51.2416 21.262 51.7254 41.3647 43.0945 48.7419C27.9903 61.6519 11.5131 43.6701 18.8363 30.299Z" fill="#21234B"/>
</g>
<defs>
<filter id="filter0_i_369_1158" x="0" y="15" width="83.002" height="87" filterUnits="userSpaceOnUse" color-interpolation-filters="sRGB">
<feFlood flood-opacity="0" result="BackgroundImageFix"/>
<feBlend mode="normal" in="SourceGraphic" in2="BackgroundImageFix" result="shape"/>
<feColorMatrix in="SourceAlpha" type="matrix" values="0 0 0 0 0 0 0 0 0 0 0 0 0 0 0 0 0 0 127 0" result="hardAlpha"/>
<feOffset dy="4"/>
<feGaussianBlur stdDeviation="2"/>
<feComposite in2="hardAlpha" operator="arithmetic" k2="-1" k3="1"/>
<feColorMatrix type="matrix" values="0 0 0 0 0 0 0 0 0 0 0 0 0 0 0 0 0 0 0.25 0"/>
<feBlend mode="normal" in2="shape" result="effect1_innerShadow_369_1158"/>
</filter>
</defs>
</svg>
