<svg width="300" height="150" viewBox="0 0 319 119" fill="none" xmlns="http://www.w3.org/2000/svg">
<path d="M102.528 18.2C102.528 16.2773 102.957 14.56 103.816 13.048C104.693 11.5173 105.879 10.332 107.372 9.492C108.884 8.63333 110.573 8.204 112.44 8.204C114.624 8.204 116.537 8.764 118.18 9.884C119.823 11.004 120.971 12.5533 121.624 14.532H117.116C116.668 13.5987 116.033 12.8987 115.212 12.432C114.409 11.9653 113.476 11.732 112.412 11.732C111.273 11.732 110.256 12.0027 109.36 12.544C108.483 13.0667 107.792 13.8133 107.288 14.784C106.803 15.7547 106.56 16.8933 106.56 18.2C106.56 19.488 106.803 20.6267 107.288 21.616C107.792 22.5867 108.483 23.3427 109.36 23.884C110.256 24.4067 111.273 24.668 112.412 24.668C113.476 24.668 114.409 24.4347 115.212 23.968C116.033 23.4827 116.668 22.7733 117.116 21.84H121.624C120.971 23.8373 119.823 25.396 118.18 26.516C116.556 27.6173 114.643 28.168 112.44 28.168C110.573 28.168 108.884 27.748 107.372 26.908C105.879 26.0493 104.693 24.864 103.816 23.352C102.957 21.84 102.528 20.1227 102.528 18.2ZM130.012 24.892H136.452V28H126.092V8.456H130.012V24.892ZM149.136 28.196C147.306 28.196 145.626 27.7667 144.096 26.908C142.565 26.0493 141.352 24.864 140.456 23.352C139.56 21.8213 139.112 20.0947 139.112 18.172C139.112 16.268 139.56 14.56 140.456 13.048C141.352 11.5173 142.565 10.3227 144.096 9.464C145.626 8.60533 147.306 8.176 149.136 8.176C150.984 8.176 152.664 8.60533 154.176 9.464C155.706 10.3227 156.91 11.5173 157.788 13.048C158.684 14.56 159.132 16.268 159.132 18.172C159.132 20.0947 158.684 21.8213 157.788 23.352C156.91 24.864 155.706 26.0493 154.176 26.908C152.645 27.7667 150.965 28.196 149.136 28.196ZM149.136 24.696C150.312 24.696 151.348 24.4347 152.244 23.912C153.14 23.3707 153.84 22.6053 154.344 21.616C154.848 20.6267 155.1 19.4787 155.1 18.172C155.1 16.8653 154.848 15.7267 154.344 14.756C153.84 13.7667 153.14 13.0107 152.244 12.488C151.348 11.9653 150.312 11.704 149.136 11.704C147.96 11.704 146.914 11.9653 146 12.488C145.104 13.0107 144.404 13.7667 143.9 14.756C143.396 15.7267 143.144 16.8653 143.144 18.172C143.144 19.4787 143.396 20.6267 143.9 21.616C144.404 22.6053 145.104 23.3707 146 23.912C146.914 24.4347 147.96 24.696 149.136 24.696ZM167.032 8.456V20.552C167.032 21.8773 167.377 22.8947 168.068 23.604C168.759 24.2947 169.729 24.64 170.98 24.64C172.249 24.64 173.229 24.2947 173.92 23.604C174.611 22.8947 174.956 21.8773 174.956 20.552V8.456H178.904V20.524C178.904 22.1853 178.54 23.5947 177.812 24.752C177.103 25.8907 176.141 26.7493 174.928 27.328C173.733 27.9067 172.399 28.196 170.924 28.196C169.468 28.196 168.143 27.9067 166.948 27.328C165.772 26.7493 164.839 25.8907 164.148 24.752C163.457 23.5947 163.112 22.1853 163.112 20.524V8.456H167.032ZM190.643 8.456C192.697 8.456 194.498 8.85733 196.047 9.66C197.615 10.4627 198.819 11.6107 199.659 13.104C200.518 14.5787 200.947 16.296 200.947 18.256C200.947 20.216 200.518 21.9333 199.659 23.408C198.819 24.864 197.615 25.9933 196.047 26.796C194.498 27.5987 192.697 28 190.643 28H183.811V8.456H190.643ZM190.503 24.668C192.557 24.668 194.143 24.108 195.263 22.988C196.383 21.868 196.943 20.2907 196.943 18.256C196.943 16.2213 196.383 14.6347 195.263 13.496C194.143 12.3387 192.557 11.76 190.503 11.76H187.731V24.668H190.503ZM102.528 54.2C102.528 52.2773 102.957 50.56 103.816 49.048C104.693 47.5173 105.879 46.332 107.372 45.492C108.884 44.6333 110.573 44.204 112.44 44.204C114.624 44.204 116.537 44.764 118.18 45.884C119.823 47.004 120.971 48.5533 121.624 50.532H117.116C116.668 49.5987 116.033 48.8987 115.212 48.432C114.409 47.9653 113.476 47.732 112.412 47.732C111.273 47.732 110.256 48.0027 109.36 48.544C108.483 49.0667 107.792 49.8133 107.288 50.784C106.803 51.7547 106.56 52.8933 106.56 54.2C106.56 55.488 106.803 56.6267 107.288 57.616C107.792 58.5867 108.483 59.3427 109.36 59.884C110.256 60.4067 111.273 60.668 112.412 60.668C113.476 60.668 114.409 60.4347 115.212 59.968C116.033 59.4827 116.668 58.7733 117.116 57.84H121.624C120.971 59.8373 119.823 61.396 118.18 62.516C116.556 63.6173 114.643 64.168 112.44 64.168C110.573 64.168 108.884 63.748 107.372 62.908C105.879 62.0493 104.693 60.864 103.816 59.352C102.957 57.84 102.528 56.1227 102.528 54.2ZM135.164 64.196C133.335 64.196 131.655 63.7667 130.124 62.908C128.593 62.0493 127.38 60.864 126.484 59.352C125.588 57.8213 125.14 56.0947 125.14 54.172C125.14 52.268 125.588 50.56 126.484 49.048C127.38 47.5173 128.593 46.3227 130.124 45.464C131.655 44.6053 133.335 44.176 135.164 44.176C137.012 44.176 138.692 44.6053 140.204 45.464C141.735 46.3227 142.939 47.5173 143.816 49.048C144.712 50.56 145.16 52.268 145.16 54.172C145.16 56.0947 144.712 57.8213 143.816 59.352C142.939 60.864 141.735 62.0493 140.204 62.908C138.673 63.7667 136.993 64.196 135.164 64.196ZM135.164 60.696C136.34 60.696 137.376 60.4347 138.272 59.912C139.168 59.3707 139.868 58.6053 140.372 57.616C140.876 56.6267 141.128 55.4787 141.128 54.172C141.128 52.8653 140.876 51.7267 140.372 50.756C139.868 49.7667 139.168 49.0107 138.272 48.488C137.376 47.9653 136.34 47.704 135.164 47.704C133.988 47.704 132.943 47.9653 132.028 48.488C131.132 49.0107 130.432 49.7667 129.928 50.756C129.424 51.7267 129.172 52.8653 129.172 54.172C129.172 55.4787 129.424 56.6267 129.928 57.616C130.432 58.6053 131.132 59.3707 132.028 59.912C132.943 60.4347 133.988 60.696 135.164 60.696ZM170.504 44.456V64H166.584V51.288L161.348 64H158.38L153.116 51.288V64H149.196V44.456H153.648L159.864 58.988L166.08 44.456H170.504ZM189.752 50.504C189.752 51.5493 189.5 52.5293 188.996 53.444C188.511 54.3587 187.736 55.096 186.672 55.656C185.627 56.216 184.301 56.496 182.696 56.496H179.42V64H175.5V44.456H182.696C184.208 44.456 185.496 44.7173 186.56 45.24C187.624 45.7627 188.417 46.4813 188.94 47.396C189.481 48.3107 189.752 49.3467 189.752 50.504ZM182.528 53.332C183.611 53.332 184.413 53.0893 184.936 52.604C185.459 52.1 185.72 51.4 185.72 50.504C185.72 48.6 184.656 47.648 182.528 47.648H179.42V53.332H182.528ZM197.519 44.456V56.552C197.519 57.8773 197.865 58.8947 198.555 59.604C199.246 60.2947 200.217 60.64 201.467 60.64C202.737 60.64 203.717 60.2947 204.407 59.604C205.098 58.8947 205.443 57.8773 205.443 56.552V44.456H209.391V56.524C209.391 58.1853 209.027 59.5947 208.299 60.752C207.59 61.8907 206.629 62.7493 205.415 63.328C204.221 63.9067 202.886 64.196 201.411 64.196C199.955 64.196 198.63 63.9067 197.435 63.328C196.259 62.7493 195.326 61.8907 194.635 60.752C193.945 59.5947 193.599 58.1853 193.599 56.524V44.456H197.519ZM227.599 44.456V47.62H222.391V64H218.471V47.62H213.263V44.456H227.599ZM235.499 44.456V64H231.579V44.456H235.499ZM257.208 64H253.288L244.412 50.588V64H240.492V44.428H244.412L253.288 57.868V44.428H257.208V64ZM275.81 50.336C275.362 49.5147 274.746 48.8893 273.962 48.46C273.178 48.0307 272.263 47.816 271.218 47.816C270.06 47.816 269.034 48.0773 268.138 48.6C267.242 49.1227 266.542 49.8693 266.038 50.84C265.534 51.8107 265.282 52.9307 265.282 54.2C265.282 55.5067 265.534 56.6453 266.038 57.616C266.56 58.5867 267.279 59.3333 268.194 59.856C269.108 60.3787 270.172 60.64 271.386 60.64C272.879 60.64 274.102 60.248 275.054 59.464C276.006 58.6613 276.631 57.5507 276.93 56.132H270.21V53.136H280.794V56.552C280.532 57.9147 279.972 59.1747 279.114 60.332C278.255 61.4893 277.144 62.4227 275.782 63.132C274.438 63.8227 272.926 64.168 271.246 64.168C269.36 64.168 267.652 63.748 266.122 62.908C264.61 62.0493 263.415 60.864 262.538 59.352C261.679 57.84 261.25 56.1227 261.25 54.2C261.25 52.2773 261.679 50.56 262.538 49.048C263.415 47.5173 264.61 46.332 266.122 45.492C267.652 44.6333 269.351 44.204 271.218 44.204C273.42 44.204 275.334 44.7453 276.958 45.828C278.582 46.892 279.702 48.3947 280.318 50.336H275.81ZM102.528 90.2C102.528 88.2773 102.957 86.56 103.816 85.048C104.693 83.5173 105.879 82.332 107.372 81.492C108.884 80.6333 110.573 80.204 112.44 80.204C114.624 80.204 116.537 80.764 118.18 81.884C119.823 83.004 120.971 84.5533 121.624 86.532H117.116C116.668 85.5987 116.033 84.8987 115.212 84.432C114.409 83.9653 113.476 83.732 112.412 83.732C111.273 83.732 110.256 84.0027 109.36 84.544C108.483 85.0667 107.792 85.8133 107.288 86.784C106.803 87.7547 106.56 88.8933 106.56 90.2C106.56 91.488 106.803 92.6267 107.288 93.616C107.792 94.5867 108.483 95.3427 109.36 95.884C110.256 96.4067 111.273 96.668 112.412 96.668C113.476 96.668 114.409 96.4347 115.212 95.968C116.033 95.4827 116.668 94.7733 117.116 93.84H121.624C120.971 95.8373 119.823 97.396 118.18 98.516C116.556 99.6173 114.643 100.168 112.44 100.168C110.573 100.168 108.884 99.748 107.372 98.908C105.879 98.0493 104.693 96.864 103.816 95.352C102.957 93.84 102.528 92.1227 102.528 90.2ZM130.012 83.62V88.52H136.592V91.628H130.012V96.808H137.432V100H126.092V80.428H137.432V83.62H130.012ZM146.034 96.892H152.474V100H142.114V80.456H146.034V96.892ZM160.006 96.892H166.446V100H156.086V80.456H160.006V96.892Z" fill="#21234B"/>
<g filter="url(#filter0_i_1_413)">
<path d="M74.3282 39.4188L79.9186 34.9082C68.5021 25.3271 55.8222 30.8596 50.9093 34.8235C51.0522 33.3659 50.5889 31.7262 50.3394 31.0885L44.7042 36.0547C44.4236 50.3756 33.4177 54.1101 27.9498 54.1873C2.21315 49.3648 12.6498 14.517 37.3424 25.2156L42.4693 20.6595C24.4844 9.33084 11.9502 21.6533 7.93115 29.2307C0.61785 46.5412 13.207 56.5745 20.4158 59.4273C7.81177 69.5969 10.2279 82.1893 13.0115 87.2143L18.183 82.2027C16.4839 61.3413 35.3393 59.9705 42.7735 65.2982C60.0213 80.3256 40.8547 99.1933 27.0249 92.2672L21.8087 97.7343C51.8238 106.655 58.1394 85.1999 56.519 73.0841C83.7974 81.2769 91.9056 55.8583 87.2358 46.2028L81.69 50.258C80.2526 72.5595 59.9937 71.0596 53.4186 61.7429C41.9123 45.4387 61.5991 30.8128 74.3282 39.4188Z" fill="#21234B"/>
</g>
<defs>
<filter id="filter0_i_1_413" x="5.72247" y="16.0782" width="82.7567" height="87.7694" filterUnits="userSpaceOnUse" color-interpolation-filters="sRGB">
<feFlood flood-opacity="0" result="BackgroundImageFix"/>
<feBlend mode="normal" in="SourceGraphic" in2="BackgroundImageFix" result="shape"/>
<feColorMatrix in="SourceAlpha" type="matrix" values="0 0 0 0 0 0 0 0 0 0 0 0 0 0 0 0 0 0 127 0" result="hardAlpha"/>
<feOffset dy="4"/>
<feGaussianBlur stdDeviation="2"/>
<feComposite in2="hardAlpha" operator="arithmetic" k2="-1" k3="1"/>
<feColorMatrix type="matrix" values="0 0 0 0 0 0 0 0 0 0 0 0 0 0 0 0 0 0 0.25 0"/>
<feBlend mode="normal" in2="shape" result="effect1_innerShadow_1_413"/>
</filter>
</defs>
</svg>
