<svg width="315" height="196" viewBox="0 0 153 65" fill="none" xmlns="http://www.w3.org/2000/svg">
<path d="M55.495 9.72C55.495 8.68 55.72 7.755 56.17 6.945C56.62 6.125 57.245 5.49 58.045 5.04C58.855 4.58 59.77 4.35 60.79 4.35C62.04 4.35 63.11 4.68 64 5.34C64.89 6 65.485 6.9 65.785 8.04H62.965C62.755 7.6 62.455 7.265 62.065 7.035C61.685 6.805 61.25 6.69 60.76 6.69C59.97 6.69 59.33 6.965 58.84 7.515C58.35 8.065 58.105 8.8 58.105 9.72C58.105 10.64 58.35 11.375 58.84 11.925C59.33 12.475 59.97 12.75 60.76 12.75C61.25 12.75 61.685 12.635 62.065 12.405C62.455 12.175 62.755 11.84 62.965 11.4H65.785C65.485 12.54 64.89 13.44 64 14.1C63.11 14.75 62.04 15.075 60.79 15.075C59.77 15.075 58.855 14.85 58.045 14.4C57.245 13.94 56.62 13.305 56.17 12.495C55.72 11.685 55.495 10.76 55.495 9.72ZM70.5208 13.02H73.8808V15H67.9558V4.47H70.5208V13.02ZM80.6842 15.105C79.6942 15.105 78.7842 14.875 77.9542 14.415C77.1342 13.955 76.4792 13.315 75.9892 12.495C75.5092 11.665 75.2692 10.735 75.2692 9.705C75.2692 8.675 75.5092 7.75 75.9892 6.93C76.4792 6.11 77.1342 5.47 77.9542 5.01C78.7842 4.55 79.6942 4.32 80.6842 4.32C81.6742 4.32 82.5792 4.55 83.3992 5.01C84.2292 5.47 84.8792 6.11 85.3492 6.93C85.8292 7.75 86.0692 8.675 86.0692 9.705C86.0692 10.735 85.8292 11.665 85.3492 12.495C84.8692 13.315 84.2192 13.955 83.3992 14.415C82.5792 14.875 81.6742 15.105 80.6842 15.105ZM80.6842 12.765C81.5242 12.765 82.1942 12.485 82.6942 11.925C83.2042 11.365 83.4592 10.625 83.4592 9.705C83.4592 8.775 83.2042 8.035 82.6942 7.485C82.1942 6.925 81.5242 6.645 80.6842 6.645C79.8342 6.645 79.1542 6.92 78.6442 7.47C78.1442 8.02 77.8942 8.765 77.8942 9.705C77.8942 10.635 78.1442 11.38 78.6442 11.94C79.1542 12.49 79.8342 12.765 80.6842 12.765ZM90.6162 4.47V10.77C90.6162 11.4 90.7712 11.885 91.0812 12.225C91.3912 12.565 91.8462 12.735 92.4462 12.735C93.0462 12.735 93.5062 12.565 93.8262 12.225C94.1462 11.885 94.3062 11.4 94.3062 10.77V4.47H96.8712V10.755C96.8712 11.695 96.6712 12.49 96.2712 13.14C95.8712 13.79 95.3312 14.28 94.6512 14.61C93.9812 14.94 93.2312 15.105 92.4012 15.105C91.5712 15.105 90.8262 14.945 90.1662 14.625C89.5162 14.295 89.0012 13.805 88.6212 13.155C88.2412 12.495 88.0512 11.695 88.0512 10.755V4.47H90.6162ZM103.217 4.47C104.327 4.47 105.297 4.69 106.127 5.13C106.957 5.57 107.597 6.19 108.047 6.99C108.507 7.78 108.737 8.695 108.737 9.735C108.737 10.765 108.507 11.68 108.047 12.48C107.597 13.28 106.952 13.9 106.112 14.34C105.282 14.78 104.317 15 103.217 15H99.2724V4.47H103.217ZM103.052 12.78C104.022 12.78 104.777 12.515 105.317 11.985C105.857 11.455 106.127 10.705 106.127 9.735C106.127 8.765 105.857 8.01 105.317 7.47C104.777 6.93 104.022 6.66 103.052 6.66H101.837V12.78H103.052ZM55.495 28.72C55.495 27.68 55.72 26.755 56.17 25.945C56.62 25.125 57.245 24.49 58.045 24.04C58.855 23.58 59.77 23.35 60.79 23.35C62.04 23.35 63.11 23.68 64 24.34C64.89 25 65.485 25.9 65.785 27.04H62.965C62.755 26.6 62.455 26.265 62.065 26.035C61.685 25.805 61.25 25.69 60.76 25.69C59.97 25.69 59.33 25.965 58.84 26.515C58.35 27.065 58.105 27.8 58.105 28.72C58.105 29.64 58.35 30.375 58.84 30.925C59.33 31.475 59.97 31.75 60.76 31.75C61.25 31.75 61.685 31.635 62.065 31.405C62.455 31.175 62.755 30.84 62.965 30.4H65.785C65.485 31.54 64.89 32.44 64 33.1C63.11 33.75 62.04 34.075 60.79 34.075C59.77 34.075 58.855 33.85 58.045 33.4C57.245 32.94 56.62 32.305 56.17 31.495C55.72 30.685 55.495 29.76 55.495 28.72ZM72.9358 34.105C71.9458 34.105 71.0358 33.875 70.2058 33.415C69.3858 32.955 68.7308 32.315 68.2408 31.495C67.7608 30.665 67.5208 29.735 67.5208 28.705C67.5208 27.675 67.7608 26.75 68.2408 25.93C68.7308 25.11 69.3858 24.47 70.2058 24.01C71.0358 23.55 71.9458 23.32 72.9358 23.32C73.9258 23.32 74.8308 23.55 75.6508 24.01C76.4808 24.47 77.1308 25.11 77.6008 25.93C78.0808 26.75 78.3208 27.675 78.3208 28.705C78.3208 29.735 78.0808 30.665 77.6008 31.495C77.1208 32.315 76.4708 32.955 75.6508 33.415C74.8308 33.875 73.9258 34.105 72.9358 34.105ZM72.9358 31.765C73.7758 31.765 74.4458 31.485 74.9458 30.925C75.4558 30.365 75.7108 29.625 75.7108 28.705C75.7108 27.775 75.4558 27.035 74.9458 26.485C74.4458 25.925 73.7758 25.645 72.9358 25.645C72.0858 25.645 71.4058 25.92 70.8958 26.47C70.3958 27.02 70.1458 27.765 70.1458 28.705C70.1458 29.635 70.3958 30.38 70.8958 30.94C71.4058 31.49 72.0858 31.765 72.9358 31.765ZM92.2728 23.47V34H89.7078V27.685L87.3528 34H85.2828L82.9128 27.67V34H80.3478V23.47H83.3778L86.3328 30.76L89.2578 23.47H92.2728ZM102.742 26.86C102.742 27.47 102.602 28.03 102.322 28.54C102.042 29.04 101.612 29.445 101.032 29.755C100.452 30.065 99.7323 30.22 98.8723 30.22H97.2823V34H94.7173V23.47H98.8723C99.7123 23.47 100.422 23.615 101.002 23.905C101.582 24.195 102.017 24.595 102.307 25.105C102.597 25.615 102.742 26.2 102.742 26.86ZM98.6773 28.18C99.1673 28.18 99.5323 28.065 99.7723 27.835C100.012 27.605 100.132 27.28 100.132 26.86C100.132 26.44 100.012 26.115 99.7723 25.885C99.5323 25.655 99.1673 25.54 98.6773 25.54H97.2823V28.18H98.6773ZM107.198 23.47V29.77C107.198 30.4 107.353 30.885 107.663 31.225C107.973 31.565 108.428 31.735 109.028 31.735C109.628 31.735 110.088 31.565 110.408 31.225C110.728 30.885 110.888 30.4 110.888 29.77V23.47H113.453V29.755C113.453 30.695 113.253 31.49 112.853 32.14C112.453 32.79 111.913 33.28 111.233 33.61C110.563 33.94 109.813 34.105 108.983 34.105C108.153 34.105 107.408 33.945 106.748 33.625C106.098 33.295 105.583 32.805 105.203 32.155C104.823 31.495 104.633 30.695 104.633 29.755V23.47H107.198ZM123.429 23.47V25.525H120.639V34H118.074V25.525H115.284V23.47H123.429ZM127.881 23.47V34H125.316V23.47H127.881ZM139.76 34H137.195L132.905 27.505V34H130.34V23.47H132.905L137.195 29.995V23.47H139.76V34ZM149.209 26.8C149.019 26.45 148.744 26.185 148.384 26.005C148.034 25.815 147.619 25.72 147.139 25.72C146.309 25.72 145.644 25.995 145.144 26.545C144.644 27.085 144.394 27.81 144.394 28.72C144.394 29.69 144.654 30.45 145.174 31C145.704 31.54 146.429 31.81 147.349 31.81C147.979 31.81 148.509 31.65 148.939 31.33C149.379 31.01 149.699 30.55 149.899 29.95H146.644V28.06H152.224V30.445C152.034 31.085 151.709 31.68 151.249 32.23C150.799 32.78 150.224 33.225 149.524 33.565C148.824 33.905 148.034 34.075 147.154 34.075C146.114 34.075 145.184 33.85 144.364 33.4C143.554 32.94 142.919 32.305 142.459 31.495C142.009 30.685 141.784 29.76 141.784 28.72C141.784 27.68 142.009 26.755 142.459 25.945C142.919 25.125 143.554 24.49 144.364 24.04C145.174 23.58 146.099 23.35 147.139 23.35C148.399 23.35 149.459 23.655 150.319 24.265C151.189 24.875 151.764 25.72 152.044 26.8H149.209ZM55.495 47.72C55.495 46.68 55.72 45.755 56.17 44.945C56.62 44.125 57.245 43.49 58.045 43.04C58.855 42.58 59.77 42.35 60.79 42.35C62.04 42.35 63.11 42.68 64 43.34C64.89 44 65.485 44.9 65.785 46.04H62.965C62.755 45.6 62.455 45.265 62.065 45.035C61.685 44.805 61.25 44.69 60.76 44.69C59.97 44.69 59.33 44.965 58.84 45.515C58.35 46.065 58.105 46.8 58.105 47.72C58.105 48.64 58.35 49.375 58.84 49.925C59.33 50.475 59.97 50.75 60.76 50.75C61.25 50.75 61.685 50.635 62.065 50.405C62.455 50.175 62.755 49.84 62.965 49.4H65.785C65.485 50.54 64.89 51.44 64 52.1C63.11 52.75 62.04 53.075 60.79 53.075C59.77 53.075 58.855 52.85 58.045 52.4C57.245 51.94 56.62 51.305 56.17 50.495C55.72 49.685 55.495 48.76 55.495 47.72ZM70.5208 44.525V46.655H73.9558V48.635H70.5208V50.945H74.4058V53H67.9558V42.47H74.4058V44.525H70.5208ZM79.236 51.02H82.596V53H76.671V42.47H79.236V51.02ZM86.9845 51.02H90.3445V53H84.4195V42.47H86.9845V51.02Z" fill="#21234B"/>
<g filter="url(#filter0_i_0_1)">
<path d="M10.2124 16.2947L7.48277 13.5449C2.91678 20.1443 6.57284 26.6271 8.97162 29.0436C8.17754 29.0436 7.31728 29.3769 6.98641 29.5435L9.96423 32.2933C17.7066 31.6934 20.3039 37.3762 20.6347 40.2926C19.394 54.2914 0.0381678 50.5417 4.5049 36.7929L1.77529 34.2931C-3.38626 44.4922 3.92593 50.5417 8.22723 52.2916C17.9548 55.2913 22.7027 48.0419 23.8608 44.0423C30.0149 50.2417 36.6819 48.2919 39.2462 46.5421L36.2683 44.0423C25.1015 46.0421 23.3645 36.043 25.846 31.7933C33.0423 21.7942 44.2371 31.0434 41.2314 38.7927L44.4574 41.2925C47.6833 24.7939 35.772 22.5441 29.3201 24.044C32.2979 9.04532 18.1533 6.04558 13.1903 9.04532L15.6718 11.795C27.7816 11.3951 28.0439 22.2941 23.3645 26.2938C15.1755 33.2932 6.24201 23.544 10.2124 16.2947Z" fill="#21234B"/>
</g>
<defs>
<filter id="filter0_i_0_1" x="0" y="8" width="45.001" height="49" filterUnits="userSpaceOnUse" color-interpolation-filters="sRGB">
<feFlood flood-opacity="0" result="BackgroundImageFix"/>
<feBlend mode="normal" in="SourceGraphic" in2="BackgroundImageFix" result="shape"/>
<feColorMatrix in="SourceAlpha" type="matrix" values="0 0 0 0 0 0 0 0 0 0 0 0 0 0 0 0 0 0 127 0" result="hardAlpha"/>
<feOffset dy="4"/>
<feGaussianBlur stdDeviation="2"/>
<feComposite in2="hardAlpha" operator="arithmetic" k2="-1" k3="1"/>
<feColorMatrix type="matrix" values="0 0 0 0 0 0 0 0 0 0 0 0 0 0 0 0 0 0 0.25 0"/>
<feBlend mode="normal" in2="shape" result="effect1_innerShadow_0_1"/>
</filter>
</defs>
</svg>
