<svg width="441" height="462" viewBox="0 0 441 462" fill="none" xmlns="http://www.w3.org/2000/svg">
<path d="M440.533 297.88C441.273 281.98 439.543 265.57 432.293 251.4C421.453 230.2 399.483 216.58 376.703 209.65C353.923 202.72 329.873 201.49 306.213 198.74C256.703 192.98 205.293 178.83 170.783 142.87C139.253 110.01 122.823 60.3 81.203 41.82C67.663 35.81 50.973 34.15 38.613 42.32C33.283 45.84 29.163 50.91 25.643 56.24C11.943 77.03 6.70299 102.18 3.19299 126.83C-0.357005 151.71 -2.357 177.54 4.953 201.59C11.733 223.9 25.993 243.01 37.313 263.39C48.633 283.77 57.253 307.6 51.313 330.14C46.943 346.72 34.953 361.47 35.223 378.61C35.603 402.85 60.153 419.64 83.543 426.02C129.683 438.6 178.443 427.73 226.033 422.91C269.153 418.54 313.293 417.88 356.403 422.09C388.583 425.23 413.413 383.76 425.253 358.57C434.183 339.57 439.553 318.87 440.533 297.88Z" fill="#F2F3FC"/>
<path d="M240.493 432.37C333.133 432.37 408.233 428.658 408.233 424.08C408.233 419.502 333.133 415.79 240.493 415.79C147.853 415.79 72.7529 419.502 72.7529 424.08C72.7529 428.658 147.853 432.37 240.493 432.37Z" fill="#1D1D1B"/>
<path d="M367.992 18.6001H117.512C112.409 18.6001 108.272 22.737 108.272 27.8401V414.69C108.272 419.793 112.409 423.93 117.512 423.93H367.992C373.096 423.93 377.232 419.793 377.232 414.69V27.8401C377.232 22.737 373.096 18.6001 367.992 18.6001Z" fill="#A2D0F8"/>
<path d="M358.643 45.6401H126.853V370.5H358.643V45.6401Z" fill="white"/>
<path d="M165.902 110.33H147.622V128.61H165.902V110.33Z" stroke="#1D1D1B" stroke-linecap="round" stroke-linejoin="round"/>
<path d="M174.212 128.61H334.492" stroke="#1D1D1B" stroke-linecap="round" stroke-linejoin="round"/>
<path d="M165.902 136.29H147.622V154.57H165.902V136.29Z" stroke="#1D1D1B" stroke-linecap="round" stroke-linejoin="round"/>
<path d="M174.212 154.57H334.492" stroke="#1D1D1B" stroke-linecap="round" stroke-linejoin="round"/>
<path d="M165.902 162.25H147.622V180.53H165.902V162.25Z" stroke="#1D1D1B" stroke-linecap="round" stroke-linejoin="round"/>
<path d="M174.212 180.53H334.492" stroke="#1D1D1B" stroke-linecap="round" stroke-linejoin="round"/>
<path d="M165.902 188.21H147.622V206.49H165.902V188.21Z" stroke="#1D1D1B" stroke-linecap="round" stroke-linejoin="round"/>
<path d="M174.212 206.49H334.492" stroke="#1D1D1B" stroke-linecap="round" stroke-linejoin="round"/>
<path d="M165.902 214.17H147.622V232.45H165.902V214.17Z" stroke="#1D1D1B" stroke-linecap="round" stroke-linejoin="round"/>
<path d="M174.212 232.45H334.492" stroke="#1D1D1B" stroke-linecap="round" stroke-linejoin="round"/>
<path d="M165.902 240.13H147.622V258.41H165.902V240.13Z" stroke="#1D1D1B" stroke-linecap="round" stroke-linejoin="round"/>
<path d="M174.212 258.41H334.492" stroke="#1D1D1B" stroke-linecap="round" stroke-linejoin="round"/>
<path d="M165.902 266.09H147.622V284.37H165.902V266.09Z" stroke="#1D1D1B" stroke-linecap="round" stroke-linejoin="round"/>
<path d="M174.212 284.37H334.492" stroke="#1D1D1B" stroke-linecap="round" stroke-linejoin="round"/>
<path d="M165.902 292.05H147.622V310.33H165.902V292.05Z" stroke="#1D1D1B" stroke-linecap="round" stroke-linejoin="round"/>
<path d="M174.212 310.33H334.492" stroke="#1D1D1B" stroke-linecap="round" stroke-linejoin="round"/>
<path d="M165.902 318H147.622V336.28H165.902V318Z" stroke="#1D1D1B" stroke-linecap="round" stroke-linejoin="round"/>
<path d="M174.212 336.28H334.492" stroke="#1D1D1B" stroke-linecap="round" stroke-linejoin="round"/>
<path d="M155.132 123.56C154.772 123.56 154.412 123.43 154.142 123.19C150.882 120.35 147.402 117.69 143.802 115.3C143.102 114.84 142.912 113.9 143.382 113.21C143.842 112.52 144.782 112.33 145.472 112.79C148.662 114.9 151.752 117.22 154.682 119.68C159.812 110.52 168.652 103.33 178.682 100.26C179.482 100.02 180.322 100.47 180.572 101.26C180.812 102.06 180.362 102.9 179.572 103.15C169.702 106.17 161.072 113.49 156.492 122.73C156.282 123.15 155.892 123.45 155.432 123.54C155.332 123.56 155.232 123.57 155.142 123.57L155.132 123.56Z" fill="#A2D0F8"/>
<path d="M155.132 227C154.772 227 154.412 226.87 154.142 226.63C150.882 223.79 147.402 221.13 143.802 218.74C143.102 218.28 142.912 217.34 143.382 216.65C143.842 215.96 144.782 215.77 145.472 216.23C148.662 218.34 151.752 220.66 154.682 223.12C159.812 213.96 168.652 206.77 178.682 203.7C179.482 203.46 180.322 203.9 180.572 204.7C180.812 205.5 180.362 206.34 179.572 206.59C169.702 209.61 161.072 216.93 156.492 226.17C156.282 226.59 155.892 226.89 155.432 226.98C155.332 227 155.232 227.01 155.142 227.01L155.132 227Z" fill="#A2D0F8"/>
<path d="M192.083 34.1401H293.423V49.5801C293.423 51.9701 291.483 53.9001 289.103 53.9001H196.413C194.023 53.9001 192.093 51.9601 192.093 49.5801V34.1401H192.083Z" fill="#798ED0"/>
<path d="M216.593 0H268.913C270.813 0 272.363 1.54 272.363 3.45V16.89H213.153V3.45C213.153 1.55 214.693 0 216.603 0H216.593Z" fill="#21234B"/>
<path d="M318.853 14.3701H166.643L160.123 20.9001L161.153 38.8101H324.343L325.383 20.9001L318.853 14.3701Z" fill="#6C6B82"/>
<path d="M160.123 20.8999H325.383" stroke="#1D1D1B" stroke-width="0.5" stroke-linecap="round" stroke-linejoin="round"/>
<path d="M293.423 38.8101H192.083V42.4001H293.423V38.8101Z" fill="#1D1D1B" stroke="#1D1D1B" stroke-width="0.5" stroke-linecap="round" stroke-linejoin="round"/>
<path d="M272.353 11.5H213.143V14.37H272.353V11.5Z" fill="#1D1D1B" stroke="#1D1D1B" stroke-width="0.5" stroke-linecap="round" stroke-linejoin="round"/>
<path d="M276.093 461.91C299.902 461.91 319.203 458.61 319.203 454.54C319.203 450.47 299.902 447.17 276.093 447.17C252.284 447.17 232.983 450.47 232.983 454.54C232.983 458.61 252.284 461.91 276.093 461.91Z" fill="#1D1D1B"/>
<path d="M175.063 206.48L172.543 204.62L177.703 195.4L182.633 199.03L175.063 206.48Z" fill="#21234B"/>
<path d="M182.633 199.03C181.993 199.9 180.373 199.79 179.003 198.78C177.643 197.78 177.053 196.26 177.693 195.39C178.333 194.52 179.953 194.63 181.323 195.64C182.683 196.64 183.273 198.16 182.633 199.03Z" fill="#E0E3FA"/>
<path d="M177.703 195.4C177.703 195.4 176.833 197.19 179.013 198.79C181.193 200.39 182.643 199.04 182.643 199.04" stroke="#1D1D1B" stroke-width="0.5" stroke-linecap="round" stroke-linejoin="round"/>
<path d="M281.874 353.05C281.634 353.13 281.874 360.75 281.874 360.75C281.874 360.75 282.964 365.17 283.054 376.98C283.144 388.79 280.624 407.81 278.904 416.47C277.184 425.13 273.764 443.06 273.764 444.33C273.764 445.6 276.464 448.75 275.294 450.91C274.124 453.07 258.704 447.3 258.704 447.3C258.704 447.3 254.824 442.43 256.274 441.8C257.714 441.17 261.054 440.9 261.054 440.9C261.054 440.9 262.764 387.35 262.494 379.87C262.224 372.39 260.284 367.07 260.844 364.54C261.414 362.02 261.414 357.87 261.414 357.87L281.864 353.05H281.874Z" fill="#FFD6D9"/>
<path d="M261.074 440.54L260.604 444.51" stroke="#1D1D1B" stroke-width="0.5" stroke-linecap="round" stroke-linejoin="round"/>
<path d="M276.204 447.57C276.204 447.57 276.654 455.5 274.494 461.63C274.494 461.63 269.264 462.26 265.754 461.63C265.754 461.63 264.134 456.49 263.954 455.95C263.774 455.41 262.064 456.94 260.614 457.03C259.174 457.12 253.224 447.11 253.224 443.06C253.224 439.01 258.994 441.15 258.994 441.15C258.994 441.15 256.834 442.34 259.804 444.51C262.784 446.67 265.124 448.03 268.094 447.85C271.074 447.67 273.414 446.59 276.204 447.58V447.57Z" fill="#798ED0"/>
<path d="M263.943 455.95C263.943 455.95 262.233 453.7 261.693 453.16C261.153 452.62 260.613 457.04 260.613 457.04L263.953 455.96L263.943 455.95Z" fill="#1D1D1B"/>
<path d="M261.073 363.31C261.073 363.31 266.483 366.46 269.513 365.98C272.543 365.5 281.873 360.75 281.873 360.75V353.05L261.423 357.87L261.073 363.31Z" fill="#1D1D1B"/>
<path d="M316.593 258.61C316.593 258.61 319.453 279.53 318.613 286.29C317.763 293.05 309.653 337.14 309.023 340.65C308.393 344.17 307.493 351.2 306.683 352.1C305.873 353 287.303 357.87 281.443 359.67C275.583 361.47 269.903 361.47 268.193 361.38C266.483 361.29 254.583 357.59 254.583 357.59C254.583 357.59 251.243 319.94 249.803 310C248.363 300.07 247.373 281.14 248.093 274.83C248.813 268.52 250.223 260.82 250.223 260.82L316.603 258.6L316.593 258.61Z" fill="#6C6B82"/>
<path d="M254.344 355.07C254.344 355.07 263.494 358.32 270.074 358.5C276.654 358.68 307.634 348.88 307.634 348.88" stroke="#1D1D1B" stroke-width="0.5" stroke-linecap="round" stroke-linejoin="round"/>
<path d="M328.023 224.11L315.583 252.94L311.183 247.34L309.203 223.18L328.023 222.01V224.11Z" fill="#FFD6D9"/>
<path d="M309.203 225.8C309.203 225.8 317.673 227.06 321.103 227.06C324.533 227.06 327.143 226.43 327.143 226.43L328.023 224.11V222.01L309.203 223.18V225.79V225.8Z" fill="#1D1D1B" stroke="#1D1D1B" stroke-width="0.5" stroke-linecap="round" stroke-linejoin="round"/>
<path d="M203.353 206.77L181.903 210.02C181.903 210.02 182.083 206.64 181.093 206.17C180.103 205.69 177.393 203.8 177.393 203.8C177.393 203.8 174.143 198.75 172.793 198.48C171.443 198.21 169.543 198.93 169.633 199.83C169.723 200.73 169.633 201.72 169.633 201.72C169.633 201.72 166.843 202.83 166.933 204.22C167.023 205.6 166.933 206.77 166.933 206.77C166.933 206.77 165.043 212.09 166.123 214.25C167.203 216.41 174.593 218.76 177.393 219.75C180.183 220.74 199.213 221.91 202.093 222.36C204.973 222.81 209.843 221.01 209.843 221.01L203.343 206.77H203.353Z" fill="#FFD6D9"/>
<path d="M181.903 210.02H178.573L181.793 207.66L181.903 210.02Z" fill="#1D1D1B" stroke="#1D1D1B" stroke-width="0.5" stroke-linecap="round" stroke-linejoin="round"/>
<path d="M238.434 126.36L241.864 149.53L244.474 148.81C244.474 148.81 248.084 159.45 250.064 160.17C252.044 160.89 259.894 156.47 259.894 156.47L262.324 161.25L279.184 155.75L277.294 148.81L258.004 121.22L239.974 122.93L238.444 126.36H238.434Z" fill="#FFD6D9"/>
<path d="M255.563 142.67C255.563 142.67 257.453 144.83 258.813 144.2L259.763 145.42C259.763 145.42 257.273 145.64 255.563 142.67Z" fill="#1D1D1B" stroke="#1D1D1B" stroke-width="0.5" stroke-linecap="round" stroke-linejoin="round"/>
<path d="M259.884 156.47L263.944 154.03L261.114 158.87L259.884 156.47Z" fill="#1D1D1B" stroke="#1D1D1B" stroke-width="0.5" stroke-linecap="round" stroke-linejoin="round"/>
<path d="M247.354 153.4C247.354 153.4 250.054 152.32 249.964 149.52" stroke="#1D1D1B" stroke-width="0.5" stroke-linecap="round" stroke-linejoin="round"/>
<path d="M244.874 139.58C245.014 140.32 244.824 140.97 244.454 141.04C244.084 141.11 243.664 140.57 243.524 139.83C243.384 139.09 243.574 138.44 243.944 138.37C244.314 138.3 244.734 138.84 244.874 139.58Z" fill="#1D1D1B"/>
<path d="M246.754 135.26C246.564 135.74 245.384 135.69 244.064 135.69C242.744 135.69 241.564 135.74 241.374 135.26C241.184 134.78 242.354 133.8 244.064 133.8C245.774 133.8 246.944 134.77 246.754 135.26Z" fill="#1D1D1B"/>
<path d="M254.844 135.28C254.844 135.28 256.154 133.57 257.664 136.72L254.844 135.28Z" fill="#1D1D1B"/>
<path d="M254.844 135.28C254.844 135.28 256.154 133.57 257.664 136.72" stroke="#1D1D1B" stroke-width="0.5" stroke-linecap="round" stroke-linejoin="round"/>
<path d="M235.813 122.75C235.813 122.75 238.243 131.77 249.963 131.4C249.963 131.4 251.763 137.62 252.483 137.62C253.203 137.62 253.653 137.35 253.833 136.99C254.013 136.63 252.933 132.12 255.813 133.02C258.693 133.92 260.143 138.52 259.783 141.22C259.423 143.92 258.793 144.2 258.793 144.2C258.793 144.2 264.293 151.77 268.893 152.22L267.813 149.97C267.813 149.97 270.243 152.31 274.933 151.41C279.623 150.51 282.143 140.77 281.693 131.04C281.693 131.04 290.713 131.58 291.163 123.47C291.613 115.36 285.573 107.24 282.693 106.16C279.813 105.08 273.583 108.59 273.583 108.59C273.583 108.59 270.063 103.81 265.203 105.25C265.203 105.25 257.003 104.71 249.603 108.77C242.213 112.83 240.313 115.8 240.313 115.8C240.313 115.8 234.403 119.89 235.803 122.74L235.813 122.75Z" fill="#798ED0"/>
<path d="M273.593 108.6C273.593 108.6 268.993 109.68 269.443 115C269.893 120.32 273.593 128.61 276.743 130.15C279.903 131.68 281.703 131.05 281.703 131.05" stroke="#1D1D1B" stroke-width="0.5" stroke-linecap="round" stroke-linejoin="round"/>
<path d="M276.743 130.14C276.743 130.14 289.773 131.31 291.193 122.66" stroke="#1D1D1B" stroke-width="0.5" stroke-linecap="round" stroke-linejoin="round"/>
<path d="M269.804 115.54C269.804 115.54 274.084 107.13 285.424 108.31" stroke="#1D1D1B" stroke-width="0.5" stroke-linecap="round" stroke-linejoin="round"/>
<path d="M289.423 114.66C289.423 114.66 286.393 120.22 279.543 121.22" stroke="#1D1D1B" stroke-width="0.5" stroke-linecap="round" stroke-linejoin="round"/>
<path d="M249.974 131.41C249.974 131.41 261.154 131.64 268.454 126.43" stroke="#1D1D1B" stroke-width="0.5" stroke-linecap="round" stroke-linejoin="round"/>
<path d="M269.803 117.3C269.803 117.3 259.263 112.29 248.983 116.53" stroke="#1D1D1B" stroke-width="0.5" stroke-linecap="round" stroke-linejoin="round"/>
<path d="M270.824 110.33C270.824 110.33 268.724 106.16 265.214 105.26" stroke="#1D1D1B" stroke-width="0.5" stroke-linecap="round" stroke-linejoin="round"/>
<path d="M278.554 131.17C278.554 131.17 279.724 142.13 274.674 149.52" stroke="#1D1D1B" stroke-width="0.5" stroke-linecap="round" stroke-linejoin="round"/>
<path d="M254.844 165.66C254.844 165.66 255.474 160.97 267.194 155.74C278.914 150.51 289.424 150.87 289.424 150.87L291.194 154.84C291.194 154.84 304.334 158.99 305.054 159.62C305.774 160.25 306.404 161.96 306.404 161.96C306.404 161.96 311.004 167.19 313.884 174.22C316.764 181.25 327.044 210.91 327.044 210.91C327.044 210.91 328.934 210.19 330.294 213.16C331.644 216.14 330.924 221.72 330.294 222.9C329.664 224.07 323.174 225.42 321.004 225.51C318.844 225.6 310.364 225.06 310.364 225.06C310.364 225.06 312.524 243.27 314.514 249.31C316.494 255.35 316.584 258.6 316.584 258.6C316.584 258.6 294.494 260.49 276.014 261.21C257.534 261.93 249.784 260.76 249.784 260.76L254.024 235.43V223.53L247.534 197.84C247.534 197.84 233.744 206.22 231.934 207.76C230.134 209.29 218.954 217.59 218.954 217.59C218.954 217.59 219.854 218.49 219.314 219.3C218.774 220.11 212.824 223.09 211.114 223.18C209.404 223.27 206.244 219.39 204.984 215.79C203.724 212.18 203.274 208.36 203.364 206.17C203.454 203.98 207.784 201.55 208.954 201.01C210.124 200.47 211.204 200.65 211.204 200.65C211.204 200.65 211.744 198.4 213.454 197.4C215.164 196.41 219.764 193.97 219.764 193.97C219.764 193.97 233.284 176.57 235.094 175.4C236.894 174.23 254.834 165.66 254.834 165.66H254.844Z" fill="#FFE0BC"/>
<path d="M254.843 165.66C254.843 165.66 275.173 156.19 291.203 154.84" stroke="#1D1D1B" stroke-width="0.5" stroke-linecap="round" stroke-linejoin="round"/>
<path d="M309.203 173.6C309.203 173.6 310.553 196.14 310.463 203.53C310.373 210.92 310.373 225.08 310.373 225.08" stroke="#1D1D1B" stroke-width="0.5" stroke-linecap="round" stroke-linejoin="round"/>
<path d="M310.383 216.78C310.383 216.78 321.193 219.21 324.523 216.78C327.863 214.35 327.043 210.92 327.043 210.92" stroke="#1D1D1B" stroke-width="0.5" stroke-linecap="round" stroke-linejoin="round"/>
<path d="M211.203 200.64C211.203 200.64 210.303 201.36 210.753 203.43C211.203 205.5 214.003 215.15 218.233 217.85" stroke="#1D1D1B" stroke-width="0.5" stroke-linecap="round" stroke-linejoin="round"/>
<path d="M220.403 194.51C220.403 194.51 219.863 198.75 222.293 199.11" stroke="#1D1D1B" stroke-width="0.5" stroke-linecap="round" stroke-linejoin="round"/>
<path d="M250.213 258.26C250.213 258.26 260.163 259.87 278.103 258.88C296.043 257.89 316.323 256.33 316.323 256.33" stroke="#1D1D1B" stroke-width="0.5" stroke-linecap="round" stroke-linejoin="round"/>
<path d="M304.324 353.05C304.084 353.13 304.324 360.75 304.324 360.75C304.324 360.75 305.414 365.17 305.504 376.98C305.594 388.79 303.074 407.81 301.354 416.47C299.634 425.13 296.214 443.06 296.214 444.33C296.214 445.6 298.914 448.75 297.744 450.91C296.574 453.07 281.154 447.3 281.154 447.3C281.154 447.3 277.274 442.43 278.724 441.8C280.164 441.17 283.504 440.9 283.504 440.9C283.504 440.9 285.214 387.35 284.944 379.87C284.674 372.39 282.734 367.07 283.294 364.54C283.864 362.02 283.864 357.87 283.864 357.87L304.314 353.05H304.324Z" fill="#FFD6D9"/>
<path d="M283.524 440.54L283.054 444.51" stroke="#1D1D1B" stroke-width="0.5" stroke-linecap="round" stroke-linejoin="round"/>
<path d="M283.724 361.41L304.214 355.25L304.324 353.05L283.864 357.87L283.724 361.41Z" fill="#1D1D1B"/>
<path d="M298.654 447.57C298.654 447.57 299.104 455.5 296.944 461.63C296.944 461.63 291.714 462.26 288.204 461.63C288.204 461.63 286.584 456.49 286.404 455.95C286.224 455.41 284.514 456.94 283.064 457.03C281.624 457.12 275.674 447.11 275.674 443.06C275.674 439.01 281.444 441.15 281.444 441.15C281.444 441.15 279.284 442.34 282.254 444.51C285.224 446.67 287.574 448.03 290.544 447.85C293.514 447.67 295.864 446.59 298.654 447.58V447.57Z" fill="#798ED0"/>
<path d="M286.393 455.95C286.393 455.95 284.683 453.7 284.143 453.16C283.603 452.62 283.063 457.04 283.063 457.04L286.403 455.96L286.393 455.95Z" fill="#1D1D1B"/>
<path d="M83.6328 461.77C113.87 461.77 138.383 457.123 138.383 451.39C138.383 445.658 113.87 441.01 83.6328 441.01C53.3952 441.01 28.8828 445.658 28.8828 451.39C28.8828 457.123 53.3952 461.77 83.6328 461.77Z" fill="#1D1D1B"/>
<path d="M112.664 105.03C112.664 105.03 111.704 133.04 110.864 135.32H108.104V139.29H84.1835L83.1035 131.96L106.184 104.43L112.674 105.03H112.664Z" fill="#CFAD97"/>
<path d="M103.523 122.7C103.523 122.7 104.363 127.03 107.253 125.34C107.253 125.34 104.003 129.67 103.523 122.7Z" fill="#1D1D1B" stroke="#1D1D1B" stroke-width="0.5" stroke-linecap="round" stroke-linejoin="round"/>
<path d="M108.094 135.32H105.384L108.094 138.09V135.32Z" fill="#1D1D1B" stroke="#1D1D1B" stroke-width="0.5" stroke-linecap="round" stroke-linejoin="round"/>
<path d="M105.384 119.89C105.384 119.89 105.544 114.92 106.734 115.23L105.384 119.89Z" fill="#1D1D1B"/>
<path d="M105.384 119.89C105.384 119.89 105.544 114.92 106.734 115.23" stroke="#1D1D1B" stroke-width="0.5" stroke-linecap="round" stroke-linejoin="round"/>
<path d="M83.3032 133.4C83.3032 133.4 96.1931 133.88 100.043 132.07L103.533 122.69C103.533 122.69 104.013 112.71 106.293 113.31C108.573 113.91 108.213 119.08 108.213 119.08C108.213 119.08 109.053 119.08 109.413 117.76C109.773 116.44 110.013 110.31 110.013 110.31C110.013 110.31 112.893 106.94 113.503 104.42C113.503 104.42 116.513 102.14 116.993 99.6101C117.473 97.0801 116.993 95.8801 116.993 95.8801C116.993 95.8801 116.513 90.1101 111.103 89.6301C111.103 89.6301 108.223 84.8201 103.413 86.3801C103.413 86.3801 95.7232 82.5101 90.6732 86.0701C90.6732 86.0701 85.3832 85.1801 83.1032 87.9501C83.1032 87.9501 76.6132 88.1901 75.8932 93.7201C75.8932 93.7201 72.8831 97.2101 74.4531 101.05C74.4531 101.05 71.9332 104.3 74.9332 107.66C74.9332 107.66 73.8532 112.95 76.9732 115.59C76.9732 115.59 75.5332 120.04 78.2932 122.92C78.2932 122.92 78.4131 127.97 80.4531 129.41C80.4531 129.41 80.5231 134.23 83.3131 133.38L83.3032 133.4Z" fill="#6C6B82"/>
<path d="M79.6436 107.43C78.5536 105.83 79.0036 103.39 80.5936 102.29C80.0436 100.22 80.9936 97.84 82.8236 96.73" stroke="#1D1D1B" stroke-width="0.5" stroke-linecap="round" stroke-linejoin="round"/>
<path d="M104.983 90.95C105.813 90.65 106.773 91.1 107.323 91.79C107.873 92.48 108.113 93.37 108.333 94.23C109.283 93.71 110.543 93.95 111.353 94.66C112.163 95.37 112.573 96.48 112.593 97.57" stroke="#1D1D1B" stroke-width="0.5" stroke-linecap="round" stroke-linejoin="round"/>
<path d="M100.264 97.5402C100.954 97.2002 101.824 97.6602 102.214 98.3202C102.604 98.9802 102.624 99.7902 102.644 100.56C103.584 100.35 104.624 100.67 105.284 101.38C105.944 102.08 106.194 103.15 105.914 104.07" stroke="#1D1D1B" stroke-width="0.5" stroke-linecap="round" stroke-linejoin="round"/>
<path d="M95.2139 107.34C96.1539 107.98 96.4139 109.44 95.7539 110.36" stroke="#1D1D1B" stroke-width="0.5" stroke-linecap="round" stroke-linejoin="round"/>
<path d="M176.613 133.5C167.713 123.27 158.823 126.67 158.823 126.67V155.03C158.823 155.03 150.893 154.19 146.923 152.99C142.953 151.79 133.943 144.09 133.943 144.09C133.943 144.09 133.583 142.53 132.503 142.29C131.423 142.05 113.513 143.97 113.513 143.97C113.513 143.97 112.673 141.81 111.593 140.6C110.513 139.4 107.263 135.91 100.653 135.31C94.0432 134.71 83.7032 136.02 80.2232 137.59C76.7432 139.16 72.7732 147.33 72.7732 147.69C72.7732 147.69 48.9732 155.62 47.2932 157.43C45.6132 159.23 42.8432 169.09 40.4432 175.1C38.0432 181.11 24.2132 210.32 21.9332 217.89C19.6532 225.46 23.1332 233.28 28.1832 233.64C33.2332 234 59.0732 232.56 59.0732 232.56L60.0332 241.09L56.1832 275.47C56.1832 275.47 66.8832 285.57 95.7332 285.09C124.583 284.61 142.733 268.5 142.733 268.5C142.733 268.5 142.253 254.68 140.453 246.62C138.653 238.57 132.283 212.12 132.283 212.12L138.053 181.83C138.053 181.83 148.273 178.58 157.523 177.86C166.783 177.14 174.713 175.1 176.633 171.01C178.553 166.92 176.633 133.49 176.633 133.49L176.613 133.5ZM51.6032 211.65L55.4532 202.27L57.1332 212.85L51.6032 211.65Z" fill="#798ED0"/>
<path d="M133.193 274.94C133.193 274.94 121.553 362.03 121.073 365.51C120.593 368.99 119.273 379.45 119.513 382.34C119.753 385.22 116.993 407.82 116.263 412.75C115.543 417.68 113.743 433.3 113.743 433.3L112.783 435.46C112.783 435.46 122.263 436.3 122.993 439.31C123.723 442.31 122.523 445.44 118.913 447.84C115.303 450.24 111.103 453.61 111.103 453.61C111.103 453.61 108.583 458.54 104.733 459.14C100.883 459.74 96.3229 459.26 94.3929 457.7C92.4729 456.14 91.7529 442.67 91.7529 442.67C91.7529 442.67 86.1029 438.46 86.2229 434.62C86.3429 430.78 91.2729 407.93 92.2328 396.52C93.1928 385.1 95.4829 368.63 95.2429 364.43C95.0028 360.22 91.2729 310.58 91.2729 310.58C91.2729 310.58 73.8428 371.04 72.8829 374.41C71.9229 377.78 63.9828 428.86 64.3528 431.87C64.7129 434.88 64.8128 436.92 64.3428 438.36C63.8728 439.8 62.0729 442.09 62.0729 442.09V444.13C62.0729 444.13 62.4329 452.42 62.0729 454.83C61.7129 457.24 58.4629 458.92 53.0529 458.68C47.6429 458.44 46.9229 455.67 44.2829 454.11C41.6428 452.55 36.2329 449.78 37.1929 447.14C38.1529 444.5 42.4828 443.41 42.4828 443.41L42.6028 437.4C42.6028 437.4 40.8028 434.39 41.5228 430.31C42.2428 426.23 48.3728 373.93 49.0928 365.88C49.8128 357.83 51.6129 333.91 52.9429 324.17C54.2629 314.43 56.0729 293.28 56.1929 287.87C56.3129 282.46 57.2728 274.17 57.2728 274.17L133.223 274.95L133.193 274.94Z" fill="#798ED0"/>
<path d="M91.2628 310.58L82.1328 309.26L89.9428 315.15L91.2628 310.58Z" fill="#1D1D1B"/>
<path d="M50.0332 172.1L55.4432 202.28" stroke="#1D1D1B" stroke-width="0.5" stroke-linecap="round" stroke-linejoin="round"/>
<path d="M57.123 212.85L59.053 232.57" stroke="#1D1D1B" stroke-width="0.5" stroke-linecap="round" stroke-linejoin="round"/>
<path d="M51.593 211.65L46.793 218.98L54.363 212.25L51.593 211.65Z" fill="#1D1D1B" stroke="#1D1D1B" stroke-width="0.5" stroke-linecap="round" stroke-linejoin="round"/>
<path d="M132.974 145.78C132.974 145.78 138.144 171.62 138.384 177.75" stroke="#1D1D1B" stroke-width="0.5" stroke-linecap="round" stroke-linejoin="round"/>
<path d="M158.823 155.04H164.583L158.823 150.87V155.04Z" fill="#1D1D1B" stroke="#1D1D1B" stroke-width="0.5" stroke-linecap="round" stroke-linejoin="round"/>
<path d="M158.823 129.43C158.823 129.43 161.353 127.51 165.803 129.43C170.243 131.35 173.413 133.86 176.763 136.15" stroke="#1D1D1B" stroke-width="0.5" stroke-linecap="round" stroke-linejoin="round"/>
<path d="M72.7529 147.7C72.7529 147.7 91.4329 142.5 113.503 143.97" stroke="#1D1D1B" stroke-width="0.5" stroke-linecap="round" stroke-linejoin="round"/>
<path d="M158.823 126.67C158.823 126.67 158.753 126.5 158.643 126.2C157.713 123.8 153.543 113 153.543 111.4C153.543 109.6 152.583 105.15 152.943 105.03C153.303 104.91 154.503 104.43 154.503 104.43C154.503 104.43 154.303 103.47 155.843 102.39C157.383 101.31 160.633 102.03 162.433 103.59C164.233 105.15 166.403 109.24 167.243 112C168.083 114.76 167.793 128.57 167.793 128.57" fill="#CFAD97"/>
<path d="M56.1631 275.48C56.1631 275.48 67.7031 288.7 95.7131 285.1C123.723 281.49 133.203 274.94 133.203 274.94L132.483 280.33C132.483 280.33 113.143 290.14 86.7031 290.14C60.2631 290.14 56.1731 280.4 56.1731 280.4V275.47L56.1631 275.48Z" fill="#1D1D1B" stroke="#1D1D1B" stroke-width="0.5" stroke-linecap="round" stroke-linejoin="round"/>
<path d="M91.7432 442.68C91.7432 442.68 105.083 448.09 112.783 435.47" stroke="#1D1D1B" stroke-width="0.5" stroke-linecap="round" stroke-linejoin="round"/>
<path d="M93.3828 455.58C93.3828 455.58 99.9128 458.2 104.963 455.58C110.013 452.96 121.513 444.94 123.153 441.65" stroke="#1D1D1B" stroke-width="0.5" stroke-linecap="round" stroke-linejoin="round"/>
<path d="M42.583 437.39C42.583 437.39 48.713 443.9 53.943 443.83C59.173 443.76 62.053 442.08 62.053 442.08" stroke="#1D1D1B" stroke-width="0.5" stroke-linecap="round" stroke-linejoin="round"/>
<path d="M37.5527 449.19C37.5527 449.19 44.3827 454.22 48.7127 454.94C53.0427 455.66 58.9927 457.64 62.0527 453.68" stroke="#1D1D1B" stroke-width="0.5" stroke-linecap="round" stroke-linejoin="round"/>
<path d="M126.423 282.54C126.423 282.54 115.243 372 114.703 376.87C114.163 381.74 110.493 432.02 108.273 440.59" stroke="#1D1D1B" stroke-width="0.5" stroke-linecap="round" stroke-linejoin="round"/>
<path d="M160.343 112.27L157.253 111.1L155.753 96.3501L161.883 96.5801L160.343 112.27Z" fill="#21234B"/>
<path d="M161.883 96.5799C161.843 97.6599 160.433 98.4799 158.743 98.4199C157.053 98.3599 155.713 97.4299 155.753 96.3499C155.793 95.2699 157.203 94.4499 158.893 94.5099C160.583 94.5699 161.923 95.4999 161.883 96.5799Z" fill="#E0E3FA"/>
<path d="M155.753 96.3501C155.753 96.3501 156.033 98.3201 158.743 98.4201C161.443 98.5201 161.883 96.5801 161.883 96.5801" stroke="#1D1D1B" stroke-width="0.5" stroke-linecap="round" stroke-linejoin="round"/>
<path d="M154.493 104.43C154.493 104.43 156.173 105.52 157.253 108.85V111.1" stroke="#1D1D1B" stroke-width="0.5" stroke-linecap="round" stroke-linejoin="round"/>
<path d="M160.343 112.27L160.953 106.04" stroke="#1D1D1B" stroke-width="0.5" stroke-linecap="round" stroke-linejoin="round"/>
</svg>
