<svg width="446" height="470" viewBox="0 0 446 470" fill="none" xmlns="http://www.w3.org/2000/svg">
<path d="M316.406 20.8263V0H325.484C332.747 0 337.055 7.29809 338.301 10.9471V20.8263H316.406Z" fill="#658496"/>
<path d="M106.274 20.5591H182.37V37.1133H328.955V21.6271H411.459C414.236 22.0543 415.108 24.1191 415.197 25.0981V155.663C415.197 158.226 412.705 159.757 411.459 160.202H395.706V426.137H104.939C99.5991 424.856 97.1961 420.619 96.6621 418.661V29.9042C96.8757 23.9233 103.159 21.1821 106.274 20.5591Z" fill="#0C314A"/>
<path d="M106.998 381.155L139.268 46.0142L386.438 69.813L354.168 404.954L106.998 381.155Z" fill="#D9D9D9" fill-opacity="0.7"/>
<path d="M114.332 387.093L133.324 50.9375L381.242 64.9442L362.25 401.099L114.332 387.093Z" fill="#D9D9D9" fill-opacity="0.5"/>
<path d="M122.562 391.694V55.0024H370.876V391.694H122.562Z" fill="white"/>
<rect x="145.621" y="181.926" width="35.0505" height="35.0505" rx="7.5" fill="white" stroke="#6D99A7" stroke-width="5"/>
<rect x="145.621" y="242.803" width="35.0505" height="35.0505" rx="7.5" fill="white" stroke="#6D99A7" stroke-width="5"/>
<rect x="145.621" y="304.748" width="35.0505" height="35.0505" rx="7.5" fill="white" stroke="#6D99A7" stroke-width="5"/>
<rect x="145.621" y="119.981" width="35.0505" height="35.0505" rx="7.5" fill="white" stroke="#6D99A7" stroke-width="5"/>
<path d="M157.006 116.681C151.239 113.049 146.059 118.55 147.127 121.22L159.142 147.653C162.987 152.139 166.796 149.522 168.22 147.653L191.984 113.21C191.984 103.598 184.507 104.666 182.905 106.802L164.749 132.968L157.006 116.681Z" fill="#F5772D"/>
<path d="M157.006 240.57C151.239 236.939 146.059 242.439 147.127 245.109L159.142 271.542C162.987 276.028 166.796 273.411 168.22 271.542L191.984 237.099C191.984 227.487 184.507 228.555 182.905 230.691L164.749 256.857L157.006 240.57Z" fill="#F5772D"/>
<path d="M159.076 176.594C154.583 171.469 148.05 175.264 148.312 178.128L152.291 206.89C154.697 212.285 159.095 210.864 160.992 209.478L193.591 183.241C196.332 174.028 188.861 172.92 186.717 174.51L161.853 194.413L159.076 176.594Z" fill="#F5772D"/>
<path d="M182.104 37.6475V20.0252V10.9471C184.026 3.68465 190.559 0.623008 193.585 0H318.542C325.164 1.28162 328.421 8.1881 329.222 11.4811V37.6475H182.104Z" fill="#7B98A5"/>
<rect x="198.125" y="89.7134" width="146.852" height="9.61212" fill="#EAEBEC"/>
<rect x="199.191" y="270.208" width="116.947" height="9.61212" fill="#EAEBEC"/>
<rect x="198.125" y="311.326" width="49.6626" height="9.61212" fill="#EAEBEC"/>
<rect x="198.125" y="332.152" width="49.6626" height="9.61212" fill="#EAEBEC"/>
<rect x="198.125" y="249.915" width="146.852" height="9.61212" fill="#EAEBEC"/>
<rect x="198.125" y="208.263" width="118.015" height="9.61212" fill="#EAEBEC"/>
<rect x="198.125" y="187.437" width="146.852" height="9.61212" fill="#EAEBEC"/>
<rect x="198.658" y="146.318" width="117.481" height="9.61212" fill="#EAEBEC"/>
<rect x="198.125" y="125.492" width="146.852" height="9.61212" fill="#EAEBEC"/>
<path d="M417.602 301.447H269.415C265.57 301.447 263.185 305.719 262.473 307.855V448.032C263.541 452.517 267.546 454.529 269.415 454.974H409.591C414.291 455.401 416.89 450.524 417.602 448.032V301.447Z" stroke="#6D99A7" stroke-width="30"/>
<path d="M339.636 361.522L315.072 306.253C293.07 278.484 268.079 303.049 272.885 320.938L318.276 419.729C332.587 434.681 347.735 425.959 353.52 419.729L442.966 289.164C454.447 258.459 418.936 246.711 406.12 264.066L339.636 361.522Z" fill="#46C4C6"/>
<path d="M5.8817 426.671L4.81369 425.336C-0.312777 431.531 -0.348377 443.048 0.274631 448.032C3.26507 455.721 9.08574 454.44 12.2898 449.901C15.0666 447.978 16.6508 434.504 17.0958 428.006L5.8817 426.671Z" fill="#184058"/>
<path d="M57.6798 417.593H47.8007C41.3926 418.234 42.6386 425.692 44.0626 429.341C50.0435 435.536 60.7948 436.728 65.4229 436.55C76.9574 436.337 77.171 431.299 75.836 428.807C74.9816 427.525 68.1819 423.645 64.8889 421.865C59.3352 416.952 57.7688 416.97 57.6798 417.593Z" fill="#184058"/>
<path d="M14.9598 428.807L5.34766 426.404V432.011C6.84287 438.847 14.9598 434.414 14.9598 432.011V428.807Z" fill="#F5833E"/>
<path d="M57.4123 416.792H47.5332V419.996C50.31 426.191 56.8783 422.666 57.4123 419.996V416.792Z" fill="#F5833E"/>
<path d="M93.1912 242.706C85.2879 244.415 85.9821 237.366 87.3171 233.628C89.6667 233.628 95.5052 231.67 97.4632 230.958C103.444 228.822 104.583 234.518 104.405 237.633C104.405 239.983 96.4842 242.172 93.1912 242.706Z" fill="#F5833E"/>
<path d="M47.802 200.787C46.9476 201.855 46.022 202.478 45.666 202.656C52.0741 202.656 54.8331 205.771 56.0791 207.195C60.3512 214.884 62.9322 228.288 63.0212 234.162L65.1573 252.852C72.2061 261.61 88.9206 268.249 96.3966 270.474L98.7997 260.061C81.0707 244.041 75.9264 236.12 75.5704 234.162C70.4439 226.9 65.4243 215.472 63.5552 210.666C61.2056 203.19 52.0741 200.965 47.802 200.787Z" fill="#D9D9D9"/>
<path d="M39.2571 351.376C42.1942 349.127 37.6551 346.036 37.6551 340.696V310.258L63.2874 305.452C64.9963 315.277 62.5754 382.171 61.1514 414.389C58.161 417.379 50.4713 417.415 47.0002 417.059C30.5528 372.63 35.0741 354.58 39.2571 351.376Z" fill="#3B6176"/>
<path d="M42.7288 314.797L8.28538 306.52C6.14936 322.54 9.17539 342.565 10.9554 350.576C-1.64714 368.518 1.7883 407.892 5.08134 425.337C6.14936 429.395 12.1124 429.698 14.9605 429.342C16.4557 428.701 17.5415 426.405 17.8975 425.337C17.2567 421.278 26.5306 378.433 31.2477 357.518C36.3741 346.838 41.0378 324.587 42.7288 314.797Z" fill="#3B6176"/>
<path d="M45.9321 374.339C49.1362 363.018 47.2672 329.927 45.9321 314.797C44.2233 315.224 39.5241 315.509 37.3881 315.598V338.56C36.32 342.031 38.9901 345.769 38.9901 350.308C28.9507 359.707 39.4351 398.547 45.9321 416.792H52.6072C53.248 416.365 53.4082 413.588 53.4082 412.253C52.8742 397.568 45.9321 386.621 45.9321 374.339Z" fill="#184058"/>
<path d="M132.173 403.442L67.5586 111.607C67.5586 92.1696 88.3849 97.4563 88.3849 108.937L152.466 399.437C146.592 416.525 135.911 409.494 132.173 403.442Z" fill="#285066"/>
<path d="M11.4882 227.487C12.129 214.243 25.1053 206.838 31.5134 204.791L45.3976 202.922C54.1553 202.068 57.9467 207.906 58.7477 210.932C61.5246 213.068 63.8208 240.303 64.6218 253.653C65.6898 259.847 66.3128 286.494 66.4908 299.044C61.1508 320.137 11.4882 322.273 5.08008 299.044C9.13853 285.587 11.0432 245.732 11.4882 227.487Z" fill="#FFBD59"/>
<path d="M29.3782 191.708L30.4462 188.504L18.1641 193.043C20.5137 199.452 28.5772 203.012 32.3152 203.991C31.4608 202.923 30.7132 200.342 30.4462 199.185L29.3782 191.708Z" fill="#3A6174"/>
<path d="M32.0472 212.534V204.257L30.1781 199.184C20.032 196.514 26.1731 189.839 29.6441 191.441L30.1781 187.436L49.1354 184.499C55.1162 197.102 46.6433 203.278 41.6593 204.791V212.534C37.6008 218.515 33.5602 215.026 32.0472 212.534Z" fill="#F5833E"/>
<path d="M30.4465 188.504C29.3785 189.786 21.8134 192.42 18.1643 193.577C3.47923 164.207 38.1896 158.333 45.1317 174.887L30.4465 188.504Z" fill="#FFBD59"/>
<path d="M44.8637 174.887C38.6692 175.314 32.1366 183.965 29.6445 188.237C31.3534 187.597 42.1047 186.724 47.2668 186.368C51.5388 177.824 56.8789 176.756 59.0149 177.29C61.3645 176.436 60.3499 175.332 59.5489 174.887H44.8637Z" fill="#184058"/>
<path d="M32.5826 183.966C34.4517 181.118 39.2577 175.368 43.5298 175.155C38.1897 164.207 21.1015 167.678 32.5826 183.966Z" fill="white"/>
<path d="M29.1105 225.618C20.78 222.2 15.1374 227.042 13.3573 229.89C9.51249 246.978 26.8855 253.03 36.0526 253.92C67.2386 256.27 87.8513 247.067 94.2593 242.172C85.9288 242.386 87.0503 236.565 88.6523 233.628C65.5832 236.405 43.7957 231.643 29.1105 225.618Z" fill="#D9D9D9"/>
<path d="M96.3954 270.207C88.9193 265.294 94.8824 261.218 98.7984 259.794L100.667 261.396L103.337 274.479L96.3954 270.207Z" fill="#F5833E"/>
<path d="M73.967 144.716L73.166 138.308C82.3509 142.153 90.6992 137.24 93.7253 134.303L95.3273 142.313C84.22 151.711 76.4591 147.831 73.967 144.716Z" fill="#D9D9D9"/>
<path d="M91.5901 224.817L90.7891 218.409C99.974 222.254 108.322 217.341 111.348 214.404L112.95 222.414C101.843 231.812 94.0821 227.932 91.5901 224.817Z" fill="#D9D9D9"/>
<path d="M91.0548 142.313C90.414 137.4 93.2799 136.528 94.7929 136.706L113.75 223.215C111.828 224.496 110.101 223.393 109.478 222.681L91.0548 142.313Z" fill="#7B98A5"/>
<path d="M111.614 220.545L93.9922 138.842C95.0602 134.142 99.8663 135.371 99.8663 138.842L117.488 219.21C119.09 225.084 111.614 223.749 111.614 220.545Z" fill="#ADBFC8"/>
<path d="M152.467 399.704L132.442 404.243C131.801 405.738 132.175 407.536 132.442 408.248L147.127 433.347C149.477 436.123 150.954 433.792 151.399 432.279L153.268 405.845C153.909 402 153.001 400.149 152.467 399.704Z" fill="#E3E9EC"/>
</svg>
