<svg width="1055" height="1155" viewBox="0 0 1055 1155" fill="none" xmlns="http://www.w3.org/2000/svg">
<path d="M81.934 673.838C81.934 664.454 84.05 656.036 88.282 648.584C92.514 641.04 98.264 635.152 105.532 630.92C112.892 626.688 121.034 624.572 129.958 624.572C140.446 624.572 149.6 627.102 157.42 632.162C165.24 637.222 170.944 644.398 174.532 653.69H159.49C156.822 647.894 152.958 643.432 147.898 640.304C142.93 637.176 136.95 635.612 129.958 635.612C123.242 635.612 117.216 637.176 111.88 640.304C106.544 643.432 102.358 647.894 99.322 653.69C96.286 659.394 94.768 666.11 94.768 673.838C94.768 681.474 96.286 688.19 99.322 693.986C102.358 699.69 106.544 704.106 111.88 707.234C117.216 710.362 123.242 711.926 129.958 711.926C136.95 711.926 142.93 710.408 147.898 707.372C152.958 704.244 156.822 699.782 159.49 693.986H174.532C170.944 703.186 165.24 710.316 157.42 715.376C149.6 720.344 140.446 722.828 129.958 722.828C121.034 722.828 112.892 720.758 105.532 716.618C98.264 712.386 92.514 706.544 88.282 699.092C84.05 691.64 81.934 683.222 81.934 673.838ZM205.784 711.788H239.456V722H193.226V625.814H205.784V711.788ZM296.4 722.966C287.476 722.966 279.334 720.896 271.974 716.756C264.614 712.524 258.772 706.682 254.448 699.23C250.216 691.686 248.1 683.222 248.1 673.838C248.1 664.454 250.216 656.036 254.448 648.584C258.772 641.04 264.614 635.198 271.974 631.058C279.334 626.826 287.476 624.71 296.4 624.71C305.416 624.71 313.604 626.826 320.964 631.058C328.324 635.198 334.12 640.994 338.352 648.446C342.584 655.898 344.7 664.362 344.7 673.838C344.7 683.314 342.584 691.778 338.352 699.23C334.12 706.682 328.324 712.524 320.964 716.756C313.604 720.896 305.416 722.966 296.4 722.966ZM296.4 712.064C303.116 712.064 309.142 710.5 314.478 707.372C319.906 704.244 324.138 699.782 327.174 693.986C330.302 688.19 331.866 681.474 331.866 673.838C331.866 666.11 330.302 659.394 327.174 653.69C324.138 647.894 319.952 643.432 314.616 640.304C309.28 637.176 303.208 635.612 296.4 635.612C289.592 635.612 283.52 637.176 278.184 640.304C272.848 643.432 268.616 647.894 265.488 653.69C262.452 659.394 260.934 666.11 260.934 673.838C260.934 681.474 262.452 688.19 265.488 693.986C268.616 699.782 272.848 704.244 278.184 707.372C283.612 710.5 289.684 712.064 296.4 712.064ZM373.56 625.814V686.672C373.56 695.228 375.63 701.576 379.77 705.716C384.002 709.856 389.844 711.926 397.296 711.926C404.656 711.926 410.406 709.856 414.546 705.716C418.778 701.576 420.894 695.228 420.894 686.672V625.814H433.452V686.534C433.452 694.538 431.842 701.3 428.622 706.82C425.402 712.248 421.032 716.296 415.512 718.964C410.084 721.632 403.966 722.966 397.158 722.966C390.35 722.966 384.186 721.632 378.666 718.964C373.238 716.296 368.914 712.248 365.694 706.82C362.566 701.3 361.002 694.538 361.002 686.534V625.814H373.56ZM484.347 625.814C494.835 625.814 503.897 627.792 511.533 631.748C519.261 635.612 525.149 641.178 529.197 648.446C533.337 655.714 535.407 664.27 535.407 674.114C535.407 683.958 533.337 692.514 529.197 699.782C525.149 706.958 519.261 712.478 511.533 716.342C503.897 720.114 494.835 722 484.347 722H454.401V625.814H484.347ZM484.347 711.65C496.767 711.65 506.243 708.384 512.775 701.852C519.307 695.228 522.573 685.982 522.573 674.114C522.573 662.154 519.261 652.816 512.637 646.1C506.105 639.384 496.675 636.026 484.347 636.026H466.959V711.65H484.347ZM81.934 880.838C81.934 871.454 84.05 863.036 88.282 855.584C92.514 848.04 98.264 842.152 105.532 837.92C112.892 833.688 121.034 831.572 129.958 831.572C140.446 831.572 149.6 834.102 157.42 839.162C165.24 844.222 170.944 851.398 174.532 860.69H159.49C156.822 854.894 152.958 850.432 147.898 847.304C142.93 844.176 136.95 842.612 129.958 842.612C123.242 842.612 117.216 844.176 111.88 847.304C106.544 850.432 102.358 854.894 99.322 860.69C96.286 866.394 94.768 873.11 94.768 880.838C94.768 888.474 96.286 895.19 99.322 900.986C102.358 906.69 106.544 911.106 111.88 914.234C117.216 917.362 123.242 918.926 129.958 918.926C136.95 918.926 142.93 917.408 147.898 914.372C152.958 911.244 156.822 906.782 159.49 900.986H174.532C170.944 910.186 165.24 917.316 157.42 922.376C149.6 927.344 140.446 929.828 129.958 929.828C121.034 929.828 112.892 927.758 105.532 923.618C98.264 919.386 92.514 913.544 88.282 906.092C84.05 898.64 81.934 890.222 81.934 880.838ZM236.834 929.966C227.91 929.966 219.768 927.896 212.408 923.756C205.048 919.524 199.206 913.682 194.882 906.23C190.65 898.686 188.534 890.222 188.534 880.838C188.534 871.454 190.65 863.036 194.882 855.584C199.206 848.04 205.048 842.198 212.408 838.058C219.768 833.826 227.91 831.71 236.834 831.71C245.85 831.71 254.038 833.826 261.398 838.058C268.758 842.198 274.554 847.994 278.786 855.446C283.018 862.898 285.134 871.362 285.134 880.838C285.134 890.314 283.018 898.778 278.786 906.23C274.554 913.682 268.758 919.524 261.398 923.756C254.038 927.896 245.85 929.966 236.834 929.966ZM236.834 919.064C243.55 919.064 249.576 917.5 254.912 914.372C260.34 911.244 264.572 906.782 267.608 900.986C270.736 895.19 272.3 888.474 272.3 880.838C272.3 873.11 270.736 866.394 267.608 860.69C264.572 854.894 260.386 850.432 255.05 847.304C249.714 844.176 243.642 842.612 236.834 842.612C230.026 842.612 223.954 844.176 218.618 847.304C213.282 850.432 209.05 854.894 205.922 860.69C202.886 866.394 201.368 873.11 201.368 880.838C201.368 888.474 202.886 895.19 205.922 900.986C209.05 906.782 213.282 911.244 218.618 914.372C224.046 917.5 230.118 919.064 236.834 919.064ZM399.278 833.504V929H386.72V857.792L354.98 929H346.148L314.27 857.654V929H301.712V833.504H315.236L350.564 912.44L385.892 833.504H399.278ZM484.883 860.966C484.883 868.97 482.123 875.64 476.603 880.976C471.175 886.22 462.849 888.842 451.625 888.842H433.133V929H420.575V832.814H451.625C462.481 832.814 470.715 835.436 476.327 840.68C482.031 845.924 484.883 852.686 484.883 860.966ZM451.625 878.492C458.617 878.492 463.769 876.974 467.081 873.938C470.393 870.902 472.049 866.578 472.049 860.966C472.049 849.098 465.241 843.164 451.625 843.164H433.133V878.492H451.625ZM512.773 832.814V893.672C512.773 902.228 514.843 908.576 518.983 912.716C523.215 916.856 529.057 918.926 536.509 918.926C543.869 918.926 549.619 916.856 553.759 912.716C557.991 908.576 560.107 902.228 560.107 893.672V832.814H572.665V893.534C572.665 901.538 571.055 908.3 567.835 913.82C564.615 919.248 560.245 923.296 554.725 925.964C549.297 928.632 543.179 929.966 536.371 929.966C529.563 929.966 523.399 928.632 517.879 925.964C512.451 923.296 508.127 919.248 504.907 913.82C501.779 908.3 500.215 901.538 500.215 893.534V832.814H512.773ZM652.816 832.814V843.026H626.596V929H614.038V843.026H587.68V832.814H652.816ZM680.832 832.814V929H668.274V832.814H680.832ZM777.859 929H765.301L714.793 852.41V929H702.235V832.676H714.793L765.301 909.128V832.676H777.859V929ZM872.131 860.69C869.463 855.078 865.599 850.754 860.539 847.718C855.479 844.59 849.591 843.026 842.875 843.026C836.159 843.026 830.087 844.59 824.659 847.718C819.323 850.754 815.091 855.17 811.963 860.966C808.927 866.67 807.409 873.294 807.409 880.838C807.409 888.382 808.927 895.006 811.963 900.71C815.091 906.414 819.323 910.83 824.659 913.958C830.087 916.994 836.159 918.512 842.875 918.512C852.259 918.512 859.987 915.706 866.059 910.094C872.131 904.482 875.673 896.892 876.685 887.324H838.321V877.112H890.071V886.772C889.335 894.684 886.851 901.952 882.619 908.576C878.387 915.108 872.821 920.306 865.921 924.17C859.021 927.942 851.339 929.828 842.875 929.828C833.951 929.828 825.809 927.758 818.449 923.618C811.089 919.386 805.247 913.544 800.923 906.092C796.691 898.64 794.575 890.222 794.575 880.838C794.575 871.454 796.691 863.036 800.923 855.584C805.247 848.04 811.089 842.198 818.449 838.058C825.809 833.826 833.951 831.71 842.875 831.71C853.087 831.71 862.103 834.24 869.923 839.3C877.835 844.36 883.585 851.49 887.173 860.69H872.131ZM81.934 1087.84C81.934 1078.45 84.05 1070.04 88.282 1062.58C92.514 1055.04 98.264 1049.15 105.532 1044.92C112.892 1040.69 121.034 1038.57 129.958 1038.57C140.446 1038.57 149.6 1041.1 157.42 1046.16C165.24 1051.22 170.944 1058.4 174.532 1067.69H159.49C156.822 1061.89 152.958 1057.43 147.898 1054.3C142.93 1051.18 136.95 1049.61 129.958 1049.61C123.242 1049.61 117.216 1051.18 111.88 1054.3C106.544 1057.43 102.358 1061.89 99.322 1067.69C96.286 1073.39 94.768 1080.11 94.768 1087.84C94.768 1095.47 96.286 1102.19 99.322 1107.99C102.358 1113.69 106.544 1118.11 111.88 1121.23C117.216 1124.36 123.242 1125.93 129.958 1125.93C136.95 1125.93 142.93 1124.41 147.898 1121.37C152.958 1118.24 156.822 1113.78 159.49 1107.99H174.532C170.944 1117.19 165.24 1124.32 157.42 1129.38C149.6 1134.34 140.446 1136.83 129.958 1136.83C121.034 1136.83 112.892 1134.76 105.532 1130.62C98.264 1126.39 92.514 1120.54 88.282 1113.09C84.05 1105.64 81.934 1097.22 81.934 1087.84ZM205.784 1050.03V1082.18H240.836V1092.53H205.784V1125.65H244.976V1136H193.226V1039.68H244.976V1050.03H205.784ZM276.536 1125.79H310.208V1136H263.978V1039.81H276.536V1125.79ZM336.102 1125.79H369.774V1136H323.544V1039.81H336.102V1125.79Z" fill="white"/>
<path d="M458.898 173.69L493.485 148.324C429.253 87.1173 352.406 116.398 322.012 138.689C323.353 129.969 321.172 119.963 319.914 116.05L284.908 144.141C278.372 230.171 212.034 249.167 179.682 247.91C29.1705 210.814 102.738 4.54082 245.077 76.6444L276.938 50.8597C174.47 -22.9228 96.1721 47.2352 69.8316 91.537C20.7008 193.333 91.7106 257.628 133.357 277.051C55.3795 334.24 65.3754 410.725 80.1205 441.818L112.401 413.308C109.46 287.324 221.399 285.012 263.535 319.389C360.387 415.181 240.649 522.612 161.247 476.612L128.547 507.847C302.957 570.936 347.601 443.901 342.147 370.533C500.626 428.381 557.217 278.078 532.897 218.546L498.73 241.187C482.638 374.844 363.379 359.452 327.68 301.358C265.207 199.693 386.575 117.934 458.898 173.69Z" fill="white"/>
</svg>
