<svg width="351" height="1024" viewBox="0 0 351 1024" fill="none" xmlns="http://www.w3.org/2000/svg">
<path d="M0 1.5C0 6.81853 1.04756 12.085 3.08288 16.9987C5.11819 21.9124 8.1014 26.3771 11.8622 30.1378C15.6229 33.8986 20.0876 36.8818 25.0013 38.9171C29.915 40.9524 35.1815 42 40.5 42C45.8185 42 51.085 40.9524 55.9987 38.9171C60.9124 36.8818 65.3771 33.8986 69.1378 30.1378C72.8986 26.377 75.8818 21.9124 77.9171 16.9987C79.9524 12.085 81 6.81853 81 1.5L40.5 1.5H0Z" fill="#D9D9D9"/>
<circle cx="10.5" cy="63.5" r="2.5" fill="#D9D9D9"/>
<circle cx="60.5" cy="63.5" r="2.5" fill="#D9D9D9"/>
<circle cx="50.5" cy="63.5" r="2.5" fill="#D9D9D9"/>
<circle cx="40.5" cy="63.5" r="2.5" fill="#D9D9D9"/>
<circle cx="30.5" cy="63.5" r="2.5" fill="#D9D9D9"/>
<circle cx="20.5" cy="63.5" r="2.5" fill="#D9D9D9"/>
<circle cx="10.5" cy="93.5" r="2.5" fill="#D9D9D9"/>
<circle cx="60.5" cy="93.5" r="2.5" fill="#D9D9D9"/>
<circle cx="50.5" cy="93.5" r="2.5" fill="#D9D9D9"/>
<circle cx="40.5" cy="93.5" r="2.5" fill="#D9D9D9"/>
<circle cx="30.5" cy="93.5" r="2.5" fill="#D9D9D9"/>
<circle cx="20.5" cy="93.5" r="2.5" fill="#D9D9D9"/>
<circle cx="10.5" cy="83.5" r="2.5" fill="#D9D9D9"/>
<circle cx="60.5" cy="83.5" r="2.5" fill="#D9D9D9"/>
<circle cx="50.5" cy="83.5" r="2.5" fill="#D9D9D9"/>
<circle cx="40.5" cy="83.5" r="2.5" fill="#D9D9D9"/>
<circle cx="30.5" cy="83.5" r="2.5" fill="#D9D9D9"/>
<circle cx="20.5" cy="83.5" r="2.5" fill="#D9D9D9"/>
<circle cx="10.5" cy="73.5" r="2.5" fill="#D9D9D9"/>
<circle cx="60.5" cy="73.5" r="2.5" fill="#D9D9D9"/>
<circle cx="70.5" cy="63.5" r="2.5" fill="#D9D9D9"/>
<circle cx="70.5" cy="93.5" r="2.5" fill="#D9D9D9"/>
<circle cx="70.5" cy="83.5" r="2.5" fill="#D9D9D9"/>
<circle cx="70.5" cy="73.5" r="2.5" fill="#D9D9D9"/>
<circle cx="50.5" cy="73.5" r="2.5" fill="#D9D9D9"/>
<circle cx="40.5" cy="73.5" r="2.5" fill="#D9D9D9"/>
<circle cx="30.5" cy="73.5" r="2.5" fill="#D9D9D9"/>
<circle cx="20.5" cy="73.5" r="2.5" fill="#D9D9D9"/>
<circle cx="319.633" cy="56.6328" r="12.5" fill="#D9D9D9"/>
<path d="M291.155 54.9771C290.927 60.7082 292.403 66.3784 295.397 71.2706C298.39 76.1629 302.768 80.0575 307.975 82.4619C313.183 84.8664 318.986 85.6726 324.652 84.7788C330.317 83.885 335.59 81.3312 339.805 77.4404C344.019 73.5495 346.985 68.4964 348.327 62.9201C349.669 57.3437 349.328 51.4945 347.346 46.1122C345.364 40.7298 341.83 36.0561 337.192 32.6819C332.554 29.3078 327.019 27.3848 321.288 27.1562" stroke="white" stroke-width="2"/>
<path d="M149 90C139.611 90 132 82.3888 132 73L132 -10H166V73C166 82.3888 158.389 90 149 90Z" fill="url(#paint0_linear_351_791)"/>
<path d="M224.5 159C210.417 159 199 147.583 199 133.5L199 7H250L250 133.5C250 147.583 238.583 159 224.5 159Z" fill="url(#paint1_linear_351_791)"/>
<path d="M195.5 115C181.417 115 170 103.583 170 89.5L170 -1L221 -1L221 89.5C221 103.583 209.583 115 195.5 115Z" stroke="white" stroke-width="2"/>
<path d="M350.541 1022.67C350.516 1017.35 349.443 1012.09 347.385 1007.18C345.326 1002.28 342.322 997.828 338.543 994.085C334.764 990.342 330.286 987.38 325.362 985.368C320.439 983.356 315.168 982.334 309.849 982.359C304.531 982.384 299.269 983.457 294.365 985.516C289.461 987.574 285.011 990.579 281.268 994.357C277.525 998.136 274.563 1002.61 272.551 1007.54C270.539 1012.46 269.517 1017.73 269.542 1023.05L310.042 1022.86L350.541 1022.67Z" fill="#D9D9D9"/>
<circle cx="339.748" cy="960.717" r="2.5" transform="rotate(179.727 339.748 960.717)" fill="#D9D9D9"/>
<circle cx="289.748" cy="960.955" r="2.5" transform="rotate(179.727 289.748 960.955)" fill="#D9D9D9"/>
<circle cx="299.748" cy="960.907" r="2.5" transform="rotate(179.727 299.748 960.907)" fill="#D9D9D9"/>
<circle cx="309.748" cy="960.86" r="2.5" transform="rotate(179.727 309.748 960.86)" fill="#D9D9D9"/>
<circle cx="319.748" cy="960.812" r="2.5" transform="rotate(179.727 319.748 960.812)" fill="#D9D9D9"/>
<circle cx="329.748" cy="960.764" r="2.5" transform="rotate(179.727 329.748 960.764)" fill="#D9D9D9"/>
<circle cx="339.605" cy="930.717" r="2.5" transform="rotate(179.727 339.605 930.717)" fill="#D9D9D9"/>
<circle cx="289.605" cy="930.955" r="2.5" transform="rotate(179.727 289.605 930.955)" fill="#D9D9D9"/>
<circle cx="299.605" cy="930.907" r="2.5" transform="rotate(179.727 299.605 930.907)" fill="#D9D9D9"/>
<circle cx="309.605" cy="930.86" r="2.5" transform="rotate(179.727 309.605 930.86)" fill="#D9D9D9"/>
<circle cx="319.605" cy="930.813" r="2.5" transform="rotate(179.727 319.605 930.813)" fill="#D9D9D9"/>
<circle cx="329.605" cy="930.765" r="2.5" transform="rotate(179.727 329.605 930.765)" fill="#D9D9D9"/>
<circle cx="339.652" cy="940.717" r="2.5" transform="rotate(179.727 339.652 940.717)" fill="#D9D9D9"/>
<circle cx="289.654" cy="940.955" r="2.5" transform="rotate(179.727 289.654 940.955)" fill="#D9D9D9"/>
<circle cx="299.654" cy="940.907" r="2.5" transform="rotate(179.727 299.654 940.907)" fill="#D9D9D9"/>
<circle cx="309.652" cy="940.86" r="2.5" transform="rotate(179.727 309.652 940.86)" fill="#D9D9D9"/>
<circle cx="319.652" cy="940.812" r="2.5" transform="rotate(179.727 319.652 940.812)" fill="#D9D9D9"/>
<circle cx="329.652" cy="940.765" r="2.5" transform="rotate(179.727 329.652 940.765)" fill="#D9D9D9"/>
<circle cx="339.701" cy="950.717" r="2.5" transform="rotate(179.727 339.701 950.717)" fill="#D9D9D9"/>
<circle cx="289.701" cy="950.955" r="2.5" transform="rotate(179.727 289.701 950.955)" fill="#D9D9D9"/>
<circle cx="279.748" cy="961.003" r="2.5" transform="rotate(179.727 279.748 961.003)" fill="#D9D9D9"/>
<circle cx="279.605" cy="931.003" r="2.5" transform="rotate(179.727 279.605 931.003)" fill="#D9D9D9"/>
<circle cx="279.654" cy="941.003" r="2.5" transform="rotate(179.727 279.654 941.003)" fill="#D9D9D9"/>
<circle cx="279.701" cy="951.003" r="2.5" transform="rotate(179.727 279.701 951.003)" fill="#D9D9D9"/>
<circle cx="299.701" cy="950.907" r="2.5" transform="rotate(179.727 299.701 950.907)" fill="#D9D9D9"/>
<circle cx="309.701" cy="950.86" r="2.5" transform="rotate(179.727 309.701 950.86)" fill="#D9D9D9"/>
<circle cx="319.701" cy="950.812" r="2.5" transform="rotate(179.727 319.701 950.812)" fill="#D9D9D9"/>
<circle cx="329.701" cy="950.765" r="2.5" transform="rotate(179.727 329.701 950.765)" fill="#D9D9D9"/>
<circle cx="30.6497" cy="969.055" r="12.5" transform="rotate(179.727 30.6497 969.055)" fill="#D9D9D9"/>
<path d="M59.1355 970.575C59.3369 964.843 57.834 959.18 54.8168 954.302C51.7997 949.424 47.4038 945.55 42.185 943.171C36.9663 940.791 31.1591 940.012 25.4979 940.933C19.8366 941.854 14.5755 944.433 10.3799 948.344C6.18429 952.254 3.24259 957.321 1.92681 962.904C0.611024 968.487 0.980248 974.334 2.98779 979.707C4.99534 985.08 8.55103 989.737 13.2052 993.089C17.8594 996.441 23.4031 998.338 29.1353 998.539" stroke="white" stroke-width="2"/>
<path d="M201.123 934.876C210.512 934.831 218.159 942.406 218.204 951.795L218.599 1034.79L184.599 1034.96L184.204 951.957C184.16 942.568 191.735 934.92 201.123 934.876Z" fill="url(#paint2_linear_351_791)"/>
<path d="M125.295 866.236C139.378 866.169 150.849 877.531 150.916 891.614L151.518 1018.11L100.519 1018.36L99.9168 891.857C99.8498 877.774 111.212 866.303 125.295 866.236Z" fill="url(#paint3_linear_351_791)"/>
<path d="M154.505 910.098C168.588 910.031 180.059 921.393 180.126 935.476L180.557 1025.98L129.557 1026.22L129.127 935.719C129.06 921.636 140.422 910.165 154.505 910.098Z" stroke="white" stroke-width="2"/>
<defs>
<linearGradient id="paint0_linear_351_791" x1="166" y1="90" x2="166" y2="20.0847" gradientUnits="userSpaceOnUse">
<stop stop-color="#D9D9D9"/>
<stop offset="1" stop-color="#1178F2"/>
</linearGradient>
<linearGradient id="paint1_linear_351_791" x1="250" y1="159" x2="250" y2="52.7288" gradientUnits="userSpaceOnUse">
<stop stop-color="#D9D9D9"/>
<stop offset="1" stop-color="#1178F2"/>
</linearGradient>
<linearGradient id="paint2_linear_351_791" x1="184.123" y1="934.957" x2="184.456" y2="1004.87" gradientUnits="userSpaceOnUse">
<stop stop-color="#D9D9D9"/>
<stop offset="1" stop-color="#1178F2"/>
</linearGradient>
<linearGradient id="paint3_linear_351_791" x1="99.7955" y1="866.357" x2="100.301" y2="972.627" gradientUnits="userSpaceOnUse">
<stop stop-color="#D9D9D9"/>
<stop offset="1" stop-color="#1178F2"/>
</linearGradient>
</defs>
</svg>
