<svg width="83" height="107" viewBox="0 0 83 107" fill="none" xmlns="http://www.w3.org/2000/svg">
<path d="M55.2806 95.957H27.6387L41.4596 106.224L55.2806 95.957Z" fill="#1178F2"/>
<path d="M52.1225 79.7666H30.9962V89.2438H17.7676V93.5875H65.1537V89.2438H52.1225V79.7666Z" fill="#1178F2"/>
<path d="M25.072 13.2286C29.9686 3.7514 37.5109 1.38209 41.4597 0C50.3446 2.3693 52.1216 4.54117 57.0577 10.9905C57.5518 11.8526 57.8725 12.6188 58.0449 13.2286C62.9414 21.7581 63.3758 29.1556 62.9809 31.7882C61.5593 34.1575 59.0979 37.514 58.0449 38.8961L69.694 43.2398L75.0249 52.717C77.3942 47.0307 77.1968 33.4993 76.8019 27.4444C69.694 23.693 64.7579 24.6803 65.3502 24.0879C65.8241 23.6141 63.9681 19.6784 62.9809 17.7698C67.7195 17.7698 77.8549 21.3237 82.3302 23.1007C84.5416 40.3177 80.7507 55.547 78.5788 61.0096C81.2641 62.905 81.6721 67.591 81.5405 69.6971C80.1584 75.028 70.0888 82.3333 64.7579 86.6771V62.7866C64.5999 61.5229 63.5074 61.0754 62.9809 61.0096H51.9242V69.6971H30.7979V61.0096H20.9258C19.3462 61.0096 18.6881 62.3259 18.5565 62.984V86.8745C5.1304 76.9234 2.16877 72.5929 2.36621 71.6715C0.786669 67.4067 3.02435 62.7866 4.34063 61.0096C-0.555932 49.7949 -0.332164 31.0642 0.39179 23.1007C5.76221 20.8894 15.9239 18.6254 20.3334 17.7698C19.2278 18.8755 18.2932 22.4426 17.9641 24.0879L6.31505 27.4444C4.73551 36.6058 6.97319 48.1101 8.28947 52.717L13.0281 43.2398L25.072 38.8961C23.3346 37.0006 21.189 33.3677 20.3334 31.7882C19.2278 24.9962 23.0318 16.5851 25.072 13.2286Z" fill="#1178F2"/>
</svg>
