<svg width="567" height="543" viewBox="0 0 567 543" fill="none" xmlns="http://www.w3.org/2000/svg">
<path d="M221.004 13.1921L87.543 184.904L446.468 96.5418L246.55 6.84679C242.194 4.88918 237.298 4.45081 232.658 5.60316C228.019 6.75552 223.911 9.43061 221.004 13.1921Z" fill="#EBEBEB"/>
<path d="M85.6504 186.125L220.416 12.7614C223.421 8.86304 227.677 6.0942 232.483 4.9106C237.289 3.72701 242.359 4.19919 246.858 6.24944L448.754 96.8192L85.6504 186.125ZM237.773 5.62463C234.638 5.62673 231.546 6.3473 228.739 7.72994C225.932 9.11259 223.486 11.1198 221.593 13.5944L89.4219 183.696L444.225 96.3471L246.255 7.48518C243.59 6.29499 240.697 5.68424 237.773 5.69405V5.62463Z" fill="#E0E0E0"/>
<path d="M87.5332 184.91L447.722 96.2395L496.249 289.559C497.209 293.387 496.596 297.435 494.542 300.815C492.489 304.194 489.164 306.627 485.299 307.578L154.255 389.074C150.39 390.025 146.302 389.417 142.89 387.384C139.478 385.35 137.021 382.057 136.06 378.23L87.5332 184.91Z" fill="#F0F0F0"/>
<path d="M425.55 106.83L300.768 233.083L112.164 191.04L90.5863 91.9729C89.3922 86.8627 90.2736 81.4925 93.0405 77.02C95.8075 72.5474 100.238 69.3308 105.378 68.0635L378.217 0.903258C380.789 0.2678 383.463 0.140961 386.085 0.530002C388.706 0.919044 391.225 1.81633 393.496 3.17049C395.767 4.52465 397.747 6.30911 399.321 8.42171C400.895 10.5343 402.032 12.9336 402.669 15.4822L425.55 106.83Z" fill="white"/>
<path d="M283.634 223.156L135.451 376.498C135.974 378.583 136.907 380.546 138.197 382.274C139.486 384.002 141.107 385.462 142.966 386.57C144.826 387.677 146.887 388.411 149.033 388.73C151.179 389.048 153.367 388.944 155.472 388.425L483.973 307.547C488.223 306.5 491.879 303.825 494.137 300.109C496.396 296.394 497.072 291.942 496.017 287.733L495.708 286.511L301.945 218.824C298.796 217.721 295.392 217.544 292.143 218.312C288.895 219.081 285.94 220.763 283.634 223.156Z" fill="#E0E0E0"/>
<path d="M236.292 82.6893L129.555 108.985L132.266 119.778L239.003 93.4819L236.292 82.6893Z" fill="#E0E0E0"/>
<path d="M373.249 78.0045L136.426 136.349L139.489 148.543L376.312 90.1985L373.249 78.0045Z" fill="#E0E0E0"/>
<path d="M380.739 107.796L143.916 166.14L146.979 178.334L383.802 119.99L380.739 107.796Z" fill="#E0E0E0"/>
<path d="M385.718 147.275L378.302 154.62L179.491 206.091L153.511 200.079L152.529 197.288L388.593 139.139L389.616 143.179L385.718 147.275Z" fill="#E0E0E0"/>
<path d="M334.867 198.58L245.304 220.629L217.922 214.436L351.776 181.46L334.867 198.58Z" fill="#E0E0E0"/>
<path d="M278.221 228.738C278.221 228.738 278.123 228.891 277.885 229.155L276.819 230.307L272.697 234.681L257.429 250.69C244.502 264.172 226.583 282.805 206.744 303.23C186.905 323.654 168.679 341.982 155.387 355.117C148.742 361.684 143.33 366.988 139.572 370.612L135.24 374.777L134.09 375.846C133.97 375.979 133.834 376.096 133.684 376.194C133.787 376.049 133.905 375.914 134.034 375.791L135.128 374.666L139.334 370.404L154.995 354.756C168.188 341.524 186.317 323.154 206.198 302.716C226.079 282.278 244.053 263.839 257.022 250.329L272.445 234.487L276.651 230.21L277.772 229.113C278.081 228.849 278.221 228.738 278.221 228.738Z" fill="#FAFAFA"/>
<path d="M495.708 286.483C495.638 286.678 454.32 272.474 403.425 254.757C352.531 237.04 311.325 222.517 311.395 222.322C311.465 222.128 352.783 236.318 403.678 254.035C454.572 271.752 495.778 286.275 495.708 286.483Z" fill="#FAFAFA"/>
<path d="M431.481 100.748C431.403 100.872 431.314 100.988 431.214 101.095L430.429 102.053L427.106 105.705L414.726 119.02C404.239 130.225 389.629 145.582 373.254 162.34C356.878 179.099 341.763 194.053 330.799 204.8L317.746 217.463L314.157 220.864L313.218 221.739C312.993 221.934 312.881 222.031 312.867 222.017C312.956 221.898 313.055 221.787 313.162 221.684L314.045 220.753L317.536 217.254L330.407 204.425C341.287 193.581 356.247 178.558 372.623 161.813C388.999 145.068 403.664 129.823 414.264 118.715L426.812 105.566L430.247 102.012L431.158 101.095C431.251 100.967 431.359 100.85 431.481 100.748Z" fill="#FAFAFA"/>
<path d="M278.222 228.737C278.056 228.728 277.891 228.7 277.731 228.654L276.329 228.321L270.721 226.932C265.926 225.738 258.958 224.058 250.335 222.059C233.104 218.018 209.199 212.811 182.784 207.146C156.37 201.482 132.479 196.191 115.276 192.012C106.667 189.929 99.7128 188.18 94.9318 186.903L89.4217 185.417L88.0197 185.014C87.8541 184.98 87.6938 184.924 87.543 184.848L88.0337 184.945L89.4357 185.264L95.0439 186.653C99.853 187.847 106.821 189.513 115.444 191.526C132.675 195.567 156.566 200.773 182.995 206.438C209.423 212.103 233.3 217.393 250.503 221.573C259.112 223.655 266.066 225.391 270.847 226.682L276.343 228.168L277.745 228.57L278.222 228.737Z" fill="#FAFAFA"/>
<path d="M425.55 106.83C425.55 106.83 425.41 106.372 425.172 105.441L424.148 101.512C423.251 98.027 421.947 92.9313 420.264 86.3639L406.146 30.6586C405.398 27.715 404.636 24.702 403.86 21.6196C403.482 20.0923 403.089 18.5233 402.683 16.9544C402.486 16.1629 402.29 15.3715 402.038 14.6079C401.818 13.8282 401.537 13.0668 401.197 12.3308C399.807 9.21583 397.621 6.51343 394.855 4.49009C392.089 2.46676 388.838 1.19236 385.423 0.792601C383.651 0.549787 381.854 0.549787 380.082 0.792601C378.315 1.09806 376.52 1.58403 374.712 2.01445L363.706 4.79139L340.698 10.4147L238.475 35.6848L136.125 60.8438L113.145 66.481L107.537 67.8695C105.717 68.244 103.934 68.7784 102.209 69.4662C98.883 70.894 96.0133 73.1935 93.9091 76.117C92.8908 77.5377 92.0615 79.0824 91.4415 80.7128C90.8634 82.3235 90.4821 83.997 90.3058 85.6974C89.8992 89.0992 90.8526 92.376 91.5256 95.6111C92.9277 102.091 94.269 108.297 95.5495 114.23C100.667 137.959 104.803 157.148 107.663 170.436C109.065 177.073 110.173 182.21 110.93 185.709C111.281 187.444 111.561 188.777 111.757 189.694C111.953 190.61 112.01 191.082 112.01 191.082C112.01 191.082 111.883 190.624 111.673 189.694C111.463 188.763 111.168 187.458 110.776 185.737C109.991 182.224 108.855 177.086 107.383 170.463C104.453 157.19 100.232 138.001 95.0167 114.314C93.7268 108.385 92.3528 102.179 90.9368 95.6944C90.2638 92.5009 89.2823 89.1131 89.703 85.6002C89.8641 83.8419 90.2505 82.1109 90.8526 80.449C91.4932 78.7666 92.3458 77.1711 93.3903 75.7005C94.4526 74.2036 95.7222 72.8621 97.1619 71.7156C98.6034 70.5253 100.214 69.5521 101.943 68.8275C103.697 68.1185 105.513 67.5701 107.369 67.1891L112.977 65.8007L135.999 60.1635L238.348 34.9489L340.698 9.78988L363.678 4.1527L374.684 1.45907C376.492 1.01476 378.259 0.542677 380.11 0.223329C382.812 -0.176432 385.568 -0.0385094 388.216 0.629027C390.865 1.29656 393.352 2.48031 395.532 4.11104C398.307 6.19104 400.498 8.9394 401.898 12.0947C402.249 12.853 402.54 13.6376 402.767 14.4412C403.019 15.2327 403.216 16.0241 403.412 16.8155C403.804 18.3845 404.183 19.9535 404.576 21.4947C405.347 24.5771 406.09 27.59 406.833 30.5336L420.713 86.3361C422.325 92.9175 423.587 98.027 424.443 101.512C424.863 103.248 425.186 104.567 425.396 105.469C425.606 106.372 425.55 106.83 425.55 106.83Z" fill="#E0E0E0"/>
<path d="M566.428 542.197C566.428 542.406 439.627 542.572 283.214 542.572C126.801 542.572 0 542.42 0 542.197C0 541.975 126.787 541.809 283.214 541.809C439.641 541.809 566.428 542.003 566.428 542.197Z" fill="#263238"/>
<path d="M268.789 33.5461L254.923 44.0013L255.596 63.9674L242.907 53.9843L235.897 59.927L209.258 27.3535L268.789 33.5461Z" fill="black"/>
<path d="M249.706 48.25C249.706 48.8609 255.595 63.9675 255.595 63.9675L242.906 53.9844L249.706 48.25Z" fill="black"/>
<g opacity="0.3">
<path d="M249.706 48.25C249.706 48.8609 255.595 63.9675 255.595 63.9675L242.906 53.9844L249.706 48.25Z" fill="black"/>
</g>
<path d="M209.258 27.3535L249.707 48.25L255.596 63.9674L254.923 44.0013L209.258 27.3535Z" fill="black"/>
<path opacity="0.1" d="M209.258 27.3535L249.707 48.25L255.596 63.9674L254.923 44.0013L209.258 27.3535Z" fill="black"/>
<path d="M321.421 296.744C318.928 296.663 316.48 296.072 314.229 295.009C316.721 295.09 319.17 295.681 321.421 296.744Z" fill="#263238"/>
<path d="M332.889 299.521C332.889 299.729 331.838 299.66 330.66 299.382C329.482 299.104 328.557 298.688 328.599 298.48C328.641 298.271 329.651 298.341 330.842 298.632C332.034 298.924 332.945 299.313 332.889 299.521Z" fill="#263238"/>
<path d="M285.558 61.3578C284.314 61.3757 283.077 61.1832 281.898 60.7885C280.663 60.6383 279.466 60.2666 278.365 59.6916C279.615 59.529 280.886 59.6525 282.081 60.0526C283.329 60.2041 284.522 60.6518 285.558 61.3578Z" fill="#263238"/>
<path d="M299.129 67.1186C296.777 66.3543 294.552 65.2501 292.525 63.8418C293.777 63.9596 294.983 64.3688 296.045 65.0359C297.881 65.9523 299.241 66.9381 299.129 67.1186Z" fill="#263238"/>
<path d="M310.891 75.9504C310.737 76.1031 309.489 75.0618 307.919 73.7566C306.349 72.4514 305.115 71.3407 305.297 71.1602C306.493 71.5785 307.573 72.2679 308.452 73.1734C309.98 74.5064 311.046 75.8115 310.891 75.9504Z" fill="#263238"/>
<path d="M319.865 87.543C319.669 87.6402 318.743 86.2934 317.622 84.6272C316.836 83.6724 316.22 82.5926 315.799 81.4338C315.953 81.3088 317.131 82.5029 318.266 84.2107C319.058 85.1807 319.606 86.3227 319.865 87.543Z" fill="#263238"/>
<path d="M324.954 101.247C324.352 100.17 323.935 99.0016 323.72 97.7895C323.252 96.645 322.991 95.4277 322.949 94.1934C323.707 95.1928 324.22 96.3524 324.449 97.5812C324.921 98.7431 325.094 100.002 324.954 101.247Z" fill="#263238"/>
<path d="M325.711 115.827C325.461 114.621 325.409 113.384 325.557 112.161C325.451 110.934 325.565 109.698 325.893 108.51C326.321 109.682 326.47 110.937 326.328 112.175C326.416 113.424 326.205 114.675 325.711 115.827Z" fill="#263238"/>
<path d="M321.885 129.905C322.036 128.686 322.386 127.5 322.922 126.393C323.208 125.202 323.681 124.063 324.324 123.019C324.393 124.27 324.137 125.517 323.581 126.642C323.296 127.852 322.713 128.973 321.885 129.905Z" fill="#263238"/>
<path d="M313.317 141.763C313.177 141.596 314.27 140.374 315.602 138.875C316.934 137.375 318 136.098 318.182 136.251C317.784 137.44 317.095 138.513 316.177 139.375C314.817 140.93 313.457 141.916 313.317 141.763Z" fill="#263238"/>
<path d="M300.953 149.651C301.9 148.857 302.97 148.22 304.122 147.762C305.157 147.082 306.299 146.576 307.501 146.263C306.686 147.223 305.646 147.972 304.472 148.443C303.418 149.127 302.209 149.542 300.953 149.651Z" fill="#263238"/>
<path d="M286.566 152.719C287.739 152.292 288.976 152.062 290.226 152.039C291.439 151.763 292.689 151.683 293.927 151.803C292.827 152.421 291.589 152.759 290.324 152.789C289.086 153.082 287.793 153.058 286.566 152.719Z" fill="#263238"/>
<path d="M272.125 150.011C274.522 150.505 276.869 151.216 279.135 152.135C277.879 152.29 276.603 152.118 275.434 151.635C274.206 151.391 273.065 150.83 272.125 150.011Z" fill="#263238"/>
<path d="M261.891 139.957C262.101 139.888 262.746 141.346 263.896 142.984C265.045 144.623 266.153 145.761 265.999 145.97C265.844 146.178 264.47 145.136 263.265 143.429C262.416 142.463 261.931 141.237 261.891 139.957Z" fill="#263238"/>
<path d="M268.116 128.587C268.116 128.809 266.588 129.295 264.99 130.42C263.391 131.545 262.536 132.947 262.34 132.836C262.143 132.725 262.76 131.059 264.541 129.809C265.532 128.966 266.811 128.529 268.116 128.587Z" fill="#263238"/>
<path d="M280.791 133.793C280.595 133.904 279.697 132.544 278.239 131.211C276.781 129.878 275.295 129.211 275.435 129.003C276.737 129.105 277.951 129.696 278.828 130.655C279.835 131.44 280.53 132.551 280.791 133.793Z" fill="#263238"/>
<path d="M281.268 147.97C281.372 146.76 281.602 145.564 281.955 144.402C282.059 143.187 282.29 141.987 282.642 140.819C283.018 142.032 283.018 143.328 282.642 144.54C282.545 145.795 282.066 146.991 281.268 147.97Z" fill="#263238"/>
<path d="M271.663 158.869C271.537 158.689 272.813 157.647 274.341 156.356C275.869 155.065 277.145 153.954 277.243 154.093C277.341 154.232 276.43 155.592 274.846 156.87C273.261 158.147 271.775 159.05 271.663 158.869Z" fill="#263238"/>
<path d="M258.553 165.616C259.48 164.785 260.568 164.147 261.749 163.742C262.828 163.112 264.026 162.71 265.269 162.562C263.269 164.032 260.982 165.072 258.553 165.616Z" fill="#263238"/>
<path d="M245.36 172.255C245.248 172.074 246.58 171.088 248.346 170.033C249.377 169.321 250.556 168.846 251.796 168.645C251.908 168.853 250.478 169.7 248.725 170.699C247.724 171.442 246.578 171.972 245.36 172.255Z" fill="#263238"/>
<path d="M234.145 181.806C233.991 181.667 234.958 180.307 236.43 178.877C237.242 177.924 238.264 177.169 239.417 176.669C239.557 176.836 238.421 178.057 236.977 179.446C235.533 180.834 234.369 181.945 234.145 181.806Z" fill="#263238"/>
<path d="M225.73 193.775C225.966 192.55 226.484 191.395 227.245 190.401C228.324 188.665 229.432 187.416 229.6 187.541C229.236 188.72 228.662 189.825 227.904 190.804C226.838 192.512 225.927 193.872 225.73 193.775Z" fill="#263238"/>
<path d="M220.349 207.382C220.277 206.138 220.508 204.895 221.022 203.758C221.286 202.537 221.838 201.395 222.634 200.426C222.224 202.839 221.453 205.179 220.349 207.368V207.382Z" fill="#263238"/>
<path d="M218.412 221.877C217.903 219.442 218.078 216.916 218.917 214.573C219.13 215.786 219.13 217.026 218.917 218.239C218.965 219.471 218.794 220.703 218.412 221.877Z" fill="#263238"/>
<path d="M220.348 236.359C219.719 235.286 219.323 234.094 219.185 232.86C218.773 231.679 218.667 230.413 218.876 229.181C219.419 230.292 219.779 231.483 219.942 232.707C220.33 233.884 220.469 235.127 220.348 236.359Z" fill="#263238"/>
<path d="M226.054 249.828C225.872 249.939 224.877 248.606 223.965 246.773C223.289 245.719 222.88 244.519 222.773 243.274C223.581 244.213 224.217 245.285 224.652 246.44C225.317 247.479 225.791 248.626 226.054 249.828Z" fill="#263238"/>
<path d="M234.915 261.533C234.775 261.672 233.513 260.616 232.111 259.061C231.208 258.19 230.518 257.126 230.092 255.951C230.274 255.812 231.382 257.034 232.7 258.562C234.018 260.089 235.069 261.38 234.915 261.533Z" fill="#263238"/>
<path d="M246.301 270.836C245.082 270.512 243.958 269.908 243.02 269.072C241.365 267.878 240.216 266.684 240.328 266.518C241.485 266.979 242.553 267.637 243.482 268.461C245.109 269.642 246.413 270.655 246.301 270.836Z" fill="#263238"/>
<path d="M259.62 277.14C258.358 277.131 257.117 276.822 256.002 276.237C254.787 275.901 253.674 275.271 252.764 274.404C253.991 274.584 255.181 274.964 256.283 275.529C257.474 275.887 258.601 276.431 259.62 277.14Z" fill="#263238"/>
<path d="M267.035 279.013C267.035 279.207 266.909 279.374 266.839 279.36C266.769 279.346 266.741 279.166 266.839 278.957C266.937 278.749 266.965 278.596 267.035 278.61C267.105 278.624 267.077 278.805 267.035 279.013Z" fill="#263238"/>
<path d="M256.316 242.652L240.984 237.666L237.852 247.111L253.184 252.097L256.316 242.652Z" fill="black"/>
<g opacity="0.3">
<path d="M256.316 242.651L240.984 237.665L237.852 247.11L253.184 252.096L256.316 242.651Z" fill="black"/>
</g>
<path d="M256.281 242.677C253.415 244.101 250.443 245.308 247.392 246.287L247.126 246.384L246.958 246.162L246.691 245.829C244.564 243.268 242.647 240.542 240.957 237.679C243.268 240.079 245.391 242.651 247.308 245.371L247.561 245.704L247.126 245.579C250.094 244.37 253.156 243.399 256.281 242.677Z" fill="black"/>
<g opacity="0.1">
<path d="M256.283 242.677C253.417 244.101 250.445 245.308 247.394 246.287L247.128 246.384L246.96 246.162L246.693 245.829C244.566 243.268 242.649 240.542 240.959 237.679C243.27 240.079 245.393 242.651 247.31 245.371L247.563 245.704L247.128 245.579C250.096 244.37 253.158 243.399 256.283 242.677Z" fill="black"/>
</g>
<path d="M245.36 243.469C244.305 244.409 243.083 245.148 241.757 245.649C240.535 246.366 239.197 246.868 237.803 247.134C238.867 246.2 240.093 245.461 241.42 244.954C242.638 244.241 243.971 243.738 245.36 243.469Z" fill="black"/>
<g opacity="0.1">
<path d="M245.36 243.469C244.305 244.409 243.083 245.148 241.757 245.649C240.535 246.366 239.197 246.868 237.803 247.134C238.867 246.2 240.093 245.461 241.42 244.954C242.638 244.241 243.971 243.738 245.36 243.469Z" fill="black"/>
</g>
<path d="M253.422 252.203C252.564 251.155 251.899 249.966 251.459 248.69C250.534 246.621 249.917 244.844 250.197 244.871C251.057 245.92 251.726 247.108 252.174 248.384C252.827 249.569 253.25 250.864 253.422 252.203Z" fill="black"/>
<g opacity="0.1">
<path d="M253.422 252.203C252.564 251.155 251.899 249.966 251.459 248.69C250.534 246.621 249.917 244.844 250.197 244.871C251.057 245.92 251.726 247.108 252.174 248.384C252.827 249.569 253.25 250.864 253.422 252.203Z" fill="black"/>
</g>
<path d="M318.837 279.652L279.408 266.829L271.35 291.128L310.78 303.951L318.837 279.652Z" fill="black"/>
<path d="M318.8 279.679C318.239 279.999 317.647 280.264 317.034 280.47L312.127 282.373C307.921 283.942 302.186 286.08 295.723 288.426L295.456 288.524L295.288 288.301L294.629 287.441C290.339 281.887 286.469 276.708 283.707 272.973L280.412 268.544C279.992 268.013 279.621 267.446 279.305 266.85C279.819 267.31 280.288 267.816 280.707 268.363L284.142 272.653C287.016 276.291 290.942 281.359 295.246 286.982L295.905 287.829L295.47 287.704C301.92 285.372 307.738 283.317 311.944 281.873L316.936 280.193C317.54 279.964 318.164 279.792 318.8 279.679Z" fill="black"/>
<g opacity="0.2">
<path d="M318.8 279.679C318.239 279.999 317.647 280.264 317.034 280.47L312.127 282.373C307.921 283.942 302.186 286.08 295.723 288.426L295.456 288.524L295.288 288.301L294.629 287.441C290.339 281.887 286.469 276.708 283.707 272.973L280.412 268.544C279.992 268.013 279.621 267.446 279.305 266.85C279.819 267.31 280.288 267.816 280.707 268.363L284.142 272.653C287.016 276.291 290.942 281.359 295.246 286.982L295.905 287.829L295.47 287.704C301.92 285.372 307.738 283.317 311.944 281.873L316.936 280.193C317.54 279.964 318.164 279.792 318.8 279.679Z" fill="black"/>
</g>
<path d="M290.759 281.748C287.693 283.645 284.498 285.329 281.197 286.788C278.007 288.464 274.704 289.921 271.312 291.148C274.366 289.235 277.557 287.545 280.86 286.094C284.048 284.407 287.357 282.955 290.759 281.748Z" fill="black"/>
<g opacity="0.2">
<path d="M290.759 281.748C287.693 283.645 284.498 285.329 281.197 286.788C278.007 288.464 274.704 289.921 271.312 291.148C274.366 289.235 277.557 287.545 280.86 286.094C284.048 284.407 287.357 282.955 290.759 281.748Z" fill="black"/>
</g>
<path d="M311.454 304.2C309.729 301.221 308.225 298.121 306.953 294.925C305.456 291.824 304.19 288.617 303.168 285.331C304.895 288.314 306.399 291.419 307.669 294.62C309.168 297.716 310.433 300.919 311.454 304.2Z" fill="black"/>
<g opacity="0.2">
<path d="M311.454 304.2C309.729 301.221 308.225 298.121 306.953 294.925C305.456 291.824 304.19 288.617 303.168 285.331C304.895 288.314 306.399 291.419 307.669 294.62C309.168 297.716 310.433 300.919 311.454 304.2Z" fill="black"/>
</g>
<path d="M281.534 272.835C280.553 273.548 279.38 273.957 278.164 274.01C276.948 274.063 275.744 273.758 274.703 273.133C273.662 272.509 272.832 271.592 272.317 270.5C271.802 269.408 271.625 268.19 271.809 266.998C271.993 265.807 272.53 264.696 273.351 263.807C274.173 262.917 275.242 262.289 276.424 262.001C277.606 261.714 278.847 261.779 279.992 262.19C281.136 262.601 282.131 263.339 282.852 264.31C283.331 264.955 283.677 265.688 283.87 266.466C284.063 267.243 284.1 268.051 283.977 268.843C283.855 269.635 283.576 270.395 283.157 271.08C282.738 271.765 282.186 272.361 281.534 272.835Z" fill="#263238"/>
<path d="M281.815 266.794C280.512 267.753 279.128 268.599 277.679 269.322L276.697 269.863L276.515 269.96L276.417 269.794C275.753 268.751 275.19 267.65 274.734 266.503C275.516 267.465 276.197 268.502 276.767 269.599L276.501 269.516L277.482 268.961C278.86 268.115 280.31 267.39 281.815 266.794Z" fill="white"/>
<path d="M293.51 246.912L272.85 240.193L268.628 252.923L289.289 259.642L293.51 246.912Z" fill="black"/>
<g opacity="0.2">
<path d="M293.508 246.911L272.848 240.192L268.626 252.922L289.287 259.641L293.508 246.911Z" fill="black"/>
</g>
<path d="M293.464 246.926C293.177 247.097 292.871 247.237 292.553 247.343L289.973 248.342C287.8 249.162 284.772 250.286 281.379 251.508H281.238L281.154 251.383L280.818 250.939C278.561 247.995 276.612 245.316 275.083 243.358L273.401 241.095C273.184 240.815 272.992 240.518 272.826 240.206C273.086 240.446 273.321 240.711 273.527 240.997L275.336 243.247C276.836 245.149 278.897 247.801 281.14 250.745L281.491 251.203H281.267C284.645 249.981 287.688 248.898 289.903 248.148L292.511 247.273C292.815 247.122 293.134 247.006 293.464 246.926Z" fill="black"/>
<g opacity="0.2">
<path d="M293.464 246.926C293.177 247.097 292.871 247.237 292.553 247.343L289.973 248.342C287.8 249.162 284.772 250.286 281.379 251.508H281.238L281.154 251.383L280.818 250.939C278.561 247.995 276.612 245.316 275.083 243.358L273.401 241.095C273.184 240.815 272.992 240.518 272.826 240.206C273.086 240.446 273.321 240.711 273.527 240.997L275.336 243.247C276.836 245.149 278.897 247.801 281.14 250.745L281.491 251.203H281.267C284.645 249.981 287.688 248.898 289.903 248.148L292.511 247.273C292.815 247.122 293.134 247.006 293.464 246.926Z" fill="black"/>
</g>
<path d="M278.785 248.009C277.178 248.998 275.506 249.879 273.779 250.647C272.105 251.526 270.372 252.292 268.592 252.938C270.192 251.933 271.865 251.047 273.597 250.286C275.269 249.404 277.002 248.643 278.785 248.009Z" fill="black"/>
<g opacity="0.2">
<path d="M278.785 248.009C277.178 248.998 275.506 249.879 273.779 250.647C272.105 251.526 270.372 252.292 268.592 252.938C270.192 251.933 271.865 251.047 273.597 250.286C275.269 249.404 277.002 248.643 278.785 248.009Z" fill="black"/>
</g>
<path d="M289.624 259.77C288.719 258.209 287.932 256.585 287.268 254.91C286.489 253.282 285.824 251.602 285.277 249.884C286.978 253.065 288.431 256.37 289.624 259.77Z" fill="black"/>
<g opacity="0.2">
<path d="M289.624 259.77C288.719 258.209 287.932 256.585 287.268 254.91C286.489 253.282 285.824 251.602 285.277 249.884C286.978 253.065 288.431 256.37 289.624 259.77Z" fill="black"/>
</g>
<path d="M127.588 87.5708C126.162 93.1279 123.104 98.1415 118.801 101.978C114.498 105.814 109.144 108.301 103.414 109.123C97.6839 109.946 91.8364 109.067 86.6107 106.599C81.3851 104.13 77.0158 100.182 74.0555 95.255C71.0952 90.3275 69.6768 84.6414 69.9795 78.9156C70.2823 73.1898 72.2926 67.6815 75.7564 63.0872C79.2202 58.4928 83.9819 55.0188 89.4393 53.1043C94.8967 51.1898 100.805 50.9209 106.417 52.3315C113.941 54.2268 120.398 59.0033 124.368 65.6112C128.338 72.2191 129.496 80.1177 127.588 87.5708Z" fill="#263238"/>
<path d="M110.02 64.7167C110.538 64.925 107.216 74.6304 102.589 86.4046C101.902 88.1124 101.187 89.7508 100.612 91.3614L100.261 92.2361L99.3781 91.9029C89.8862 88.279 82.9461 85.2938 83.1143 84.8634C83.2826 84.4329 90.4891 86.6823 100.051 90.1118L98.8173 90.6672C99.4342 89.0565 100.079 87.4043 100.738 85.6964C105.351 73.9084 109.515 64.564 110.02 64.7167Z" fill="white"/>
<path d="M487.423 497.891C492.668 495.451 498.565 494.741 504.248 495.864C507.304 496.363 510.487 497.252 512.576 499.529C514.665 501.806 515.044 505.805 512.66 507.763C511.117 508.785 509.265 509.251 507.416 509.082C502.958 509.082 498.023 508.249 494.461 510.901C492.429 512.414 491.083 514.927 488.657 515.677C487.444 515.951 486.173 515.828 485.036 515.328C483.899 514.827 482.956 513.976 482.348 512.9C481.192 510.691 480.936 508.126 481.633 505.736C481.92 504.074 482.593 502.501 483.598 501.14C484.602 499.779 485.912 498.667 487.423 497.891Z" fill="black"/>
<g opacity="0.2">
<path d="M487.421 497.891C492.666 495.451 498.563 494.741 504.246 495.864C507.302 496.363 510.485 497.252 512.574 499.529C514.663 501.806 515.042 505.805 512.658 507.763C511.115 508.785 509.263 509.251 507.414 509.082C502.956 509.082 498.021 508.249 494.46 510.901C492.427 512.414 491.081 514.927 488.655 515.677C487.442 515.951 486.171 515.828 485.034 515.328C483.897 514.827 482.954 513.976 482.346 512.9C481.19 510.691 480.934 508.126 481.631 505.736C481.918 504.074 482.591 502.501 483.596 501.14C484.6 499.779 485.91 498.667 487.421 497.891Z" fill="white"/>
</g>
<path d="M475.687 475.454C478.827 479.883 484.912 478.411 487.73 475.704C490.549 472.996 491.754 469.081 492.834 465.346C495.316 456.807 497.811 447.851 495.975 439.159C495.521 436.526 494.353 434.063 492.596 432.037C491.701 431.04 490.559 430.293 489.282 429.872C488.004 429.45 486.638 429.368 485.319 429.634C482.248 430.44 480.342 433.425 478.968 436.257C474.907 444.621 472.776 453.775 472.729 463.055C472.729 467.373 473.233 471.899 475.687 475.468" fill="black"/>
<path d="M467.093 481.813C470.486 477.815 471.131 471.983 469.617 466.971C467.899 461.998 464.834 457.589 460.756 454.225C456.113 450.164 450.718 447.033 444.871 445.005C442.603 444.098 440.164 443.685 437.72 443.797C436.501 443.869 435.317 444.234 434.271 444.861C433.226 445.487 432.35 446.357 431.72 447.393C430.051 450.545 431.65 454.336 433.388 457.501C436.445 463.011 439.933 468.276 443.819 473.247C446.946 477.232 450.535 481.175 455.302 482.966C460.069 484.757 465.018 484.563 467.542 481.286" fill="black"/>
<g opacity="0.1">
<path d="M467.093 481.813C470.486 477.815 471.131 471.983 469.617 466.971C467.899 461.998 464.834 457.589 460.756 454.225C456.113 450.164 450.718 447.033 444.871 445.005C442.603 444.098 440.164 443.685 437.72 443.797C436.501 443.869 435.317 444.234 434.271 444.861C433.226 445.487 432.35 446.357 431.72 447.393C430.051 450.545 431.65 454.336 433.388 457.501C436.445 463.011 439.933 468.276 443.819 473.247C446.946 477.232 450.535 481.175 455.302 482.966C460.069 484.757 465.018 484.563 467.542 481.286" fill="black"/>
</g>
<path d="M475.477 542.282C475.64 541.622 475.734 540.947 475.757 540.269C475.911 538.797 476.08 536.964 476.304 534.715C476.579 532.011 476.995 529.323 477.552 526.662C478.277 523.417 479.266 520.237 480.51 517.151C481.727 514.066 483.379 511.168 485.417 508.542C487.072 506.402 489.189 504.656 491.614 503.433C493.258 502.631 495.018 502.088 496.83 501.822C497.511 501.799 498.188 501.706 498.849 501.544C498.169 501.462 497.482 501.462 496.802 501.544C494.915 501.684 493.069 502.154 491.348 502.933C488.801 504.132 486.565 505.894 484.815 508.084C482.691 510.745 480.976 513.702 479.725 516.859C478.466 520.009 477.486 523.261 476.795 526.578C476.267 529.271 475.906 531.993 475.715 534.729C475.533 537.061 475.463 538.894 475.435 540.283C475.38 540.949 475.394 541.619 475.477 542.282Z" fill="#263238"/>
<path d="M475.856 538.033C475.898 537.724 475.898 537.412 475.856 537.103V534.437C475.856 532.118 475.856 528.758 475.968 524.621C476.179 516.29 476.894 504.89 478.296 492.325C479.698 479.759 481.548 468.443 483.245 460.39C483.638 458.363 484.044 456.53 484.423 454.933C484.801 453.337 485.096 451.934 485.39 450.768C485.685 449.602 485.853 448.852 486.021 448.172C486.116 447.87 486.173 447.557 486.189 447.241C486.047 447.519 485.939 447.813 485.867 448.116L485.082 450.685C484.731 451.795 484.381 453.17 483.974 454.767C483.567 456.363 483.105 458.182 482.656 460.223C480.369 470.789 478.651 481.467 477.511 492.214C476.109 504.807 475.492 516.276 475.436 524.579C475.436 528.744 475.436 532.091 475.576 534.409C475.641 535.492 475.697 536.381 475.744 537.075C475.75 537.397 475.788 537.718 475.856 538.033Z" fill="#263238"/>
<path d="M475.913 515.928C475.989 515.003 475.989 514.075 475.913 513.151C475.755 510.62 475.465 508.099 475.044 505.597C473.65 497.328 471.258 489.254 467.921 481.549C464.699 473.761 460.072 466.618 454.265 460.472C453.261 459.418 452.189 458.43 451.054 457.515C450.564 457.098 450.129 456.696 449.652 456.362L448.419 455.515C447.664 454.952 446.867 454.446 446.035 454.002C448.768 456.134 451.366 458.429 453.817 460.875C459.429 467.072 463.934 474.172 467.136 481.868C468.977 486.067 470.536 490.38 471.805 494.781C473.025 498.822 473.838 502.543 474.455 505.681C475.072 508.819 475.366 511.387 475.576 513.165C475.622 514.092 475.734 515.016 475.913 515.928Z" fill="#263238"/>
<path d="M262.674 332.887H321.378L344.624 268.573H341.371L318.321 329.749L262.674 330.068V332.887Z" fill="#455A64"/>
<path d="M236.736 341.008L238.909 542.461H244.882L242.457 339.522L236.736 341.008Z" fill="#263238"/>
<path d="M362.388 339.051C361.589 342.897 367.772 542.92 367.772 542.92H373.38L368.823 339.051H362.388Z" fill="#263238"/>
<path d="M431.017 332.887H181.41V343.078H202.006L188.603 541.81L194.463 542.129L207.881 343.078H410.015L419.815 542.212H425.689L415.889 343.078H431.017V332.887Z" fill="#263238"/>
<path d="M290.225 534.88V519.607L261.328 519.315L261.006 541.67L262.8 541.795C270.764 542.322 303.348 543.877 308.69 542.336C314.634 540.615 290.225 534.88 290.225 534.88Z" fill="black"/>
<path d="M271.464 541.545C271.067 539.126 269.778 536.94 267.847 535.408C265.952 533.887 263.553 533.12 261.117 533.256L261.033 541.253L271.464 541.545Z" fill="#F5F5F5"/>
<path d="M302.114 538.102C302.114 538.102 310.695 540.656 309.601 542.045C308.508 543.433 275.531 543.086 260.992 541.67V541.031L299.464 541.767C299.464 541.767 300.432 538.157 302.114 538.102Z" fill="#F5F5F5"/>
<path d="M261.09 541.003L262.492 541.114L267.736 541.392C272.167 541.6 278.294 541.794 285.065 541.878C291.837 541.961 297.978 541.878 302.409 541.78L307.666 541.628L309.069 541.558H309.559C309.396 541.537 309.231 541.537 309.069 541.558H307.666H302.409C297.978 541.558 291.837 541.558 285.079 541.558C278.322 541.558 272.181 541.308 267.75 541.17L262.492 541.003H261.09Z" fill="#263238"/>
<path d="M299.508 542.196C299.746 541.336 300.085 540.507 300.517 539.725C301.039 538.999 301.646 538.337 302.326 537.753C301.458 538.124 300.725 538.748 300.224 539.542C299.724 540.335 299.479 541.261 299.522 542.196H299.508Z" fill="#263238"/>
<path d="M291.023 537.837C291.108 537.837 291.528 537.393 291.949 536.741C292.369 536.088 292.664 535.519 292.58 535.463C292.496 535.408 292.089 535.908 291.654 536.56C291.353 536.936 291.138 537.371 291.023 537.837Z" fill="#263238"/>
<path d="M288.697 536.644C288.767 536.713 289.23 536.422 289.735 535.977C290.24 535.533 290.59 535.13 290.52 535.061C290.45 534.992 290.001 535.283 289.496 535.714C288.992 536.144 288.641 536.519 288.697 536.644Z" fill="#263238"/>
<path d="M287.254 533.868C287.731 534.052 288.244 534.123 288.754 534.076C289.263 534.142 289.78 534.095 290.268 533.937C289.791 533.754 289.278 533.682 288.768 533.729C288.259 533.665 287.742 533.712 287.254 533.868Z" fill="#263238"/>
<path d="M286.762 531.964C287.281 532.243 287.853 532.413 288.441 532.463C289.03 532.514 289.623 532.443 290.183 532.255C289.042 532.167 287.901 532.07 286.762 531.964Z" fill="#263238"/>
<path d="M292.033 535.352C292.65 535.458 293.281 535.458 293.898 535.352C294.569 535.282 295.231 535.147 295.875 534.949C296.27 534.84 296.651 534.686 297.01 534.491C297.121 534.433 297.219 534.355 297.298 534.259C297.378 534.164 297.437 534.054 297.473 533.936C297.504 533.798 297.496 533.655 297.449 533.523C297.401 533.39 297.318 533.273 297.207 533.186C296.503 532.841 295.7 532.747 294.935 532.919C294.169 533.091 293.486 533.518 293.001 534.13C292.705 534.488 292.49 534.905 292.37 535.352C292.37 535.671 292.37 535.852 292.37 535.852C292.555 535.285 292.845 534.758 293.225 534.297C293.646 533.811 294.202 533.458 294.823 533.283C295.186 533.167 295.569 533.124 295.949 533.155C296.329 533.186 296.699 533.291 297.038 533.463C297.333 533.686 297.207 534.019 296.884 534.213C296.549 534.391 296.197 534.535 295.833 534.644C295.206 534.85 294.564 535.008 293.912 535.116C292.748 535.255 292.033 535.255 292.033 535.352Z" fill="#263238"/>
<path d="M292.51 535.45C292.744 535.067 292.829 534.613 292.748 534.173C292.697 533.678 292.529 533.203 292.258 532.784C292.104 532.508 291.881 532.275 291.611 532.108C291.342 531.94 291.033 531.843 290.715 531.826C290.526 531.863 290.359 531.973 290.251 532.132C290.143 532.291 290.103 532.485 290.141 532.673C290.179 532.964 290.279 533.243 290.435 533.492C290.683 533.897 290.975 534.274 291.304 534.617C291.584 534.952 291.946 535.21 292.356 535.367C292.356 535.367 291.991 535.034 291.486 534.45C291.194 534.108 290.94 533.736 290.729 533.34C290.477 532.951 290.309 532.243 290.729 532.173C291.15 532.104 291.669 532.59 291.949 532.965C292.198 533.324 292.37 533.731 292.454 534.159C292.523 534.586 292.542 535.019 292.51 535.45Z" fill="#263238"/>
<path d="M261.273 533.186C261.273 533.186 262.101 533.116 263.405 533.283C265.102 533.497 266.708 534.169 268.045 535.227C269.346 536.336 270.316 537.776 270.849 539.392C271.27 540.614 271.312 541.447 271.368 541.433C271.424 541.419 271.368 541.225 271.368 540.864C271.32 540.337 271.221 539.817 271.074 539.309C270.569 537.624 269.564 536.129 268.188 535.019C266.812 533.91 265.131 533.237 263.362 533.088C262.831 533.029 262.295 533.029 261.764 533.088C261.596 533.089 261.429 533.122 261.273 533.186Z" fill="#263238"/>
<path d="M264.4 521.371C264.064 525.277 263.97 529.2 264.12 533.118C264.342 531.168 264.445 529.206 264.428 527.244C264.53 525.288 264.52 523.327 264.4 521.371Z" fill="#263238"/>
<path d="M275.139 538.795C276.514 539.133 277.928 539.287 279.345 539.253C280.754 539.344 282.169 539.246 283.551 538.962C283.551 538.864 281.658 538.962 279.345 538.962C277.031 538.962 275.153 538.698 275.139 538.795Z" fill="#263238"/>
<path d="M269.475 538.726C269.475 538.796 269.629 539.129 269.811 539.559C269.993 539.99 270.106 540.365 270.204 540.365C270.302 540.365 270.358 539.907 270.134 539.421C269.909 538.935 269.545 538.657 269.475 538.726Z" fill="#263238"/>
<path d="M267.373 536.074C267.373 536.143 267.485 536.435 267.78 536.74C268.074 537.046 268.369 537.24 268.439 537.171C268.509 537.101 268.327 536.81 268.032 536.504C267.738 536.199 267.443 536.004 267.373 536.074Z" fill="#263238"/>
<path d="M264.329 534.839C264.329 534.936 264.736 534.936 265.157 535.089C265.577 535.241 265.886 535.477 265.956 535.408C266.026 535.339 265.802 534.95 265.269 534.769C264.736 534.589 264.301 534.755 264.329 534.839Z" fill="#263238"/>
<path d="M262.184 534.256C262.184 534.339 262.31 534.492 262.548 534.589C262.787 534.686 263.011 534.686 263.039 534.589C263.067 534.492 262.913 534.353 262.674 534.256C262.436 534.158 262.184 534.158 262.184 534.256Z" fill="#263238"/>
<path d="M347.038 519.469L340.701 505.515L314.244 517.025L323.231 537.519L324.914 536.908C332.401 534.131 362.769 522.287 366.975 518.705C371.728 514.706 347.038 519.469 347.038 519.469Z" fill="black"/>
<path d="M332.777 533.145C331.413 531.084 329.324 529.599 326.917 528.979C324.561 528.373 322.063 528.655 319.906 529.771L323.145 537.088L332.777 533.145Z" fill="#F5F5F5"/>
<path d="M359.277 517.525C359.277 517.525 368.152 516.345 367.689 518.067C367.226 519.789 337.068 532.896 323.23 537.506L323.02 536.908L358.379 521.899C358.379 521.899 357.762 518.261 359.277 517.525Z" fill="#F5F5F5"/>
<path d="M322.627 537.087L323.104 536.935L324.506 536.449L329.413 534.56C333.535 532.936 339.227 530.631 345.41 527.937C351.593 525.244 357.174 522.703 361.169 520.787L365.894 518.51L367.17 517.857C367.324 517.796 367.47 517.717 367.605 517.621L367.142 517.802L365.838 518.385L361.071 520.579C357.047 522.411 351.467 524.938 345.27 527.618C339.073 530.298 333.409 532.658 329.315 534.338L324.464 536.324L323.146 536.865L322.627 537.087Z" fill="#263238"/>
<path d="M358.604 522.329C358.457 521.448 358.419 520.553 358.492 519.663C358.677 518.79 358.954 517.938 359.319 517.122C358.631 517.779 358.212 518.664 358.142 519.607C357.955 520.54 358.119 521.508 358.604 522.329Z" fill="#263238"/>
<path d="M349.112 521.787C349.21 521.787 349.378 521.19 349.504 520.398C349.631 519.607 349.645 519.01 349.504 519.01C349.364 519.01 349.238 519.607 349.112 520.398C348.997 520.854 348.997 521.331 349.112 521.787Z" fill="#263238"/>
<path d="M346.42 521.607C346.504 521.607 346.798 521.176 347.079 520.579C347.359 519.982 347.5 519.454 347.415 519.413C347.331 519.371 347.037 519.829 346.756 520.44C346.476 521.051 346.308 521.565 346.42 521.607Z" fill="#263238"/>
<path d="M343.967 519.718C344.459 519.671 344.936 519.524 345.369 519.287C346.14 518.968 346.771 518.635 346.687 518.552C346.603 518.468 346 518.649 345.285 518.968C344.57 519.287 343.925 519.621 343.967 519.718Z" fill="#263238"/>
<path d="M342.732 518.176C343.323 518.272 343.928 518.19 344.471 517.94C345.046 517.8 345.564 517.491 345.957 517.052C345.403 517.192 344.864 517.383 344.345 517.621C343.791 517.755 343.251 517.941 342.732 518.176Z" fill="#263238"/>
<path d="M348.944 519.121C349.548 518.966 350.121 518.713 350.641 518.371C351.218 518.027 351.762 517.632 352.267 517.191C352.583 516.931 352.87 516.637 353.122 516.316C353.27 516.111 353.335 515.858 353.305 515.608C353.28 515.472 353.214 515.347 353.117 515.248C353.019 515.149 352.894 515.081 352.758 515.053C352.25 515.032 351.745 515.123 351.277 515.32C350.81 515.516 350.393 515.813 350.056 516.19C349.719 516.566 349.471 517.012 349.329 517.495C349.188 517.978 349.157 518.486 349.239 518.982C349.255 519.153 349.308 519.319 349.393 519.468C349.343 518.872 349.39 518.272 349.533 517.691C349.717 517.079 350.078 516.534 350.571 516.122C351.143 515.615 351.893 515.351 352.66 515.386C353.024 515.455 353.052 515.816 352.828 516.136C352.597 516.432 352.339 516.706 352.057 516.955C351.566 517.392 351.046 517.796 350.5 518.163C349.561 518.788 348.916 519.065 348.944 519.121Z" fill="#263238"/>
<path d="M349.419 519.011C349.463 518.57 349.349 518.127 349.097 517.761C348.845 517.343 348.499 516.986 348.087 516.72C347.833 516.534 347.534 516.415 347.221 516.374C346.907 516.332 346.588 516.37 346.293 516.484C346.135 516.593 346.028 516.759 345.994 516.946C345.96 517.134 346.002 517.327 346.11 517.483C346.264 517.737 346.475 517.951 346.727 518.108C347.119 518.384 347.543 518.613 347.989 518.789C348.387 518.976 348.825 519.062 349.265 519.039C349.265 519.039 348.788 518.886 348.087 518.553C347.674 518.366 347.284 518.133 346.924 517.858C346.531 517.608 346.096 517.039 346.489 516.775C346.725 516.707 346.973 516.691 347.215 516.73C347.458 516.768 347.689 516.86 347.891 516.998C348.276 517.219 348.606 517.523 348.859 517.886C349.077 518.245 349.265 518.621 349.419 519.011Z" fill="#263238"/>
<path d="M320.005 529.702C320.005 529.702 320.72 529.299 321.982 528.924C323.616 528.417 325.361 528.378 327.017 528.813C328.672 529.248 330.169 530.139 331.333 531.382C332.231 532.34 332.609 533.076 332.665 533.034C332.612 532.848 332.531 532.67 332.427 532.507C332.171 532.049 331.865 531.621 331.516 531.229C330.362 529.888 328.828 528.921 327.113 528.452C325.396 528.015 323.587 528.087 321.912 528.661C321.421 528.838 320.951 529.066 320.51 529.341C320.145 529.535 319.991 529.702 320.005 529.702Z" fill="#263238"/>
<path d="M317.916 517.579C318.511 519.474 319.227 521.329 320.061 523.133C320.788 524.959 321.617 526.743 322.543 528.479C321.934 526.61 321.213 524.778 320.384 522.994C319.663 521.145 318.839 519.337 317.916 517.579Z" fill="#263238"/>
<path d="M334.965 529.146C336.361 528.882 337.718 528.443 339.003 527.841C340.332 527.351 341.587 526.683 342.733 525.855C342.733 525.772 341.008 526.619 338.863 527.521C336.718 528.424 334.937 529.049 334.965 529.146Z" fill="#263238"/>
<path d="M329.777 531.382C329.777 531.479 330.086 531.688 330.436 532.007C330.787 532.326 331.039 532.632 331.123 532.576C331.207 532.521 331.123 532.104 330.675 531.743C330.226 531.382 329.805 531.299 329.777 531.382Z" fill="#263238"/>
<path d="M326.764 529.827C326.764 529.924 327.016 530.118 327.409 530.271C327.801 530.424 328.152 530.479 328.194 530.396C328.236 530.313 327.941 530.104 327.549 529.952C327.156 529.799 326.792 529.702 326.764 529.827Z" fill="#263238"/>
<path d="M323.482 529.938C323.482 530.021 323.888 529.868 324.337 529.841C324.785 529.813 325.15 529.841 325.192 529.841C325.234 529.841 324.856 529.48 324.309 529.535C323.762 529.591 323.411 529.868 323.482 529.938Z" fill="#263238"/>
<path d="M321.252 530.285C321.252 530.382 321.476 530.452 321.729 530.438C321.981 530.424 322.191 530.341 322.191 530.243C322.191 530.146 321.967 530.077 321.715 530.091C321.462 530.105 321.252 530.188 321.252 530.285Z" fill="#263238"/>
<path d="M84.8388 417.403L63.9763 263.019C63.8462 262.058 63.9344 261.08 64.2344 260.158C64.5345 259.235 65.0388 258.39 65.7105 257.685C66.3823 256.98 67.2046 256.432 68.1173 256.082C69.0301 255.731 70.0104 255.587 70.9865 255.66L121.278 259.825C123.521 260.012 125.625 260.981 127.214 262.56C128.804 264.139 129.775 266.226 129.957 268.448L142.211 414.612L84.8388 417.403Z" fill="black"/>
<g opacity="0.2">
<path d="M84.8388 417.403L63.9763 263.019C63.8462 262.058 63.9344 261.08 64.2344 260.158C64.5345 259.235 65.0388 258.39 65.7105 257.685C66.3823 256.98 67.2046 256.432 68.1173 256.082C69.0301 255.731 70.0104 255.587 70.9865 255.66L121.278 259.825C123.521 260.012 125.625 260.981 127.214 262.56C128.804 264.139 129.775 266.226 129.957 268.448L142.211 414.612L84.8388 417.403Z" fill="black"/>
</g>
<path d="M133.349 190.513C132.929 184.626 131.372 178.891 130.545 173.06C129.718 167.228 129.55 161.091 131.877 155.662C133.302 152.636 135.316 149.917 137.803 147.663C140.291 145.409 143.204 143.664 146.374 142.527C152.742 140.29 159.542 139.52 166.255 140.278C167.469 140.314 168.664 140.583 169.775 141.069C170.323 141.321 170.796 141.709 171.147 142.196C171.499 142.682 171.717 143.251 171.779 143.846C171.793 144.142 171.745 144.437 171.638 144.713C171.532 144.989 171.369 145.241 171.16 145.452C170.95 145.663 170.699 145.829 170.423 145.94C170.146 146.05 169.849 146.104 169.55 146.096C172.111 146.355 174.636 146.89 177.079 147.692C178.072 147.971 178.935 148.585 179.519 149.428C179.756 149.956 179.849 150.536 179.79 151.111C179.731 151.685 179.522 152.235 179.182 152.705C178.485 153.635 177.626 154.434 176.645 155.065C176.945 155.007 177.254 155.007 177.553 155.067C177.853 155.127 178.138 155.244 178.392 155.413C178.646 155.582 178.864 155.799 179.033 156.051C179.203 156.304 179.32 156.587 179.379 156.884C179.468 157.491 179.429 158.11 179.262 158.7C179.095 159.291 178.806 159.841 178.411 160.314C177.696 161.313 176.771 162.132 176.028 163.09C172.999 167.075 173.588 172.615 174.317 177.558" fill="#263238"/>
<path d="M133.896 225.002L162.232 224.502C162.61 221.253 163.157 208.618 163.157 208.618C163.157 208.618 175.004 207.535 175.874 195.928C176.743 184.32 176.378 157.523 176.378 157.523C169.888 154.278 162.64 152.808 155.384 153.264C148.128 153.72 141.126 156.087 135.102 160.119L133.279 161.341L133.896 225.002Z" fill="#B78876"/>
<path d="M172.453 177.655C172.215 177.418 172.053 177.116 171.987 176.788C171.922 176.459 171.956 176.119 172.086 175.81C172.216 175.501 172.435 175.237 172.716 175.051C172.997 174.866 173.328 174.767 173.666 174.767C174.003 174.767 174.334 174.866 174.615 175.051C174.896 175.237 175.115 175.501 175.245 175.81C175.375 176.119 175.409 176.459 175.344 176.788C175.279 177.116 175.117 177.418 174.878 177.655C174.72 177.815 174.532 177.942 174.323 178.029C174.115 178.116 173.892 178.16 173.666 178.16C173.44 178.16 173.216 178.116 173.008 178.029C172.799 177.942 172.611 177.815 172.453 177.655Z" fill="#263238"/>
<path d="M175.439 174.837C175.243 175.032 174.149 174.088 172.537 173.977C170.924 173.865 169.733 174.629 169.522 174.407C169.312 174.185 169.649 173.963 170.181 173.602C170.905 173.159 171.752 172.954 172.601 173.017C173.449 173.079 174.256 173.405 174.906 173.949C175.383 174.379 175.537 174.754 175.439 174.837Z" fill="#263238"/>
<path d="M156.736 175.1C157.014 175.293 157.229 175.562 157.352 175.875C157.475 176.188 157.501 176.531 157.427 176.859C157.353 177.186 157.182 177.485 156.936 177.717C156.691 177.948 156.381 178.102 156.047 178.159C155.712 178.216 155.369 178.173 155.059 178.036C154.749 177.898 154.488 177.673 154.308 177.389C154.128 177.104 154.037 176.773 154.048 176.437C154.058 176.101 154.169 175.776 154.367 175.503C154.495 175.322 154.659 175.168 154.848 175.05C155.036 174.932 155.247 174.852 155.467 174.814C155.687 174.777 155.913 174.783 156.131 174.832C156.348 174.881 156.554 174.972 156.736 175.1Z" fill="#263238"/>
<path d="M157.802 175.184C157.606 175.364 156.512 174.42 154.9 174.309C153.287 174.198 152.096 174.962 151.899 174.753C151.703 174.545 152.011 174.295 152.558 173.948C153.277 173.498 154.123 173.289 154.971 173.352C155.82 173.414 156.625 173.745 157.269 174.295C157.746 174.712 157.9 175.1 157.802 175.184Z" fill="#263238"/>
<path d="M163.467 188.776C164.316 188.498 165.208 188.366 166.102 188.387C166.537 188.387 166.874 188.29 166.916 188.067C166.952 187.648 166.874 187.226 166.691 186.846C166.341 185.763 165.976 184.666 165.612 183.513C164.14 178.779 163.13 174.877 163.382 174.808C163.635 174.738 165.009 178.515 166.495 183.249C166.846 184.402 167.168 185.513 167.504 186.596C167.735 187.156 167.774 187.775 167.617 188.359C167.546 188.516 167.44 188.654 167.306 188.762C167.172 188.871 167.014 188.947 166.846 188.984C166.608 189.009 166.368 189.009 166.13 188.984C165.237 189.064 164.336 188.994 163.467 188.776Z" fill="#263238"/>
<path d="M158.096 190.221C156.484 189.124 162.583 192.998 165.878 192.998C165.275 193.798 164.414 194.372 163.439 194.624C162.463 194.877 161.429 194.793 160.508 194.386C157.031 192.929 158.096 190.221 158.096 190.221Z" fill="white"/>
<path d="M163.2 208.451C157.775 208.227 152.542 206.404 148.17 203.217C148.17 203.217 151.268 211.798 163.032 211.464L163.2 208.451Z" fill="#A36957"/>
<path d="M132.901 170.089L133.504 185.153C133.504 185.153 138.846 183.543 139.196 183.39C139.547 183.237 139.098 164.937 139.098 164.937C139.098 164.937 138.355 157.995 142.898 156.398C147.679 154.69 149.754 158.12 156.526 159.175C178.86 162.91 177.332 156.121 177.332 156.121C177.332 156.121 180.136 153.135 174.402 149.859C168.667 146.582 154.324 145.471 146.473 148.151C131.05 153.413 130.125 158.648 130.125 163.271C130.125 169.866 132.901 170.089 132.901 170.089Z" fill="#263238"/>
<path d="M135.523 171.644C135.271 171.546 126.83 170.464 127.63 180.336C128.429 190.208 138.229 186.153 138.229 185.889C138.229 185.626 135.523 171.644 135.523 171.644Z" fill="#B78876"/>
<path d="M134.891 182.584C134.891 182.584 134.723 182.723 134.443 182.875C134.041 183.082 133.573 183.127 133.139 183C132.459 182.655 131.887 182.132 131.484 181.489C131.081 180.845 130.863 180.106 130.853 179.349C130.756 178.501 130.852 177.642 131.134 176.836C131.209 176.526 131.357 176.238 131.567 175.997C131.776 175.755 132.041 175.567 132.34 175.447C132.535 175.38 132.748 175.383 132.942 175.453C133.137 175.524 133.3 175.659 133.405 175.836C133.559 176.1 133.503 176.308 133.559 176.322C133.615 176.336 133.756 176.128 133.643 175.739C133.575 175.495 133.42 175.283 133.209 175.142C132.913 174.969 132.564 174.91 132.227 174.975C131.824 175.085 131.456 175.297 131.159 175.588C130.862 175.88 130.646 176.243 130.531 176.641C130.178 177.522 130.048 178.476 130.152 179.418C130.377 181.404 131.554 183.181 132.956 183.486C133.231 183.542 133.514 183.535 133.786 183.468C134.058 183.401 134.311 183.274 134.527 183.098C134.891 182.889 134.919 182.653 134.891 182.584Z" fill="#A36957"/>
<path d="M246.875 304.768C246.875 304.768 260.896 304.102 263.7 305.365C268.551 307.462 282.992 329.886 282.263 329.886C280.076 329.886 275.575 329.886 275.575 329.886L253.142 321.458L247.856 322.777L246.875 304.768Z" fill="#B78876"/>
<path d="M307.163 369.152C307.163 369.152 349.112 513.039 349.21 512.331C349.308 511.623 311.607 530.284 311.607 530.284L286.174 426.232L307.163 369.152Z" fill="#263238"/>
<path d="M310.779 531.159L350.513 511.957L348.789 506.694L308.746 525.925L310.779 531.159Z" fill="#455A64"/>
<path d="M305.563 478.23C305.353 478.23 304.918 477.383 304.567 476.231C304.217 475.078 304.105 474.065 304.315 474.009C304.525 473.954 304.96 474.842 305.31 476.009C305.661 477.175 305.759 478.161 305.563 478.23Z" fill="#455A64"/>
<path d="M308.157 486.659C307.947 486.659 307.484 485.826 307.134 484.674C306.783 483.521 306.643 482.521 306.839 482.452C307.036 482.383 307.498 483.285 307.863 484.437C308.227 485.59 308.354 486.562 308.157 486.659Z" fill="#455A64"/>
<path d="M310.863 494.989C310.653 495.058 310.19 494.17 309.811 493.017C309.433 491.865 309.293 490.879 309.489 490.809C309.685 490.74 310.162 491.629 310.54 492.781C310.919 493.934 311.059 494.989 310.863 494.989Z" fill="#455A64"/>
<path d="M313.695 503.321C313.485 503.39 313.008 502.515 312.616 501.363C312.223 500.21 312.055 499.225 312.265 499.155C312.475 499.086 312.952 499.961 313.345 501.113C313.737 502.265 313.891 503.321 313.695 503.321Z" fill="#455A64"/>
<path d="M316.641 511.65C316.444 511.65 315.94 510.845 315.533 509.707C315.126 508.568 314.944 507.582 315.154 507.513C315.365 507.443 315.841 508.304 316.262 509.457C316.683 510.609 316.865 511.539 316.641 511.65Z" fill="#455A64"/>
<path d="M319.668 519.857C319.458 519.857 318.953 519.066 318.532 517.927C318.112 516.789 317.915 515.803 318.112 515.733C318.308 515.664 318.827 516.525 319.247 517.663C319.668 518.802 319.906 519.788 319.668 519.857Z" fill="#455A64"/>
<path d="M317.467 523.315C317.121 522.853 316.839 522.349 316.626 521.815C316.135 520.815 315.462 519.358 314.691 517.539C313.135 513.901 311.214 508.777 309.279 503.071C307.344 497.364 305.718 492.144 304.568 488.367C304.035 486.59 303.587 485.09 303.166 483.882C302.963 483.341 302.831 482.777 302.773 482.202C303.048 482.707 303.273 483.237 303.446 483.785C303.839 484.826 304.372 486.326 305.017 488.2L309.938 502.821C311.859 508.528 313.695 513.665 315.126 517.344L316.836 521.69C317.104 522.208 317.316 522.752 317.467 523.315Z" fill="#455A64"/>
<path d="M111.45 359.155C111.801 351.533 107.426 400.99 145.814 402.295C184.203 403.6 262.633 403.031 262.633 403.031L253.45 528.451H299.507L309.125 395.02C309.125 395.02 314.032 356.365 287.323 351.436C270.611 348.339 166.677 347.354 166.677 347.354L111.45 359.155Z" fill="#263238"/>
<path d="M252.398 528.715H300.895V521.245L252.398 521.315V528.715Z" fill="#455A64"/>
<path d="M176.533 396.407C176.696 396.387 176.861 396.387 177.024 396.407L178.426 396.324L184.034 396.074L204.855 395.283L275.083 392.895H275.532V393.339C274.901 398.448 274.368 403.85 273.92 409.334C273.303 417.179 272.714 424.829 272.139 432.216C271.564 439.603 270.737 446.712 270.022 453.487C268.62 467.011 267.302 479.202 266.208 489.462C265.115 499.723 264.203 507.943 263.573 513.705C263.25 516.482 262.998 518.759 262.815 520.3C262.731 521.022 262.661 521.592 262.605 522.008C262.588 522.205 262.555 522.4 262.507 522.591C262.485 522.398 262.485 522.202 262.507 522.008C262.507 521.578 262.591 521.008 262.647 520.286C262.787 518.731 262.998 516.51 263.264 513.677C263.825 507.915 264.666 499.626 265.662 489.407C266.657 479.188 267.933 466.955 269.307 453.404C269.98 446.628 270.709 439.519 271.368 432.147C272.027 424.774 272.532 417.109 273.135 409.278C273.583 403.725 274.116 398.379 274.761 393.242L275.153 393.672L204.911 395.796L184.09 396.366L178.482 396.477H177.08C176.895 396.481 176.711 396.458 176.533 396.407Z" fill="#455A64"/>
<path d="M180.964 390.979C180.964 391.187 179.982 391.382 178.748 391.409C177.515 391.437 176.533 391.298 176.533 391.09C176.533 390.882 177.515 390.674 178.734 390.646C179.954 390.618 180.964 390.771 180.964 390.979Z" fill="#455A64"/>
<path d="M189.839 390.771C189.839 390.98 188.858 391.174 187.624 391.202C186.39 391.229 185.409 391.091 185.395 390.882C185.381 390.674 186.39 390.48 187.61 390.438C188.83 390.396 189.839 390.563 189.839 390.771Z" fill="#455A64"/>
<path d="M198.714 390.562C198.714 390.784 197.733 390.965 196.499 391.006C195.265 391.048 194.284 390.881 194.27 390.673C194.256 390.465 195.265 390.271 196.485 390.243C197.705 390.215 198.714 390.354 198.714 390.562Z" fill="#455A64"/>
<path d="M207.589 390.354C207.589 390.576 206.608 390.771 205.374 390.798C204.14 390.826 203.159 390.673 203.145 390.465C203.131 390.257 204.14 390.063 205.36 390.035C206.58 390.007 207.589 390.146 207.589 390.354Z" fill="#455A64"/>
<path d="M216.464 390.161C216.464 390.369 215.483 390.564 214.249 390.591C213.015 390.619 212.034 390.466 212.02 390.258C212.006 390.05 213.015 389.856 214.235 389.828C215.455 389.8 216.464 389.939 216.464 390.161Z" fill="#455A64"/>
<path d="M225.339 389.951C225.339 390.159 224.358 390.353 223.124 390.381C221.89 390.409 220.909 390.256 220.895 390.048C220.881 389.84 221.89 389.645 223.11 389.618C224.33 389.59 225.325 389.743 225.339 389.951Z" fill="#455A64"/>
<path d="M234.214 389.744C234.214 389.952 233.233 390.146 231.999 390.174C230.765 390.202 229.784 390.049 229.77 389.841C229.756 389.633 230.751 389.438 231.985 389.41C233.219 389.383 234.144 389.535 234.214 389.744Z" fill="#455A64"/>
<path d="M243.087 389.535C243.087 389.743 242.106 389.937 240.872 389.965C239.638 389.993 238.657 389.854 238.643 389.632C238.629 389.41 239.624 389.229 240.858 389.202C242.092 389.174 243.073 389.326 243.087 389.535Z" fill="#455A64"/>
<path d="M251.964 389.328C251.964 389.536 250.983 389.73 249.749 389.758C248.515 389.786 247.534 389.647 247.52 389.439C247.506 389.231 248.501 389.022 249.735 388.994C250.969 388.967 251.95 389.119 251.964 389.328Z" fill="#455A64"/>
<path d="M260.783 389.119C260.783 389.327 259.787 389.521 258.567 389.549C257.348 389.577 256.352 389.438 256.338 389.23C256.324 389.021 257.319 388.813 258.553 388.785C259.787 388.758 260.783 388.91 260.783 389.119Z" fill="#455A64"/>
<path d="M269.714 388.911C269.714 389.119 268.719 389.313 267.499 389.341C266.279 389.369 265.284 389.23 265.27 389.022C265.256 388.814 266.251 388.619 267.485 388.591C268.719 388.564 269.7 388.703 269.714 388.911Z" fill="#455A64"/>
<path d="M278.589 388.703C278.589 388.925 277.594 389.119 276.374 389.147C275.154 389.175 274.145 389.022 274.145 388.814C274.145 388.606 275.126 388.411 276.36 388.383C277.594 388.356 278.575 388.495 278.589 388.703Z" fill="#455A64"/>
<path d="M278.574 396.673C278.35 396.673 278.28 395.659 278.406 394.451C278.532 393.243 278.785 392.285 278.995 392.299C279.205 392.313 279.289 393.313 279.163 394.521C279.037 395.729 278.785 396.7 278.574 396.673Z" fill="#455A64"/>
<path d="M277.706 405.42C277.496 405.42 277.412 404.406 277.538 403.198C277.664 401.99 277.93 401.032 278.141 401.046C278.351 401.06 278.421 402.06 278.309 403.268C278.197 404.476 277.916 405.447 277.706 405.42Z" fill="#455A64"/>
<path d="M276.835 414.166C276.625 414.166 276.541 413.152 276.667 411.944C276.793 410.736 277.059 409.778 277.27 409.792C277.48 409.806 277.55 410.82 277.438 412.028C277.326 413.236 277.045 414.194 276.835 414.166Z" fill="#455A64"/>
<path d="M275.965 422.914C275.755 422.914 275.685 421.9 275.797 420.692C275.909 419.484 276.19 418.526 276.4 418.54C276.61 418.554 276.68 419.568 276.568 420.776C276.456 421.984 276.204 422.942 275.965 422.914Z" fill="#455A64"/>
<path d="M275.098 431.675C274.888 431.675 274.818 430.648 274.93 429.44C275.042 428.232 275.323 427.274 275.533 427.301C275.743 427.329 275.827 428.315 275.701 429.523C275.575 430.731 275.309 431.689 275.098 431.675Z" fill="#455A64"/>
<path d="M274.229 440.423C274.018 440.423 273.948 439.396 274.075 438.188C274.201 436.98 274.453 436.022 274.663 436.049C274.874 436.077 274.958 437.063 274.832 438.271C274.705 439.479 274.453 440.437 274.229 440.423Z" fill="#455A64"/>
<path d="M273.4 449.169C273.176 449.169 273.106 448.156 273.232 446.948C273.358 445.74 273.611 444.768 273.835 444.796C274.059 444.823 274.116 445.809 273.989 447.017C273.863 448.225 273.583 449.169 273.4 449.169Z" fill="#455A64"/>
<path d="M272.503 457.917C272.293 457.917 272.208 456.904 272.335 455.696C272.461 454.488 272.727 453.516 272.938 453.544C273.148 453.571 273.218 454.557 273.106 455.765C272.994 456.973 272.713 457.931 272.503 457.917Z" fill="#455A64"/>
<path d="M271.635 466.665C271.425 466.665 271.355 465.651 271.467 464.443C271.579 463.235 271.86 462.277 272.07 462.291C272.28 462.305 272.35 463.305 272.238 464.513C272.126 465.721 271.846 466.693 271.635 466.665Z" fill="#455A64"/>
<path d="M270.766 475.412C270.556 475.412 270.486 474.398 270.598 473.19C270.71 471.982 270.991 471.024 271.201 471.038C271.411 471.052 271.481 472.052 271.369 473.26C271.257 474.468 270.977 475.44 270.766 475.412Z" fill="#455A64"/>
<path d="M269.895 484.16C269.685 484.16 269.615 483.146 269.727 481.938C269.839 480.73 270.119 479.772 270.33 479.786C270.54 479.8 270.624 480.8 270.498 482.008C270.372 483.216 270.105 484.188 269.895 484.16Z" fill="#455A64"/>
<path d="M269.041 492.907C268.817 492.907 268.747 491.893 268.873 490.685C268.999 489.477 269.251 488.519 269.462 488.533C269.672 488.547 269.756 489.561 269.63 490.769C269.504 491.977 269.195 492.935 269.041 492.907Z" fill="#455A64"/>
<path d="M268.171 501.653C267.961 501.653 267.876 500.64 268.003 499.432C268.129 498.224 268.381 497.266 268.606 497.279C268.83 497.293 268.886 498.307 268.76 499.515C268.634 500.723 268.381 501.681 268.171 501.653Z" fill="#455A64"/>
<path d="M267.302 510.415C267.091 510.415 267.007 509.388 267.134 508.18C267.26 506.972 267.526 506.014 267.736 506.042C267.947 506.069 268.017 507.055 267.905 508.263C267.792 509.471 267.512 510.429 267.302 510.415Z" fill="#455A64"/>
<path d="M266.391 519.163C266.181 519.163 266.111 518.15 266.223 516.942C266.335 515.734 266.616 514.762 266.826 514.79C267.036 514.817 267.106 515.803 266.994 517.011C266.882 518.219 266.644 519.177 266.391 519.163Z" fill="#455A64"/>
<path d="M265.969 523.8C265.759 523.8 265.59 523.703 265.604 523.634C265.618 523.564 265.787 523.509 265.997 523.537C266.207 523.564 266.376 523.634 266.376 523.703C266.376 523.773 266.179 523.814 265.969 523.8Z" fill="#455A64"/>
<path d="M268.915 397.187C268.11 398.439 267.089 399.544 265.901 400.449C264.878 401.537 263.679 402.447 262.354 403.143C264.18 400.8 266.4 398.785 268.915 397.187Z" fill="#263238"/>
<path d="M272.096 398.88C270.572 399.97 268.907 400.852 267.147 401.504C265.486 402.378 263.712 403.023 261.875 403.42C263.399 402.33 265.063 401.448 266.824 400.796C268.486 399.924 270.259 399.28 272.096 398.88Z" fill="#263238"/>
<path d="M178.44 299.355C178.44 299.355 173.743 249.523 165.401 227.71L167.055 226.474L164.574 217.88L133.364 214.131L133.841 220.837C129.235 222.891 125.473 226.437 123.171 230.89C111.955 254.41 117.563 281.874 111.548 332.762C111.548 332.762 104.538 356.629 111.773 364.099L179.87 348.382L176.66 332.998C206.383 332.442 255.259 327.027 255.259 327.027L253.856 299.175C253.856 299.175 180.824 299.605 178.44 299.355Z" fill="#455A64"/>
<path d="M164.517 217.837C165.507 219.585 166.266 221.451 166.774 223.391C167.079 224.149 167.286 224.942 167.391 225.751C167.412 226.171 167.271 226.582 166.999 226.904C166.774 227.167 166.484 227.367 166.157 227.487C164.98 227.848 164.307 227.598 164.307 227.487C164.307 227.376 165.036 227.362 165.919 226.945C166.156 226.841 166.355 226.668 166.493 226.451C166.63 226.233 166.699 225.98 166.69 225.723C166.531 224.991 166.315 224.271 166.045 223.571C165.296 221.73 164.783 219.804 164.517 217.837Z" fill="#E0E0E0"/>
<path d="M171.963 254.938C171.963 255.161 159.344 255.327 143.922 255.327C128.499 255.327 115.881 255.161 115.881 254.938C115.881 254.716 128.499 254.563 143.922 254.563C159.344 254.563 171.963 254.786 171.963 254.938Z" fill="#263238"/>
<path d="M169.032 240.9C169.032 241.109 157.9 241.289 144.188 241.289C130.476 241.289 119.344 241.109 119.344 240.9C119.344 240.692 130.462 240.525 144.188 240.525C157.914 240.525 169.032 240.692 169.032 240.9Z" fill="#263238"/>
<path d="M164.938 228.557C164.938 228.765 155.74 228.932 144.384 228.932C133.027 228.932 123.844 228.765 123.844 228.557C123.844 228.348 133.041 228.168 144.384 228.168C155.726 228.168 164.938 228.404 164.938 228.557Z" fill="#263238"/>
<path d="M164.531 219.837C159.293 220.229 154.038 220.359 148.786 220.226C143.534 220.359 138.279 220.229 133.041 219.837C133.041 219.629 140.051 219.462 148.786 219.462C157.521 219.462 164.531 219.629 164.531 219.837Z" fill="#263238"/>
<path d="M173.94 268.446C173.94 268.655 160.662 268.821 144.286 268.821C127.91 268.821 114.633 268.655 114.633 268.446C114.633 268.238 127.91 268.058 144.286 268.058C160.662 268.058 173.94 268.224 173.94 268.446Z" fill="#263238"/>
<path d="M176.35 282.012C176.35 282.22 162.54 282.387 145.505 282.387C128.47 282.387 114.66 282.22 114.66 282.012C114.66 281.804 128.47 281.623 145.505 281.623C162.54 281.623 176.35 281.804 176.35 282.012Z" fill="#263238"/>
<path d="M177.865 294.509C177.865 294.731 163.705 294.897 146.249 294.897C128.794 294.897 114.633 294.731 114.633 294.509C114.633 294.287 128.794 294.134 146.249 294.134C163.705 294.134 177.865 294.3 177.865 294.509Z" fill="#263238"/>
<path d="M246.874 308.186C246.874 308.394 217.01 308.561 180.178 308.561C143.346 308.561 113.469 308.394 113.469 308.186C113.469 307.977 143.332 307.797 180.178 307.797C217.024 307.797 246.874 307.977 246.874 308.186Z" fill="#263238"/>
<path d="M247.391 319.125C247.391 319.347 217.303 319.514 180.191 319.514C143.079 319.514 112.977 319.347 112.977 319.125C112.977 318.903 143.065 318.75 180.191 318.75C217.317 318.75 247.391 318.917 247.391 319.125Z" fill="#263238"/>
<path d="M175.593 332.623C175.593 332.845 161.222 333.012 143.486 333.012C125.75 333.012 111.365 332.845 111.365 332.623C111.365 332.401 125.736 332.248 143.486 332.248C161.236 332.248 175.593 332.415 175.593 332.623Z" fill="#263238"/>
<path d="M178.861 345.145C178.861 345.354 163.228 345.534 143.95 345.534C124.672 345.534 109.039 345.354 109.039 345.145C109.039 344.937 124.672 344.771 143.95 344.771C163.228 344.771 178.861 344.937 178.861 345.145Z" fill="#263238"/>
<path d="M119.412 348.465C119.188 348.465 119.02 324.181 119.02 294.232C119.02 264.282 119.188 239.998 119.412 239.998C119.636 239.998 119.791 264.282 119.791 294.232C119.791 324.181 119.622 348.465 119.412 348.465Z" fill="#263238"/>
<path d="M136.252 347.131C136.041 347.131 135.873 317.446 135.873 280.832C135.873 244.218 135.999 214.519 136.252 214.519C136.504 214.519 136.644 244.19 136.644 280.818C136.644 317.446 136.476 347.131 136.252 347.131Z" fill="#263238"/>
<path d="M154.857 345.146C154.647 345.146 154.479 316.53 154.479 281.277C154.479 246.024 154.647 217.407 154.857 217.407C155.067 217.407 155.25 246.024 155.25 281.277C155.25 316.53 155.081 345.146 154.857 345.146Z" fill="#263238"/>
<path d="M170.49 348.423C170.28 348.423 170.111 325.957 170.111 298.257C170.111 270.557 170.28 248.078 170.49 248.078C170.7 248.078 170.882 270.544 170.882 298.257C170.882 325.971 170.7 348.423 170.49 348.423Z" fill="#263238"/>
<path d="M187.049 299.284C187.231 300.907 187.283 302.541 187.203 304.172C187.203 307.185 187.203 311.336 187.035 315.918C186.867 320.5 186.782 324.665 186.642 327.664C186.629 329.296 186.498 330.925 186.25 332.538C186.066 330.92 186.015 329.29 186.095 327.664C186.095 324.651 186.095 320.5 186.264 315.904C186.432 311.308 186.516 307.157 186.656 304.144C186.652 302.516 186.783 300.891 187.049 299.284Z" fill="#263238"/>
<path d="M204.7 299.868C204.874 301.389 204.926 302.921 204.855 304.45C204.855 307.227 204.855 311.156 204.714 315.447C204.574 319.737 204.462 323.639 204.336 326.457C204.341 327.984 204.209 329.508 203.943 331.011C203.769 329.5 203.717 327.977 203.789 326.457C203.789 323.68 203.789 319.737 203.943 315.433C204.098 311.129 204.182 307.241 204.322 304.422C204.309 302.896 204.436 301.372 204.7 299.868Z" fill="#263238"/>
<path d="M222.255 299.563C222.446 301.032 222.503 302.514 222.423 303.993C222.423 306.77 222.423 310.505 222.283 314.67C222.143 318.835 222.044 322.612 221.904 325.333C221.918 326.818 221.791 328.301 221.526 329.763C221.35 328.298 221.294 326.821 221.357 325.347C221.357 322.57 221.357 318.835 221.512 314.67C221.666 310.505 221.75 306.714 221.876 303.993C221.88 302.509 222.007 301.027 222.255 299.563Z" fill="#263238"/>
<path d="M239.878 299.077C240.071 300.499 240.127 301.935 240.046 303.368C240.046 306.019 240.046 309.685 239.906 313.726C239.766 317.766 239.682 321.431 239.542 324.07C239.545 325.507 239.423 326.943 239.177 328.36C238.983 326.938 238.922 325.502 238.995 324.07C238.995 321.418 238.995 317.752 239.135 313.712C239.275 309.671 239.373 305.992 239.499 303.354C239.494 301.92 239.621 300.488 239.878 299.077Z" fill="#263238"/>
<path d="M172.328 305.561C173.597 302.475 175.906 299.919 178.862 298.327C177.833 299.586 176.723 300.778 175.539 301.896C174.547 303.182 173.474 304.407 172.328 305.561Z" fill="#263238"/>
<path d="M176.351 305.894C176.058 304.5 176.165 303.051 176.661 301.714C177.156 300.376 178.021 299.203 179.155 298.327C179.324 298.48 178.146 299.896 177.389 301.979C176.632 304.062 176.66 305.894 176.351 305.894Z" fill="#263238"/>
<path d="M248.164 326.873C247.379 322.468 246.845 318.023 246.566 313.558C246.033 309.111 245.752 304.637 245.725 300.159C246.528 304.567 247.067 309.018 247.337 313.488C247.87 317.931 248.146 322.4 248.164 326.873Z" fill="#263238"/>
<path d="M249.047 305.408C249.047 305.505 248.654 305.783 248.598 306.477C248.586 306.661 248.611 306.845 248.671 307.019C248.731 307.193 248.826 307.353 248.949 307.491C249.107 307.631 249.304 307.72 249.514 307.748C249.724 307.775 249.938 307.739 250.127 307.644C250.325 307.569 250.496 307.438 250.621 307.268C250.745 307.098 250.817 306.895 250.828 306.686C250.809 306.502 250.753 306.324 250.664 306.162C250.575 306 250.454 305.857 250.309 305.741C249.762 305.311 249.243 305.45 249.215 305.339C249.187 305.228 249.734 304.839 250.617 305.339C250.876 305.476 251.096 305.675 251.257 305.917C251.419 306.16 251.517 306.438 251.543 306.727C251.563 307.087 251.468 307.445 251.271 307.749C251.075 308.053 250.788 308.288 250.449 308.421C250.116 308.577 249.743 308.625 249.381 308.561C249.019 308.496 248.687 308.321 248.43 308.06C248.247 307.841 248.12 307.582 248.059 307.304C247.998 307.026 248.005 306.738 248.08 306.463C248.332 305.45 249.061 305.311 249.047 305.408Z" fill="#263238"/>
<path d="M178.355 299.216H178.706L179.729 299.299C180.641 299.396 181.987 299.48 183.753 299.535C187.286 299.674 192.474 299.744 199.078 299.688C212.271 299.605 231.128 299.119 253.758 298.3H254.08V298.619C254.529 307.269 255.005 316.669 255.482 326.638V326.958H255.188C251.598 327.624 247.967 327.902 244.252 328.277L232.923 329.249C225.226 329.873 217.304 330.456 209.242 331.026L179.603 332.997C171.009 332.456 162.666 329.401 156.834 323.792C153.967 321.086 151.715 317.806 150.23 314.17C148.836 310.738 147.725 307.199 146.907 303.59C143.444 289.705 141.299 277.056 139.546 266.559C138.705 261.311 137.99 256.576 137.387 252.438C136.749 248.918 136.332 245.361 136.14 241.789C136.025 239.521 136.508 237.262 137.542 235.235C137.896 234.543 138.37 233.918 138.944 233.389C138.452 233.988 138.016 234.629 137.64 235.305C136.683 237.329 136.259 239.559 136.406 241.789C136.659 245.345 137.127 248.882 137.808 252.383C138.467 256.548 139.21 261.241 140.079 266.49C141.846 276.959 144.089 289.524 147.58 303.423C148.408 306.998 149.519 310.504 150.903 313.906C152.363 317.452 154.571 320.647 157.381 323.278C162.989 328.735 171.247 331.72 179.687 332.261L209.313 330.262L232.979 328.499L244.308 327.541C247.995 327.166 251.697 326.888 255.132 326.249L254.851 326.624C254.374 316.697 253.926 307.255 253.449 298.591L253.8 298.91C231.185 299.73 212.327 300.118 199.12 300.091C192.516 300.091 187.328 299.966 183.795 299.757C182.029 299.66 180.669 299.549 179.757 299.41L178.734 299.285C178.605 299.28 178.478 299.256 178.355 299.216Z" fill="#263238"/>
<path d="M178.356 299.215C178.047 298.512 177.803 297.782 177.627 297.035C177.22 295.647 176.659 293.564 175.986 291.009C174.584 285.914 172.972 278.818 171.177 270.987C169.383 263.157 167.742 256.061 166.509 250.938L165.107 244.87C164.888 244.137 164.742 243.383 164.672 242.621C164.973 243.327 165.217 244.056 165.401 244.801C165.836 246.189 166.396 248.258 167.083 250.813C168.485 255.895 170.196 262.976 171.991 270.821C173.785 278.666 175.257 285.622 176.519 290.884C177.08 293.356 177.557 295.397 177.921 296.966C178.123 297.704 178.268 298.456 178.356 299.215Z" fill="#263238"/>
<path d="M164.616 218.42C164.628 218.933 164.576 219.446 164.461 219.947C164.321 220.933 164.097 222.335 163.788 224.113C163.654 225.082 163.457 226.042 163.199 226.987C163.114 227.3 162.955 227.589 162.736 227.83C162.517 228.071 162.243 228.258 161.938 228.375C161.322 228.536 160.675 228.536 160.059 228.375C157.746 227.903 155.222 227.292 152.586 226.584C147.328 225.196 142.645 223.654 139.238 222.613L135.215 221.363C134.726 221.241 134.255 221.059 133.812 220.822C134.331 220.837 134.845 220.921 135.341 221.072C136.322 221.294 137.724 221.627 139.449 222.099C142.898 223.002 147.609 224.418 152.852 225.848C155.474 226.556 157.97 227.237 160.269 227.695C160.762 227.854 161.288 227.887 161.797 227.792C162.006 227.716 162.194 227.593 162.346 227.431C162.497 227.269 162.607 227.074 162.667 226.862C162.975 225.973 163.101 224.946 163.312 224.085C163.676 222.363 163.999 220.975 164.223 220.003C164.276 219.459 164.408 218.926 164.616 218.42Z" fill="#263238"/>
<path d="M140.078 410.641L149.878 542.365L153.972 541.42L152.444 413.418L140.078 410.641Z" fill="#263238"/>
<path d="M98.5507 415.222L68.7852 542.211H74.169L116.777 415.222H98.5507Z" fill="#263238"/>
<path d="M177.275 415.222L217.879 542.211H222.225L189.964 415.222H177.275Z" fill="#263238"/>
<path d="M182.716 423.747L91.7227 482.632V485.853L185.253 423.747H182.716Z" fill="#263238"/>
<path d="M105.506 423.747L204.098 489.45V484.423L108.394 420.873L105.506 423.747Z" fill="#263238"/>
<path d="M84.9521 417.402L202.192 415.305C203.242 415.286 204.276 415.048 205.227 414.608C206.179 414.167 207.026 413.534 207.715 412.749C208.403 411.963 208.918 411.044 209.225 410.049C209.531 409.054 209.624 408.007 209.496 406.975C209.284 405.148 208.393 403.464 206.995 402.253C205.598 401.041 203.796 400.388 201.939 400.421L83.0312 402.309L84.9521 417.402Z" fill="black"/>
<g opacity="0.2">
<path d="M84.9521 417.402L202.192 415.305C203.242 415.286 204.276 415.048 205.227 414.608C206.179 414.167 207.026 413.534 207.715 412.749C208.403 411.963 208.918 411.044 209.225 410.049C209.531 409.054 209.624 408.007 209.496 406.975C209.284 405.148 208.393 403.464 206.995 402.253C205.598 401.041 203.796 400.388 201.939 400.421L83.0312 402.309L84.9521 417.402Z" fill="black"/>
</g>
<path d="M73.0066 327.652L84.84 417.403L177.277 415.223L177.039 360.711C177.071 358.569 176.649 356.445 175.798 354.475C174.947 352.505 173.687 350.735 172.101 349.279C170.514 347.823 168.636 346.713 166.588 346.023C164.54 345.333 162.368 345.077 160.214 345.272L89.7331 351.575L80.4515 256.451L71.0858 255.66C70.1076 255.589 69.1257 255.735 68.2119 256.088C67.298 256.441 66.4752 256.991 65.8035 257.699C65.1318 258.407 64.6281 259.254 64.3291 260.179C64.0302 261.105 63.9436 262.084 64.0756 263.047L73.0066 327.652Z" fill="black"/>
</svg>
