<svg width="173" height="31" viewBox="0 0 173 31" fill="none" xmlns="http://www.w3.org/2000/svg">
<path d="M9.20422 30C8.91756 30 8.73122 29.8567 8.64522 29.57L1.03422 2.394C0.919556 2.02133 1.07722 1.835 1.50722 1.835H5.67822C5.99356 1.835 6.17989 1.97833 6.23722 2.265L10.3652 17.659C10.5946 18.4043 10.7809 19.1927 10.9242 20.024C11.0962 20.8553 11.2539 21.6723 11.3972 22.475C11.5692 23.249 11.7269 23.98 11.8702 24.668H11.9562C12.2429 23.6647 12.5296 22.6757 12.8162 21.701C13.1029 20.6977 13.4039 19.6943 13.7192 18.691L16.9872 8.199L15.3962 2.953C15.3389 2.781 15.3532 2.652 15.4392 2.566C15.5539 2.45133 15.6829 2.394 15.8262 2.394H20.0402C20.3269 2.394 20.4989 2.53733 20.5562 2.824L24.8562 18.777C25.1429 19.7517 25.4009 20.7407 25.6302 21.744C25.8596 22.7187 26.0889 23.6933 26.3182 24.668H26.3612C26.5046 23.98 26.6479 23.2203 26.7912 22.389C26.9632 21.5577 27.1352 20.7263 27.3072 19.895C27.4792 19.035 27.6512 18.2323 27.8232 17.487L31.7792 2.265C31.8366 1.97833 32.0229 1.835 32.3382 1.835H36.6382C37.0396 1.835 37.1829 2.02133 37.0682 2.394L29.6722 29.57C29.5862 29.8567 29.3999 30 29.1132 30H23.9532C23.6379 30 23.4372 29.8567 23.3512 29.57L20.8572 20.712C20.5706 19.7087 20.2839 18.7053 19.9972 17.702C19.7392 16.6987 19.4956 15.724 19.2662 14.778H19.1802C18.8936 15.724 18.6069 16.6843 18.3202 17.659C18.0622 18.6337 17.7756 19.6227 17.4602 20.626L14.7512 29.613C14.6939 29.7563 14.6222 29.8567 14.5362 29.914C14.4502 29.9713 14.3356 30 14.1922 30H9.20422ZM48.0655 30.516C44.9695 30.516 42.6475 29.8423 41.0995 28.495C39.5515 27.119 38.7775 25.0837 38.7775 22.389V17.057C38.7775 14.1903 39.5371 12.026 41.0565 10.564C42.6045 9.07333 44.9265 8.328 48.0225 8.328C51.0611 8.328 53.3545 9.04467 54.9025 10.478C56.4505 11.9113 57.2245 14.004 57.2245 16.756V20.11C57.2245 20.454 57.0525 20.626 56.7085 20.626H43.8085V21.916C43.8085 23.4927 44.1381 24.6537 44.7975 25.399C45.4855 26.1157 46.5891 26.474 48.1085 26.474C49.2838 26.474 50.1868 26.2877 50.8175 25.915C51.4768 25.5423 51.8065 24.9833 51.8065 24.238C51.8065 23.894 51.9785 23.722 52.3225 23.722H56.2785C56.5938 23.722 56.7658 23.8797 56.7945 24.195C56.8805 26.259 56.1638 27.8357 54.6445 28.925C53.1538 29.9857 50.9608 30.516 48.0655 30.516ZM43.8085 17.186H52.2365V16.971C52.2365 15.3943 51.8925 14.2333 51.2045 13.488C50.5165 12.7427 49.4701 12.37 48.0655 12.37C46.6035 12.37 45.5285 12.757 44.8405 13.531C44.1525 14.2763 43.8085 15.4373 43.8085 17.014V17.186ZM62.6112 30C62.2959 30 62.1382 29.828 62.1382 29.484V1.147C62.1382 0.802999 62.2959 0.630999 62.6112 0.630999H66.6962C67.0402 0.630999 67.2122 0.802999 67.2122 1.147V29.484C67.2122 29.828 67.0402 30 66.6962 30H62.6112Z" fill="#21234B"/>
<path d="M81.5363 30.516C78.4976 30.516 76.1613 29.7707 74.5273 28.28C72.9219 26.7893 72.1193 24.6393 72.1193 21.83V16.971C72.1193 14.1903 72.9363 12.0547 74.5703 10.564C76.2043 9.07333 78.5406 8.328 81.5793 8.328C83.4999 8.328 85.1196 8.64333 86.4383 9.274C87.7569 9.876 88.7603 10.7073 89.4483 11.768C90.1363 12.8 90.4516 13.9897 90.3943 15.337C90.3656 15.939 90.1936 16.24 89.8783 16.24H86.0083C85.8649 16.24 85.7503 16.1827 85.6643 16.068C85.5783 15.9533 85.5353 15.7813 85.5353 15.552C85.5353 14.6347 85.1769 13.9323 84.4603 13.445C83.7723 12.929 82.8263 12.671 81.6223 12.671C80.1316 12.671 79.0136 13.058 78.2683 13.832C77.5516 14.5773 77.1933 15.7957 77.1933 17.487V21.357C77.1933 23.0197 77.5516 24.238 78.2683 25.012C79.0136 25.7573 80.1173 26.13 81.5793 26.13C82.8406 26.13 83.8009 25.872 84.4603 25.356C85.1483 24.8113 85.4923 24.1233 85.4923 23.292C85.4923 22.862 85.6499 22.647 85.9653 22.647H89.8353C90.1506 22.647 90.3226 22.8047 90.3513 23.12C90.4086 25.356 89.6919 27.1477 88.2013 28.495C86.7106 29.8423 84.4889 30.516 81.5363 30.516ZM104.13 30.516C101.091 30.516 98.7407 29.7993 97.0781 28.366C95.4441 26.904 94.6271 24.6967 94.6271 21.744V17.1C94.6271 14.176 95.4441 11.983 97.0781 10.521C98.7121 9.059 101.063 8.328 104.13 8.328C107.169 8.328 109.505 9.059 111.139 10.521C112.773 11.983 113.59 14.176 113.59 17.1V21.744C113.59 24.6967 112.773 26.904 111.139 28.366C109.534 29.7993 107.197 30.516 104.13 30.516ZM104.13 26.173C105.678 26.173 106.796 25.786 107.484 25.012C108.172 24.2093 108.516 22.9623 108.516 21.271V17.573C108.516 15.8817 108.172 14.649 107.484 13.875C106.796 13.0723 105.678 12.671 104.13 12.671C102.582 12.671 101.45 13.0723 100.733 13.875C100.045 14.649 99.7011 15.8817 99.7011 17.573V21.271C99.7011 22.9623 100.045 24.2093 100.733 25.012C101.45 25.786 102.582 26.173 104.13 26.173ZM119.007 30C118.691 30 118.534 29.828 118.534 29.484V14.219C118.534 13.3877 118.505 12.5563 118.448 11.725C118.419 10.8937 118.347 10.1197 118.233 9.403C118.175 9.03033 118.347 8.844 118.749 8.844H122.361C122.533 8.844 122.647 8.87267 122.705 8.93C122.791 8.95867 122.848 9.059 122.877 9.231C122.934 9.63233 123.006 10.0623 123.092 10.521C123.178 10.9797 123.235 11.467 123.264 11.983C124.382 10.8363 125.5 9.94767 126.618 9.317C127.736 8.65767 129.011 8.328 130.445 8.328C131.964 8.328 133.139 8.64333 133.971 9.274C134.831 9.90467 135.447 10.8363 135.82 12.069C136.995 10.8937 138.156 9.97633 139.303 9.317C140.478 8.65767 141.797 8.328 143.259 8.328C145.208 8.328 146.67 8.91567 147.645 10.091C148.648 11.2377 149.15 13.0007 149.15 15.38V29.484C149.15 29.828 148.992 30 148.677 30H144.592C144.248 30 144.076 29.828 144.076 29.484V16.24C144.076 15.0647 143.861 14.1903 143.431 13.617C143.029 13.015 142.356 12.714 141.41 12.714C140.607 12.714 139.804 12.9577 139.002 13.445C138.228 13.9037 137.353 14.5917 136.379 15.509V29.484C136.379 29.828 136.207 30 135.863 30H131.821C131.477 30 131.305 29.828 131.305 29.484V16.24C131.305 15.0647 131.09 14.1903 130.66 13.617C130.23 13.015 129.556 12.714 128.639 12.714C127.836 12.714 127.033 12.9577 126.231 13.445C125.457 13.9037 124.582 14.5917 123.608 15.509V29.484C123.608 29.828 123.436 30 123.092 30H119.007ZM163.376 30.516C160.28 30.516 157.958 29.8423 156.41 28.495C154.862 27.119 154.088 25.0837 154.088 22.389V17.057C154.088 14.1903 154.848 12.026 156.367 10.564C157.915 9.07333 160.237 8.328 163.333 8.328C166.372 8.328 168.665 9.04467 170.213 10.478C171.761 11.9113 172.535 14.004 172.535 16.756V20.11C172.535 20.454 172.363 20.626 172.019 20.626H159.119V21.916C159.119 23.4927 159.449 24.6537 160.108 25.399C160.796 26.1157 161.9 26.474 163.419 26.474C164.594 26.474 165.497 26.2877 166.128 25.915C166.787 25.5423 167.117 24.9833 167.117 24.238C167.117 23.894 167.289 23.722 167.633 23.722H171.589C171.904 23.722 172.076 23.8797 172.105 24.195C172.191 26.259 171.474 27.8357 169.955 28.925C168.464 29.9857 166.271 30.516 163.376 30.516ZM159.119 17.186H167.547V16.971C167.547 15.3943 167.203 14.2333 166.515 13.488C165.827 12.7427 164.781 12.37 163.376 12.37C161.914 12.37 160.839 12.757 160.151 13.531C159.463 14.2763 159.119 15.4373 159.119 17.014V17.186Z" fill="#4E63CE"/>
</svg>
